<svg width="502" height="837" viewBox="0 0 502 837" fill="none" xmlns="http://www.w3.org/2000/svg">
<g opacity="0.2">
<path d="M410.172 316.809C411.774 322.787 411.631 330.481 409.52 341.239C403.649 369.863 372.64 405.91 339.836 443.987C321.832 464.939 303.202 486.574 288.706 507.187C261.067 539.021 248.167 583.892 235.648 627.328C226.516 659.062 217.858 689.034 203.988 714.168L203.957 714.219C193.036 733.23 180.479 744.12 165.596 747.506C136.554 754.127 102.919 731.014 63.9752 704.206L60.2287 701.64C31.2484 681.795 -6.96621 657.372 -63.6268 622.366L-68.3009 619.361C-117.637 587.683 -179.043 548.229 -225.9 488.362C-328.776 370.868 -308.93 238.597 -263.042 186.22C-208.141 129.707 -137.856 114.487 5.70945 127.97C155.428 142.255 290.78 226.491 342.01 262.048C359.897 277.426 374.432 286.175 385.044 292.535C398.461 300.637 407.248 305.895 410.172 316.809ZM199.013 711.716C212.581 687.137 221.136 657.45 230.217 626.031C242.87 582.086 255.965 536.603 284.231 504.086C298.716 483.432 317.451 461.683 335.528 440.669C367.841 403.11 398.37 367.622 403.987 340.399C409.175 313.592 402.308 309.454 381.918 297.156C371.138 290.67 356.339 281.776 338.336 266.301C287.677 231.193 153.337 147.546 4.9537 133.376C-136.54 120.069 -205.598 134.832 -258.943 189.766C-303.442 240.61 -322.477 369.697 -221.548 484.959C-175.126 544.212 -114.152 583.394 -65.1853 614.871L-60.522 617.836C-3.80869 652.871 34.4587 677.323 63.5024 697.236L67.2489 699.802C105.095 725.872 137.791 748.334 164.335 742.296C177.601 739.258 188.913 729.26 199.013 711.716Z" fill="#A7CEFC"/>
<path d="M374.328 335.144C376.543 343.409 376.116 352.899 374.431 366.252L374.411 366.516C368.474 392.878 344.122 419.014 318.37 446.643C300.753 465.512 282.593 485.043 267.987 506.589C243.351 538.048 227.159 573.652 211.496 608.039C200.998 631.151 191.061 652.994 178.958 672.966L178.697 673.337C141.924 717.251 115.838 699.814 68.4572 668.213C63.3076 664.776 57.8835 661.155 52.112 657.412C41.9969 649.715 30.8284 641.612 18.9843 633.002C-33.6808 594.775 -105.801 542.366 -175.087 459.738C-252.221 356.721 -242.7 258.61 -199.078 207.012C-153.211 154.727 -82.0889 151.195 41.466 163.03C167.355 178.539 263.363 242.697 314.933 277.174L320.684 281.009C355.685 307.541 370.027 319.094 374.328 335.144ZM368.856 365.596C373.398 329.157 368.714 324.434 317.305 285.355L311.712 281.607C260.532 247.412 165.243 183.75 40.7835 168.373C-80.6999 156.714 -150.541 159.989 -194.717 210.359C-236.941 260.293 -245.868 355.75 -170.546 456.371C-101.779 538.407 -29.9541 590.551 22.4581 628.673C34.3023 637.283 45.4708 645.386 55.5224 653.015C61.1357 656.671 66.5597 660.292 71.7514 663.718C119.185 695.347 140.881 709.833 174.243 670.144C186.117 650.491 195.929 628.853 206.354 605.976C222.11 571.263 238.459 535.402 263.397 503.562C278.128 481.81 296.465 462.103 314.218 443.068C339.374 416.071 363.163 390.517 368.856 365.596Z" fill="#A7CEFC"/>
<path d="M344.49 350.708C347.317 361.261 345.995 372.108 342.548 386.106C335.166 409.931 312.984 433.421 289.548 458.279C275.596 473.027 261.205 488.323 248.649 504.761C228.371 528.472 212.551 554.386 197.21 579.397C184.626 599.929 172.772 619.318 159.554 635.633L159.345 635.861C123.257 671.42 96.7159 651.782 48.512 616.101L47.9524 615.692L39.7033 608.914C-7.13106 570.287 -71.288 517.378 -129.084 436.832C-192.724 340.521 -174.795 263.552 -140.174 226.881C-103.256 187.702 -42.069 178.489 71.0148 195.064C150.192 207.996 227.631 242.982 301.171 299.01C327.884 321.139 340.447 335.621 344.49 350.708ZM155.193 632.286C168.129 616.262 179.9 597.066 192.317 576.752C207.741 551.546 223.738 525.456 244.184 501.528C256.791 484.947 271.339 469.566 285.396 454.704C308.425 430.342 330.147 407.319 337.117 384.809C345.039 352.926 341.036 339.161 297.528 303.212C224.738 247.799 148.163 213.184 69.9749 200.418C-40.9524 184.167 -100.661 192.855 -136.106 230.479C-172.022 268.529 -182.359 346.129 -124.446 433.826C-67.0954 513.717 -3.27636 566.372 43.3675 604.793L51.9546 611.825C100.496 647.759 122.719 664.21 155.193 632.286Z" fill="#A7CEFC"/>
<path d="M316.62 362.217C319.781 374.014 318.509 386.225 313.51 400.81L313.489 400.901C305.131 423.096 284.052 444.828 261.783 467.826C251.452 478.464 240.819 489.484 230.946 500.989C216.19 516.769 203.099 533.394 190.489 549.459C174.99 569.18 160.335 587.858 144.947 601.615C111.585 627.369 85.792 609.681 47.1736 577.539C9.78562 543.777 -44.8182 490.76 -87.7927 419.359C-123.494 349.751 -125.56 291 -93.6969 253.777C-59.381 213.618 9.23849 202.93 94.5842 224.443C193.594 244.403 263.218 299.245 282.171 315.583C301.636 333.161 312.642 347.371 316.62 362.217ZM308.182 399.227C317.477 371.965 315.388 353.086 278.307 319.629C259.649 303.555 190.934 249.417 93.1656 229.726C9.94625 208.761 -56.565 218.755 -89.3673 257.176C-119.717 292.66 -117.359 349.312 -82.7739 416.767C-40.2243 487.422 13.9674 540.076 51.0488 573.533C90.7765 606.625 112.664 619.812 141.402 597.619C156.236 584.312 170.724 565.851 186.088 546.295C198.802 530.115 211.913 513.4 226.784 497.545C236.647 486 247.405 474.946 257.767 464.257C279.555 441.646 300.206 420.33 308.182 399.227Z" fill="#A7CEFC"/>
<path d="M290.833 371.407C294.188 383.926 292.782 396.645 287.004 411.009L286.796 411.409C250.585 470.181 154.07 554.057 135.113 570.276L134.652 570.571C105.68 587.021 82.4771 573.628 49.8072 543.203C20.3515 514.197 -20.9116 466.98 -50.451 406.602C-75.8234 350.526 -74.5847 303.102 -46.9769 272.998C-16.2991 239.576 41.8272 231.699 112.5 251.339C179.84 267.27 234.705 302.628 263.565 330.417C278.367 345.03 287.274 358.125 290.833 371.407ZM281.863 408.946C292.806 381.457 286.746 361.191 259.521 334.296C231.2 307.007 177.274 272.301 110.934 256.575C43.3248 237.792 -14.0998 245.266 -42.7937 276.521C-68.8772 304.927 -69.8023 350.331 -45.315 404.279C-16.1058 463.929 24.7441 510.611 53.8513 539.324C85.0945 568.454 105.757 580.593 131.693 566.074C186.149 519.486 254.123 453.837 281.863 408.946Z" fill="#A7CEFC"/>
<path d="M267.111 380.085C270.702 393.487 269.151 406.332 262.481 417.537C236.264 462.235 170.896 518.972 128.583 541.878C118.605 546.444 107.728 546.649 96.2059 542.597C60.6905 530.095 18.4831 476.164 -16.6898 398.287C-33.6592 353.592 -29.9552 315.872 -6.26194 291.977C20.5864 264.914 68.6673 259.17 125.598 276.213C197.929 298.849 249.952 335.183 264.864 373.376C265.781 375.625 266.52 377.878 267.111 380.085ZM-16.9938 379.187C-15.5101 384.725 -13.6788 390.384 -11.458 396.154C23.0545 472.574 64.0891 525.486 98.2455 537.449C108.378 541.013 117.741 540.87 126.116 537.034C167.559 514.576 231.882 458.808 257.63 414.88C264.508 403.275 265.203 389.585 259.631 375.338C245.295 338.624 194.53 303.458 123.821 281.334C69.828 265.181 22.7114 270.495 -2.22515 295.626C-21.3113 314.889 -26.3798 344.158 -16.9938 379.187Z" fill="#A7CEFC"/>
<path d="M243.693 385.027C247.026 397.466 245.764 409.544 239.911 420.273C219.163 458.517 165.567 503.111 125.241 515.637L125.157 515.659C87.6452 525.925 40.7968 474.486 13.8444 393.373C3.55544 358.5 8.83382 329.175 28.8076 310.706C51.6974 289.521 90.2239 285.39 134.545 299.361C188.536 316.848 228.419 346.156 241.264 377.808C242.235 380.257 243.059 382.659 243.693 385.027ZM123.676 510.465C162.784 498.266 214.801 454.998 234.936 417.822C241.121 406.488 241.484 393.403 236.022 379.9C223.743 349.689 185.106 321.508 132.642 304.516C90.3849 291.196 53.8947 294.867 32.5937 314.594C14.2506 331.594 9.43329 358.946 19.1632 391.733C44.7661 468.648 89.7205 519.736 123.676 510.465Z" fill="#A7CEFC"/>
<path d="M221.34 389.08C224.254 399.954 223.372 410.598 218.627 420.256C202.109 454.141 158.992 486.638 124.431 491.297C91.1166 495.235 54.7083 451.362 41.5264 391.589C36.1339 365.252 42.1811 343.161 58.4937 329.329C77.1906 313.481 106.843 310.482 139.804 321.175C178.431 333.876 207.901 356.385 218.645 381.373C219.785 383.949 220.652 386.512 221.34 389.08ZM49.2781 399.532C63.3196 451.936 95.0644 489.317 123.842 485.907C156.103 481.563 198.037 449.856 213.579 418.039C218.687 407.553 218.647 395.651 213.466 383.535C203.308 359.894 175.044 338.525 137.89 326.289C106.898 316.23 79.2931 318.81 62.1333 333.342C47.431 345.797 42.0666 366.071 47.0055 390.379C47.7386 393.451 48.4718 396.523 49.2781 399.532Z" fill="#A7CEFC"/>
<path d="M199.88 392.596C202.224 401.343 201.708 409.996 198.33 418.04C186.59 445.915 154.008 468.536 125.693 468.468C97.6401 468.2 71.8358 434.689 66.9457 392.262C64.9089 373.412 70.7522 357.612 83.4103 347.769C97.7421 336.618 119.128 334.5 142.085 341.939C168.317 350.521 188.328 366.103 196.953 384.693C198.188 387.286 199.17 389.947 199.88 392.596ZM125.86 463.047C151.569 463.126 182.381 441.624 193.137 416.12C196.961 407.054 196.512 396.982 191.848 386.964C183.916 369.952 164.613 354.997 140.202 347.002C119.12 340.179 99.7187 341.98 86.9035 351.908C75.804 360.516 70.7178 374.608 72.5537 391.534C77.025 430.718 100.96 462.795 125.86 463.047Z" fill="#A7CEFC"/>
<path d="M179.056 395.809C180.68 401.868 180.612 408.165 178.463 414.245C171.438 434.534 148.908 449.172 128.284 446.914C107.733 444.594 90.7241 421.241 90.3864 394.796C90.2183 382.585 95.0754 372.338 103.981 365.952C113.797 358.935 127.62 357.468 141.856 361.91C161.411 368.067 175.164 381.284 179.056 395.809ZM173.177 412.651C179.241 395.157 164.404 374.705 140.038 367.042C127.57 363.158 115.595 364.302 107.297 370.268C99.8979 375.562 95.872 384.209 96.0083 394.623C96.3305 418.491 111.15 439.55 129.051 441.548C147.172 443.531 166.958 430.574 173.177 412.651Z" fill="#A7CEFC"/>
<path d="M158.708 399.283C159.59 402.573 159.652 405.997 158.758 409.376C155.696 420.948 143.56 428.543 131.66 426.27C119.906 424.044 111.224 411.619 112.333 398.635C112.863 392.386 115.859 387.111 120.831 383.843C126.065 380.377 133.028 379.5 139.903 381.485C149.621 384.343 156.568 391.298 158.708 399.283ZM118.645 406.577C120.591 413.84 126.081 419.723 132.91 421.032C141.865 422.719 151.037 416.993 153.317 408.21C155.651 399.457 148.834 389.801 138.159 386.727C132.842 385.184 127.821 385.755 123.927 388.347C120.41 390.665 118.278 394.462 117.885 399.04C117.722 401.621 118 404.17 118.645 406.577Z" fill="#A7CEFC"/>
</g>
</svg>
