<svg width="315" height="25" viewBox="0 0 315 25" fill="none" xmlns="http://www.w3.org/2000/svg">
<path d="M294.264 12.7507C293.836 12.7708 293.403 12.7845 292.984 12.8146C292.711 12.8334 292.595 12.7783 292.413 12.7495C292.352 12.7394 292.287 12.7194 292.231 12.7219C291.807 12.7419 291.383 12.7645 290.959 12.787C290.83 12.8359 290.747 12.9011 290.548 12.9249C290.354 12.9474 290.125 12.9474 289.908 12.9587C289.623 12.9725 289.337 12.9863 289.052 12.9988C288.909 13.0051 288.792 13.0289 288.745 13.074C288.736 13.0815 288.831 13.1003 288.883 13.1116C289.056 13.1491 289.225 13.1917 289.415 13.2206C289.597 13.2481 289.822 13.203 290.016 13.2381C290.453 13.317 290.458 13.3158 290.791 13.3008C291.076 13.287 291.362 13.2719 291.647 13.2619C291.703 13.2594 291.768 13.2782 291.829 13.2882C292.01 13.3158 292.127 13.3784 292.396 13.3546C292.599 13.3358 292.824 13.3321 293.036 13.3221C293.213 13.3584 293.377 13.3997 293.568 13.4286C293.745 13.4561 293.797 13.4774 293.702 13.5138C293.615 13.5476 293.494 13.5614 293.334 13.5639C293.191 13.5651 293.049 13.5764 292.906 13.5827C292.832 13.5864 292.763 13.5889 292.694 13.5927C292.421 13.6065 292.421 13.6065 291.924 13.5263C291.729 13.495 291.509 13.5388 291.323 13.5087C291.197 13.4887 291.089 13.4586 290.968 13.4373C290.916 13.4286 290.834 13.4273 290.769 13.4298C290.553 13.4386 290.336 13.4448 290.129 13.4611C289.982 13.4724 289.895 13.5075 289.913 13.5426C289.917 13.5564 290.021 13.5764 290.081 13.5777C290.22 13.5802 290.367 13.5626 290.501 13.5714C290.631 13.5802 290.765 13.6052 290.86 13.6328C291.055 13.6904 291.275 13.6391 291.461 13.6541C291.656 13.6704 291.816 13.7205 292.002 13.7506C292.049 13.7581 292.14 13.7456 292.214 13.7418C292.426 13.733 292.638 13.7255 292.85 13.7167C293.027 13.7531 293.217 13.7857 293.377 13.827C293.667 13.9022 293.979 13.931 294.355 13.8946C294.567 13.8746 294.775 13.8821 294.943 13.931C295.116 13.9811 295.315 13.9761 295.536 13.9661C295.739 13.9561 295.947 13.9285 296.154 13.9636C296.604 14.0413 296.609 14.045 297.141 14.0149C297.301 14.0062 297.422 14.0037 297.543 14.0325C297.655 14.0588 297.777 14.0813 297.893 14.1064C298.105 14.0976 298.322 14.0889 298.534 14.0788C298.806 14.0651 298.957 14.0826 299.022 14.1528C299.061 14.1954 299.079 14.2342 299.174 14.263C299.286 14.2981 299.407 14.2968 299.572 14.2868C299.727 14.2781 299.84 14.2643 299.905 14.2192C299.931 14.2004 299.983 14.1828 300.03 14.1678C300.069 14.1565 300.13 14.139 300.164 14.1415C300.229 14.1465 300.316 14.1603 300.337 14.1766C300.549 14.3282 300.549 14.3294 300.766 14.3733C301.004 14.4222 301.25 14.466 301.466 14.5211C301.661 14.57 301.856 14.5487 302.068 14.5487C302.228 14.5487 302.332 14.5813 302.319 14.6139C302.31 14.6327 302.249 14.6602 302.197 14.6627C301.773 14.6878 301.345 14.7091 300.917 14.7266C300.865 14.7291 300.8 14.7066 300.74 14.6953C300.619 14.6727 300.51 14.6376 300.381 14.6301C300.251 14.6226 300.099 14.6414 299.957 14.6477C299.814 14.6539 299.663 14.6702 299.533 14.6602C299.403 14.6502 299.299 14.6138 299.178 14.59C299.122 14.5788 299.044 14.5625 298.996 14.5662C298.681 14.5963 298.447 14.555 298.222 14.4998C298.175 14.4886 298.092 14.481 298.032 14.4835C297.53 14.5048 297.033 14.5299 296.531 14.5537C296.328 14.5637 296.163 14.5199 296.12 14.446C296.098 14.4046 296.055 14.3633 296.055 14.3219C296.055 14.2467 295.817 14.2054 295.644 14.2142C295.359 14.2267 295.069 14.2367 294.788 14.2555C294.558 14.2705 294.364 14.2555 294.208 14.2104C294.026 14.159 293.819 14.1691 293.611 14.1828C293.455 14.1929 293.412 14.2342 293.421 14.3382C293.429 14.4221 293.356 14.4485 293.075 14.4622C292.72 14.4798 292.361 14.4973 292.002 14.5111C291.946 14.5136 291.881 14.4923 291.824 14.481C291.703 14.4585 291.595 14.4221 291.465 14.4146C291.336 14.4059 291.184 14.4247 291.042 14.4322C290.899 14.4384 290.747 14.456 290.618 14.4472C290.488 14.4384 290.38 14.4009 290.263 14.377C290.207 14.3658 290.137 14.3495 290.081 14.352C289.796 14.362 289.51 14.377 289.225 14.3908C288.905 14.4059 288.905 14.4059 288.45 14.3282C288.243 14.2931 288.035 14.3207 287.832 14.3307C287.616 14.3407 287.412 14.3457 287.244 14.2956C287.131 14.263 287.006 14.243 286.872 14.2492C286.513 14.2643 286.158 14.2831 285.799 14.2981C285.738 14.3006 285.656 14.2944 285.609 14.2831C285.379 14.2305 285.154 14.1891 284.834 14.2154C284.557 14.238 284.259 14.2392 283.982 14.2605C283.831 14.2718 283.761 14.3119 283.792 14.3432C283.809 14.3595 283.9 14.3783 283.96 14.3783C284.099 14.3796 284.25 14.3608 284.38 14.3683C284.648 14.3833 284.782 14.4886 285.133 14.4597C285.34 14.4422 285.557 14.4359 285.773 14.4309C285.829 14.4297 285.89 14.4535 285.95 14.466C286.123 14.4998 286.275 14.5437 286.526 14.5211C286.733 14.5036 286.954 14.4986 287.166 14.4886C287.503 14.4723 287.503 14.4735 287.94 14.55C288.148 14.5863 288.355 14.5575 288.559 14.5487C288.71 14.5424 288.853 14.5299 288.974 14.5474C289.16 14.5738 289.294 14.6339 289.523 14.6301C289.74 14.6264 289.951 14.6088 290.168 14.6026C290.302 14.5988 290.427 14.6189 290.535 14.6527C290.648 14.6865 290.769 14.7016 290.916 14.694C291.128 14.684 291.344 14.6715 291.561 14.6652C291.621 14.664 291.69 14.6752 291.747 14.6853C291.868 14.7078 291.984 14.7341 292.101 14.7579C292.313 14.7504 292.53 14.7479 292.737 14.7329C292.897 14.7216 293.01 14.7266 293.139 14.7517C293.304 14.7855 293.438 14.8457 293.706 14.8168C293.84 14.8031 293.996 14.8068 294.13 14.7943C294.294 14.778 294.407 14.7842 294.524 14.8218C294.744 14.8933 295.021 14.8945 295.307 14.8669C295.618 14.8369 295.852 14.872 296.085 14.9271C296.332 14.9847 296.332 14.9835 296.522 15.1225C296.578 15.1626 296.738 15.1814 296.872 15.1739C297.097 15.1614 297.292 15.1677 297.457 15.2153C297.63 15.2666 297.837 15.2604 298.049 15.2466C298.33 15.2278 298.611 15.2115 298.841 15.2842C298.953 15.3193 299.074 15.328 299.226 15.3193C299.654 15.2967 300.087 15.2829 300.506 15.2554C300.761 15.2378 300.908 15.2779 301.081 15.3117C301.315 15.3581 301.57 15.3995 301.57 15.4984C301.57 15.5147 301.631 15.5335 301.683 15.546C301.795 15.5724 301.916 15.5949 302.033 15.62C302.206 15.6576 302.375 15.6889 302.613 15.6688C302.82 15.6525 303.041 15.6475 303.253 15.6363C303.465 15.625 303.66 15.6187 303.85 15.6663C304.07 15.7202 304.304 15.7716 304.555 15.8117C304.732 15.8405 304.966 15.7916 305.156 15.8305C305.273 15.8543 305.385 15.8818 305.511 15.9019C305.563 15.9107 305.645 15.9044 305.714 15.9019C305.857 15.8969 306.004 15.8931 306.142 15.8806C306.303 15.8668 306.424 15.8693 306.545 15.8981C306.657 15.9244 306.77 15.9608 306.899 15.9683C307.094 15.9796 307.31 15.9295 307.505 15.9871C307.604 16.0159 307.73 16.0435 307.86 16.0522C307.99 16.061 308.141 16.0422 308.279 16.0435C308.34 16.0435 308.413 16.0635 308.448 16.0798C308.47 16.0886 308.439 16.1124 308.409 16.1249C308.37 16.1399 308.314 16.16 308.258 16.1625C307.829 16.1851 307.401 16.2039 306.973 16.2252C306.718 16.2377 306.718 16.2377 306.203 16.1587C306.082 16.1399 305.948 16.1437 305.796 16.1525C305.593 16.1637 305.385 16.1851 305.174 16.1625C304.897 16.0773 304.555 16.0698 304.192 16.1024C304.04 16.1161 303.902 16.1161 303.789 16.0923C303.551 16.0447 303.3 16.0009 303.089 15.9445C302.924 15.9006 302.846 15.8969 302.777 15.957C302.755 15.9758 302.734 15.9959 302.738 16.0134C302.764 16.076 302.812 16.1374 302.838 16.2001C302.846 16.2176 302.812 16.2377 302.79 16.2565C302.721 16.3091 302.63 16.3053 302.479 16.2615C302.327 16.2176 302.146 16.1888 301.903 16.2089C301.696 16.2264 301.471 16.2239 301.263 16.2427C300.943 16.2703 300.718 16.2302 300.489 16.1763C300.441 16.165 300.359 16.1587 300.298 16.1613C299.654 16.1901 299.014 16.2226 298.369 16.2515C298.231 16.2577 298.105 16.2389 297.997 16.2051C297.885 16.1713 297.759 16.1537 297.621 16.16C297.05 16.1863 296.479 16.2101 295.908 16.2427C295.674 16.2565 295.488 16.2402 295.328 16.1963C295.207 16.1637 295.095 16.1537 294.943 16.1575C294.779 16.1612 294.662 16.1738 294.58 16.2101C294.502 16.2452 294.558 16.2665 294.731 16.2941C294.917 16.3241 295.09 16.363 295.268 16.3981C295.41 16.393 295.553 16.383 295.692 16.3843C295.752 16.3843 295.808 16.4068 295.869 16.4194C296.042 16.4557 296.202 16.492 296.449 16.472C296.656 16.4544 296.877 16.4507 297.089 16.4394C297.383 16.4256 297.383 16.4256 297.859 16.5046C297.98 16.5246 298.11 16.5233 298.265 16.5121C298.399 16.5033 298.538 16.5208 298.633 16.5584C298.672 16.5735 298.659 16.5985 298.577 16.6812C298.577 16.7426 298.668 16.7151 298.698 16.675C298.746 16.6173 298.655 16.5985 298.482 16.6299C298.361 16.6524 298.3 16.685 298.33 16.7113C298.348 16.7251 298.43 16.7426 298.577 16.6812C298.958 16.6061 299.247 16.5973 299.524 16.5772C299.689 16.5659 299.792 16.571 299.922 16.6035C300.078 16.6424 300.234 16.6837 300.489 16.6637C300.766 16.6411 301.06 16.6386 301.341 16.6198C301.6 16.6023 301.735 16.6574 301.899 16.69C302.098 16.7288 302.319 16.685 302.5 16.7075C302.691 16.7301 302.825 16.7852 303.045 16.7952C303.365 16.7614 303.569 16.8241 303.811 16.8654C304.001 16.8967 304.226 16.8692 304.429 16.8554C304.659 16.8403 304.849 16.8541 305.009 16.8992C305.191 16.9506 305.394 16.9393 305.602 16.9281C306.086 16.903 306.103 16.8992 306.385 16.9681C306.588 17.0183 306.783 16.9957 306.986 16.9895C307.163 17.0233 307.336 17.0596 307.522 17.0897C307.57 17.0972 307.661 17.0847 307.734 17.0809C307.946 17.0709 308.163 17.0609 308.374 17.0508C308.517 17.0446 308.669 17.0258 308.798 17.0333C308.928 17.0421 309.036 17.0784 309.153 17.1022C309.27 17.126 309.391 17.1498 309.504 17.1749C309.677 17.2125 309.841 17.2438 310.083 17.225C310.291 17.2087 310.507 17.2037 310.723 17.1924C310.996 17.1786 310.987 17.1824 311.493 17.2576C311.766 17.2989 312.047 17.2488 312.324 17.2438C312.462 17.2413 312.596 17.2551 312.691 17.2914C312.73 17.3065 312.717 17.3315 312.73 17.3528C312.017 17.3866 311.299 17.4155 310.593 17.4568C310.321 17.4731 310.178 17.428 310.031 17.3904C309.789 17.3302 309.469 17.418 309.24 17.3403C309.101 17.2939 308.902 17.2676 308.664 17.2902C308.526 17.3027 308.379 17.3014 308.236 17.3127C307.873 17.3403 307.54 17.3415 307.25 17.2551C307.15 17.225 307.008 17.2087 306.904 17.1799C306.783 17.1486 306.666 17.131 306.523 17.1373C305.879 17.1674 305.238 17.1974 304.598 17.23C304.542 17.2325 304.486 17.2513 304.438 17.2651C304.317 17.3002 304.356 17.3277 304.551 17.3503C304.615 17.3578 304.667 17.3741 304.728 17.3866C304.845 17.4104 304.953 17.448 305.083 17.4568C305.212 17.4656 305.364 17.448 305.507 17.4418C305.649 17.4355 305.801 17.4167 305.931 17.4242C306.06 17.433 306.168 17.4693 306.289 17.4919C306.346 17.5032 306.415 17.522 306.471 17.5207C306.757 17.5132 307.038 17.4994 307.323 17.4881C307.501 17.522 307.652 17.5708 307.864 17.5821C307.998 17.5896 308.141 17.5758 308.279 17.5783C308.34 17.5796 308.418 17.5984 308.448 17.6147C308.465 17.6247 308.409 17.6498 308.366 17.6623C308.201 17.7099 307.977 17.7011 307.773 17.7162C307.553 17.7324 307.354 17.7274 307.185 17.6786C307.072 17.646 306.947 17.6285 306.809 17.6347C306.449 17.651 306.095 17.6698 305.736 17.6836C305.675 17.6861 305.602 17.6748 305.545 17.666C305.091 17.5896 305.091 17.5871 304.771 17.6034C304.3 17.6272 304.3 17.6272 303.984 17.5608C303.923 17.5483 303.858 17.5245 303.807 17.5257C303.305 17.5458 302.807 17.5658 302.31 17.5946C302.146 17.6034 302.033 17.6034 301.912 17.5708C301.808 17.5433 301.687 17.5119 301.557 17.5044C301.423 17.4969 301.276 17.5157 301.133 17.522C300.991 17.5282 300.839 17.5445 300.714 17.5345C300.584 17.5245 300.471 17.4894 300.359 17.4643C300.242 17.438 300.117 17.4393 299.957 17.4493C299.464 17.4781 299.459 17.4743 298.97 17.3967C298.914 17.3879 298.841 17.3779 298.78 17.3804C298.421 17.3954 298.066 17.4142 297.707 17.4292C297.569 17.4355 297.435 17.4192 297.34 17.3829C297.301 17.3678 297.314 17.3428 297.288 17.2939C297.258 17.2826 297.292 17.3027 297.301 17.3215C297.366 17.319 297.444 17.3215 297.491 17.3115C297.612 17.2876 297.673 17.2563 297.642 17.23C297.625 17.2162 297.543 17.1987 297.491 17.1987C297.396 17.1987 297.314 17.2263 297.288 17.2939C297.015 17.3353 296.725 17.344 296.444 17.3641C296.28 17.3766 296.176 17.3704 296.046 17.3378C295.891 17.2977 295.731 17.2588 295.475 17.2789C295.198 17.3014 294.904 17.3052 294.619 17.3227C294.29 17.3428 294.147 17.23 293.871 17.2325C293.585 17.235 293.3 17.2563 293.014 17.2714C292.763 17.2839 292.763 17.2839 292.244 17.2024C292.054 17.1724 291.829 17.2162 291.643 17.1849C291.517 17.1649 291.409 17.1348 291.288 17.1135C291.236 17.1047 291.154 17.1047 291.089 17.1072C290.73 17.1223 290.367 17.1323 290.021 17.1599C289.627 17.1924 289.329 17.1573 289.047 17.0834C288.693 17.0972 288.334 17.1047 287.983 17.1285C287.728 17.1461 287.581 17.1047 287.408 17.0709C287.347 17.0596 287.296 17.0408 287.231 17.0358C287.166 17.0308 287.088 17.0408 287.019 17.0446C286.733 17.0584 286.439 17.0646 286.162 17.0872C285.82 17.116 285.691 17.0133 285.427 17.0007C285.249 17.0621 285.154 17.1461 284.804 17.1523C284.518 17.1573 284.233 17.1774 283.947 17.1912C283.805 17.1974 283.662 17.205 283.519 17.2112C283.29 17.2225 283.182 17.2714 283.229 17.3465C283.255 17.3879 283.277 17.4292 283.299 17.4706C283.342 17.5445 283.234 17.6072 283.052 17.6159C282.55 17.6397 282.053 17.6648 281.551 17.6861C281.417 17.6924 281.287 17.671 281.179 17.6372C281.067 17.6034 280.941 17.5884 280.803 17.5946C280.301 17.6184 279.803 17.6435 279.302 17.6648C279.245 17.6673 279.172 17.6548 279.116 17.6447C278.995 17.6222 278.878 17.5959 278.761 17.5721C278.476 17.5834 278.194 17.5909 277.913 17.6059C277.459 17.6284 277.459 17.6297 277.126 17.5608C277.065 17.5483 277.005 17.5245 276.949 17.5257C276.732 17.5307 276.52 17.5433 276.304 17.5545C275.668 17.5871 275.668 17.5871 275.482 17.5495C275.313 17.5144 275.162 17.4718 274.907 17.4919C274.63 17.5144 274.336 17.522 274.05 17.5345C273.838 17.5433 273.626 17.5533 273.414 17.5558C273.358 17.557 273.298 17.5332 273.237 17.5207C273.064 17.4819 272.895 17.4505 272.657 17.4718C272.519 17.4844 272.372 17.4869 272.229 17.4931C271.857 17.5107 271.857 17.5107 271.247 17.4355C271.187 17.428 271.113 17.4192 271.053 17.423C270.551 17.4455 270.053 17.4706 269.552 17.4919C269.491 17.4944 269.418 17.4869 269.357 17.4806C268.674 17.4079 268.674 17.4079 267.947 17.443C267.67 17.4555 267.661 17.4606 267.372 17.3942C267.242 17.3653 267.134 17.3516 266.982 17.3603C266.411 17.3904 265.836 17.4104 265.269 17.4455C265.014 17.4606 264.867 17.423 264.694 17.3891C264.633 17.3779 264.569 17.3528 264.517 17.3541C263.946 17.3779 263.375 17.4067 262.804 17.4305C262.752 17.433 262.687 17.4079 262.626 17.3967C262.509 17.3741 262.397 17.3403 262.267 17.3328C262.133 17.3252 261.986 17.344 261.839 17.3503C261.48 17.3666 261.48 17.3653 261.065 17.2914C261.008 17.2814 260.935 17.2676 260.879 17.2701C260.308 17.2952 259.732 17.3165 259.166 17.3528C258.841 17.3729 258.621 17.3365 258.391 17.2839C258.344 17.2726 258.262 17.2676 258.201 17.2701C257.557 17.2989 256.916 17.3315 256.272 17.3603C256.138 17.3666 256.008 17.3453 255.9 17.3127C255.727 17.2613 255.524 17.2676 255.307 17.2789C254.81 17.3052 254.805 17.3039 254.511 17.2438C254.451 17.2313 254.399 17.215 254.334 17.2087C254.273 17.2025 254.196 17.2062 254.131 17.2087C253.845 17.2212 253.56 17.235 253.274 17.2488C252.989 17.2626 252.699 17.2701 252.418 17.2914C252.072 17.3177 251.907 17.2363 251.665 17.1987C251.31 17.215 250.947 17.225 250.597 17.2513C250.328 17.2714 250.203 17.2162 250.026 17.1874C249.965 17.1774 249.9 17.1561 249.844 17.1586C249.199 17.1862 248.555 17.2162 247.915 17.2501C247.759 17.2576 247.655 17.2476 247.525 17.2175C247.236 17.1498 247.223 17.1523 246.738 17.1774C246.526 17.1887 246.323 17.1987 246.141 17.1473C245.981 17.101 245.787 17.0897 245.557 17.1047C245.276 17.1235 244.986 17.1335 244.701 17.1461C244.415 17.1599 244.13 17.1786 243.844 17.1849C243.615 17.1912 243.477 17.1323 243.295 17.1022C243.239 17.0935 243.161 17.0922 243.096 17.0947C242.81 17.106 242.516 17.1147 242.24 17.136C241.902 17.1623 241.716 17.0934 241.478 17.0534C241.426 17.0446 241.34 17.0496 241.275 17.0534C240.773 17.0759 240.276 17.101 239.774 17.1248C239.596 17.0909 239.415 17.0584 239.237 17.0245C238.952 17.0371 238.666 17.0508 238.381 17.0634C238.165 17.0734 237.944 17.0772 237.741 17.0959C237.477 17.121 237.347 17.0621 237.17 17.0333C237.109 17.0233 237.044 17.002 236.988 17.0045C236.629 17.0183 236.27 17.0333 235.915 17.0546C235.578 17.0759 235.444 16.9631 235.167 16.9644C234.882 16.9656 234.587 16.9819 234.311 17.0045C233.99 17.0308 233.765 16.9907 233.536 16.9368C233.489 16.9255 233.406 16.9193 233.346 16.9218C232.987 16.9368 232.632 16.9556 232.273 16.9707C232.213 16.9732 232.139 16.9669 232.079 16.9594C231.395 16.8855 231.395 16.8842 231.097 16.8992C230.885 16.9093 230.668 16.9218 230.452 16.9281C230.392 16.9306 230.318 16.9193 230.262 16.9093C229.812 16.8328 229.812 16.8316 229.487 16.8466C229.202 16.8604 228.916 16.8742 228.631 16.888C228.454 16.8541 228.272 16.8216 228.095 16.7877C227.74 16.804 227.376 16.8165 227.026 16.8391C226.862 16.8491 226.754 16.8454 226.628 16.814C226.472 16.7764 226.317 16.7326 226.057 16.7539C225.78 16.7764 225.486 16.779 225.205 16.7977C224.868 16.8203 224.729 16.7063 224.457 16.7075C224.171 16.7088 223.877 16.7251 223.6 16.7476C223.28 16.7739 223.055 16.7339 222.826 16.68C222.778 16.6687 222.696 16.6624 222.636 16.6649C221.848 16.7013 221.065 16.7376 220.278 16.7764C219.794 16.8002 219.794 16.8015 218.872 16.7326C218.807 16.7276 218.738 16.7226 218.673 16.7251C218.388 16.7364 218.094 16.7451 217.817 16.7664C217.479 16.7927 217.293 16.7251 217.055 16.6837C217.004 16.675 216.921 16.68 216.852 16.6825C216.636 16.6912 216.424 16.7025 216.208 16.7126C215.922 16.7263 215.637 16.7401 215.351 16.7539C215.174 16.7213 214.992 16.6875 214.815 16.6549C214.46 16.6712 214.097 16.68 213.746 16.7063C213.478 16.7263 213.353 16.6737 213.175 16.6436C213.115 16.6336 213.05 16.6123 212.994 16.6136C212.349 16.6411 211.705 16.6699 211.064 16.705C210.801 16.7201 210.679 16.6637 210.502 16.6349C210.442 16.6261 210.372 16.6098 210.316 16.6123C209.888 16.6299 209.46 16.6512 209.031 16.6725C208.789 16.685 208.789 16.685 208.261 16.6073C208.201 16.5985 208.132 16.5898 208.071 16.5923C206.713 16.6549 205.359 16.7213 204.001 16.784C203.862 16.7902 203.737 16.7714 203.629 16.7376C203.516 16.7038 203.391 16.6862 203.252 16.6925C202.681 16.7188 202.106 16.7426 201.539 16.7752C201.306 16.789 201.12 16.7727 200.96 16.7288C200.839 16.6963 200.726 16.6837 200.575 16.6912C200.289 16.7063 200.004 16.7188 199.718 16.7326C199.433 16.7464 199.147 16.7602 198.862 16.7739C198.576 16.7877 198.286 16.7952 198.005 16.8165C197.659 16.8429 197.491 16.7652 197.253 16.7263C196.824 16.7451 196.396 16.7639 195.972 16.784C195.401 16.8103 194.83 16.8391 194.259 16.8642C194.207 16.8667 194.142 16.8441 194.082 16.8328C193.905 16.8015 193.775 16.7577 193.511 16.7714C192.23 16.8378 190.941 16.8942 189.657 16.9594C189.389 16.9732 189.272 16.9193 189.09 16.8905C189.03 16.8817 188.96 16.8642 188.904 16.8667C188.19 16.898 187.477 16.9331 186.763 16.9669C186.473 16.9807 186.473 16.9807 185.989 16.903C185.932 16.8942 185.859 16.8829 185.798 16.8854C184.868 16.928 183.943 16.9732 183.013 17.017C182.874 17.0233 182.749 17.0057 182.636 16.9719C182.528 16.9381 182.398 16.9193 182.264 16.9256C181.408 16.9656 180.547 17.0045 179.695 17.0483C179.465 17.0609 179.275 17.0496 179.111 17.0045C178.994 16.9719 178.877 16.9581 178.73 16.9656C177.445 17.027 176.161 17.0859 174.876 17.1511C174.629 17.1636 174.456 17.1398 174.301 17.0985C174.175 17.0659 174.067 17.0596 173.911 17.0646C173.747 17.0709 173.648 17.0847 173.557 17.1223C173.44 17.1711 173.366 17.2325 173.089 17.2363C172.804 17.24 172.514 17.2551 172.233 17.2764C171.965 17.2977 171.839 17.2413 171.671 17.2075C171.545 17.1837 171.428 17.1799 171.268 17.1912C171.121 17.2012 171.03 17.2225 170.944 17.2626C170.754 17.3478 170.736 17.3478 170.503 17.2939C170.377 17.2651 170.265 17.2425 170.126 17.2476C169.555 17.2726 168.984 17.3002 168.413 17.329C168.085 17.3453 168.08 17.3478 167.834 17.2851C167.713 17.2538 167.596 17.2388 167.453 17.2463C165.883 17.3215 164.313 17.3942 162.743 17.4731C162.5 17.4856 162.336 17.4593 162.163 17.4217C162.107 17.4092 162.05 17.3916 161.986 17.3866C161.921 17.3816 161.847 17.3866 161.778 17.3891C160.636 17.443 159.49 17.4944 158.352 17.5545C158.092 17.5683 157.954 17.5282 157.777 17.4956C157.716 17.4844 157.664 17.4668 157.599 17.4618C157.534 17.4581 157.457 17.4668 157.387 17.4706C156.245 17.5245 155.099 17.5758 153.961 17.636C153.689 17.6498 153.572 17.5971 153.395 17.5696C153.334 17.5595 153.269 17.5407 153.213 17.5432C152.854 17.557 152.499 17.5758 152.14 17.5921C151.284 17.6335 150.427 17.6723 149.571 17.7149C149.242 17.7312 149.099 17.6197 148.822 17.6247C148.463 17.631 148.109 17.656 147.75 17.6736C147.464 17.6873 147.179 17.6999 146.893 17.7149C146.612 17.7287 146.612 17.7287 145.911 17.656C145.851 17.6498 145.777 17.641 145.717 17.6435C144.717 17.6898 143.714 17.7362 142.719 17.7863C142.49 17.7976 142.299 17.7913 142.135 17.745C142.018 17.7124 141.897 17.6961 141.754 17.7036C140.253 17.775 138.757 17.8465 137.256 17.9166C137.199 17.9191 137.126 17.9066 137.07 17.8966C136.949 17.874 136.832 17.8477 136.715 17.8239C136.628 17.8527 136.516 17.879 136.46 17.9116C136.382 17.9555 136.278 17.968 136.114 17.9755C135.949 17.983 135.846 17.9805 135.716 17.948C135.56 17.9079 135.4 17.8765 135.145 17.8891C133.575 17.968 132.004 18.0394 130.434 18.1171C130.175 18.1296 130.054 18.0745 129.872 18.0457C129.811 18.0369 129.742 18.0231 129.686 18.0256C129.041 18.0545 128.401 18.0858 127.757 18.1159C125.97 18.2011 124.184 18.2825 122.401 18.3727C122.077 18.389 121.856 18.3577 121.627 18.3038C121.58 18.2925 121.497 18.2863 121.437 18.2888C118.937 18.4065 116.436 18.5256 113.94 18.6446C113.806 18.6509 113.677 18.6308 113.568 18.5982C113.456 18.5644 113.331 18.5481 113.192 18.5544C112.05 18.6083 110.908 18.6621 109.766 18.7173C109.481 18.7311 109.476 18.7323 109.182 18.6722C109.122 18.6596 109.057 18.6358 109.009 18.6383C108.91 18.6446 108.815 18.6759 108.745 18.7185C108.676 18.7636 108.568 18.7762 108.408 18.7849C108.244 18.7937 108.135 18.7899 108.01 18.7599C107.85 18.7223 107.703 18.686 107.443 18.6985C104.16 18.8589 100.877 19.013 97.5937 19.1721C97.3299 19.1846 97.2087 19.132 97.027 19.1032C96.9665 19.0944 96.906 19.0819 96.8411 19.0794C96.7719 19.0769 96.6983 19.0844 96.6291 19.0881C91.2739 19.3425 85.9188 19.5981 80.5637 19.8524C80.2436 19.8675 80.2479 19.8675 79.8975 19.9828C79.8542 19.9965 79.798 20.0153 79.7374 20.0178C78.098 20.098 76.4543 20.1757 74.8105 20.2534C74.0968 20.2872 73.3831 20.3223 72.6693 20.3549C72.4141 20.3662 72.4141 20.3662 71.8042 20.5015C71.7523 20.5128 71.6917 20.5278 71.6311 20.5303C68.7762 20.6669 65.9212 20.8034 63.062 20.9375C62.837 20.9475 62.6554 20.9701 62.5516 21.0302C62.478 21.0728 62.3829 21.0979 62.2401 21.1054C60.2417 21.2006 58.2433 21.2971 56.2405 21.3898C56.0026 21.4011 55.8598 21.4362 55.743 21.4888C55.704 21.5064 55.6694 21.5264 55.6132 21.5389C55.5613 21.5502 55.4834 21.554 55.4186 21.5577C53.7056 21.6392 51.9927 21.7231 50.2754 21.8008C50.0202 21.8121 49.9163 21.8584 49.7909 21.9073C49.7476 21.9236 49.7173 21.9461 49.6611 21.9574C49.6048 21.9674 49.5227 21.9674 49.4535 21.9699C48.026 22.0376 46.5986 22.1065 45.1711 22.1742C44.8942 22.1679 44.8337 22.2406 44.6996 22.2844C44.652 22.2995 44.6174 22.3195 44.5612 22.3295C44.5007 22.3396 44.4227 22.3383 44.3492 22.3408C43.2072 22.3947 42.0652 22.4523 40.9189 22.5024C40.6551 22.5137 40.6031 22.5776 40.4604 22.6215C40.4128 22.6353 40.3653 22.6566 40.3091 22.6603C39.5953 22.6967 38.8816 22.7305 38.1679 22.7631C37.93 22.7743 37.93 22.7731 37.5104 22.8971C37.4628 22.9109 37.4065 22.9259 37.3459 22.9297C36.2775 22.9823 35.2048 23.0324 34.132 23.0838C33.9936 23.0901 33.8984 23.1202 33.8292 23.1628C33.76 23.2054 33.6605 23.2329 33.5221 23.2392C32.6656 23.2805 31.8091 23.3231 30.9526 23.3607C30.7147 23.3707 30.559 23.4021 30.4552 23.4584C30.3773 23.501 30.2822 23.5223 30.1308 23.5299C29.2743 23.57 28.4178 23.6138 27.557 23.6489C27.3061 23.6589 27.1763 23.7015 27.0725 23.7541C26.9903 23.7967 26.8951 23.8118 26.7351 23.8193C25.1649 23.892 23.5904 23.9646 22.0245 24.0448C21.7606 24.0586 21.6265 24.0148 21.4535 23.9834C21.2069 23.9396 20.9777 23.892 20.9777 23.7942C20.9777 23.7792 20.9042 23.7617 20.8522 23.7491C20.4673 23.6552 20.4673 23.6552 20.4067 23.5549C20.3721 23.4935 20.3332 23.4309 20.3029 23.3682C20.2466 23.2655 20.1082 23.2392 19.7102 23.258C19.5675 23.2642 19.4247 23.273 19.282 23.278C19.07 23.2868 18.91 23.2454 18.8711 23.1703C18.8494 23.1289 18.8235 23.0876 18.8019 23.0462C19.0182 23.0362 19.0138 23.035 19.3944 22.8833C19.5545 22.8194 19.5546 22.8194 19.2474 22.7555C19.1307 22.7317 19.0182 22.7054 18.8927 22.6829C18.8365 22.6728 18.763 22.6666 18.7024 22.6691C18.3434 22.6841 17.9887 22.7017 17.634 22.7192C17.063 22.7468 17.0629 22.7468 16.4833 22.619C16.4357 22.6089 16.3622 22.5902 16.3708 22.5801C16.4184 22.5338 16.5352 22.5137 16.6823 22.5087C16.8985 22.5012 17.1105 22.4887 17.3224 22.4786C17.4652 22.4724 17.6079 22.4649 17.7507 22.4586C17.8848 22.411 18.0233 22.3646 18.1487 22.3158C18.3477 22.2406 18.3476 22.2381 18.0751 22.1854C17.9021 22.1504 17.7161 22.119 17.5387 22.0865C17.3268 22.0965 17.1105 22.1078 16.8985 22.1165C16.6303 22.1278 16.5222 22.104 16.453 22.0226C16.3924 21.9511 16.466 21.8897 16.6736 21.8747C16.8856 21.8597 17.0846 21.8497 17.1928 21.7858C17.2966 21.7244 17.4782 21.7005 17.7032 21.6955C17.8459 21.6918 17.9886 21.683 18.1314 21.6755C18.3174 21.6655 18.4169 21.6016 18.378 21.5302C18.3564 21.4838 18.3131 21.445 18.1444 21.4349C17.396 21.3911 17.3873 21.3923 17.0153 21.3071C16.9807 21.2996 16.9548 21.2771 16.9678 21.2658C16.9894 21.247 17.037 21.2194 17.0889 21.2157C17.5864 21.1881 18.0838 21.163 18.5813 21.1442C18.7457 21.138 18.8668 21.1292 18.923 21.0828C19.0009 21.0189 18.9663 20.9601 18.8149 20.9162C18.7673 20.9024 18.6894 20.8849 18.6375 20.8861C18.0665 20.9087 17.4998 20.9375 16.9288 20.9601C16.8769 20.9626 16.7818 20.9413 16.7602 20.925C16.7169 20.8949 16.7818 20.8548 16.9332 20.841C17.1322 20.8222 17.3355 20.821 17.4696 20.7583C17.6556 20.6694 17.8848 20.5879 18.0924 20.5027C18.127 20.4877 18.1833 20.4589 18.1704 20.4564C18.0622 20.4288 17.9368 20.4075 17.8243 20.3812C17.634 20.3373 17.6339 20.2759 17.6772 20.2171C17.7118 20.1694 17.8416 20.1507 18.0016 20.1507C18.0708 20.1507 18.1573 20.1507 18.2136 20.1394C18.3606 20.1118 18.4082 20.0767 18.3347 20.0504C18.2914 20.0354 18.2136 20.0141 18.1617 20.0166C17.236 20.0579 16.3059 20.098 15.3846 20.1494C15.112 20.1644 14.9867 20.1168 14.8223 20.083C14.6969 20.0567 14.58 20.0466 14.4243 20.0654C14.2772 20.083 14.1345 20.073 14.0437 20.0316C13.9701 19.9978 14.0999 19.969 14.4503 19.9364C14.5151 19.9301 14.5886 19.9264 14.6362 19.9138C15.138 19.7785 15.138 19.7773 15.484 19.7597C15.8214 19.7434 15.8215 19.7422 15.9989 19.6695C16.0811 19.6357 16.1718 19.6019 16.2497 19.5668C16.28 19.553 16.3319 19.5279 16.3146 19.5204C16.2195 19.4816 16.0897 19.4728 15.9383 19.4816C15.6009 19.5029 15.2029 19.4853 15.0256 19.6044C14.9564 19.6495 14.8482 19.662 14.6925 19.6695C13.1266 19.7422 11.5607 19.8199 9.99047 19.89C9.73526 19.9013 9.61853 19.9477 9.51904 19.999C9.43253 20.0416 9.33734 20.0542 9.17297 20.0617C9.00859 20.0692 8.87876 20.073 8.7836 20.0316C8.72736 20.0066 8.77496 19.9715 8.90473 19.9364C9.09073 19.8863 9.05611 19.8236 8.99555 19.7647C8.95229 19.7259 8.8182 19.6983 8.67545 19.7008C8.4635 19.7059 8.26025 19.7196 8.08289 19.6695C7.97908 19.6407 7.84928 19.6206 7.73249 19.5956C7.50756 19.5442 7.28261 19.4916 6.96684 19.5254C6.75056 19.5129 6.59916 19.4678 6.42613 19.4327C6.13631 19.3751 6.11036 19.3663 6.31799 19.3049C6.55158 19.236 6.36986 19.1458 6.49963 19.0781C6.63806 19.0054 6.82845 18.9416 6.99715 18.8739C7.04041 18.8564 7.07935 18.8401 7.12261 18.8225C7.02312 18.7975 6.9323 18.7661 6.8155 18.7486C6.66411 18.726 6.58624 18.6985 6.59489 18.6208C6.56461 18.6095 6.5775 18.6383 6.61211 18.6459C6.65104 18.6534 6.74627 18.6471 6.79386 18.6383C6.91497 18.6145 6.97547 18.5832 6.94519 18.5569C6.92789 18.5431 6.84576 18.5256 6.79386 18.5256C6.69869 18.5256 6.61652 18.5531 6.59056 18.6208C6.10609 18.6722 5.60423 18.6972 5.10246 18.7173C5.05055 18.7198 4.9857 18.6947 4.92514 18.6822C4.72616 18.6396 4.72614 18.6408 4.14217 18.6283C4.08161 18.6271 3.99947 18.6095 3.96919 18.592C3.84374 18.5156 3.8481 18.4316 3.78754 18.3502C3.90001 18.2975 4.01239 18.2462 4.12918 18.1948C4.36277 18.0908 4.66563 17.9993 4.84731 17.8853C4.80838 17.8239 4.75646 17.7625 4.94679 17.7124C5.4875 17.6498 5.48321 17.6498 5.63028 17.5896C6.04987 17.4192 6.46511 17.2476 6.902 17.0797C7.01879 17.0358 7.01881 17.012 6.81117 16.9932C6.74629 16.9882 6.67699 16.9869 6.60778 16.9895C6.39149 16.9982 6.17521 17.0208 5.96326 17.0158C5.7513 17.012 5.59558 16.9569 5.42255 16.923C5.2452 16.888 5.06785 16.8516 4.8905 16.8153C4.6872 16.819 4.48393 16.8541 4.28062 16.7977C4.1249 16.7539 3.93026 16.7226 3.7529 16.6862C3.887 16.591 4.13793 16.5183 4.33258 16.4344C4.50993 16.358 4.51416 16.3592 4.98998 16.3003C5.21492 16.2728 5.29278 16.1312 5.10246 16.0898C4.8732 16.0397 4.63101 15.9933 4.39742 15.9457C4.19412 15.9495 3.98653 15.9833 3.79187 15.927C3.64048 15.8843 3.46741 15.8555 3.21653 15.8718C2.79261 15.8994 2.36006 15.9132 1.93182 15.9357C1.78475 15.9432 1.62465 15.9382 1.55977 15.8956C1.51651 15.8656 1.64196 15.8242 1.78471 15.8154C2.00099 15.8029 2.19562 15.7879 2.30377 15.7252C2.40758 15.6626 2.59789 15.6438 2.82282 15.635C2.88338 15.6325 2.95264 15.6175 2.98292 15.6024C3.13865 15.5298 3.31169 15.4671 3.64476 15.4696C3.78318 15.4446 3.85667 15.4132 3.81342 15.3832C3.78746 15.3669 3.69667 15.3456 3.64476 15.3481C3.28573 15.3606 2.92672 15.3731 2.57634 15.3957C2.41196 15.4057 2.28645 15.4082 2.18263 15.3706C2.1091 15.3456 2.14803 15.3117 2.28645 15.2754C2.40756 15.2441 2.44221 15.2077 2.43356 15.1651C2.41193 15.0662 2.28213 15.0373 1.86687 15.0436C1.5684 15.0486 1.49486 15.0323 1.42997 14.9471C1.41267 14.9271 1.36949 14.8995 1.39977 14.8857C1.58577 14.8005 1.7069 14.6953 2.05728 14.6552C2.1957 14.6402 2.34271 14.6402 2.42923 14.6076C2.51574 14.575 2.59364 14.5374 2.68448 14.5061C2.79695 14.4685 2.87473 14.4334 2.82282 14.4096C2.73631 14.367 2.59794 14.3633 2.43789 14.3783C2.29947 14.3908 2.1524 14.3921 2.00965 14.3996C1.75444 14.4134 1.54685 14.3808 1.51657 14.3257C1.43438 14.1803 1.34785 14.0362 1.27431 13.8909C1.26566 13.8734 1.28723 13.8508 1.32183 13.8358C1.44295 13.7831 1.57277 13.733 1.69822 13.6817C1.84529 13.6228 2.07891 13.634 2.27789 13.6228C2.55906 13.6065 2.55896 13.6077 2.9353 13.4874C3.08237 13.4398 3.33759 13.4586 3.48899 13.416C3.53657 13.4022 3.61011 13.3797 3.59713 13.3672C3.57983 13.3509 3.49336 13.3383 3.42848 13.3308C3.36792 13.3233 3.2944 13.3196 3.22952 13.3233C2.44225 13.3596 1.65932 13.3985 0.872053 13.4336C0.737958 13.4398 0.590881 13.4123 0.543299 13.3734C0.495717 13.3371 0.508651 13.2932 0.5 13.2519C0.625444 13.2005 0.768136 13.1529 0.876277 13.0978C0.958465 13.0552 1.05365 13.0364 1.21802 13.0339C1.4343 13.0301 1.64628 13.0151 1.88852 13.0038C2.33839 12.8209 2.77958 12.6292 3.26405 12.4462C3.4587 12.3723 3.4112 12.2971 3.45013 12.2182C3.48906 12.1455 3.77886 12.1568 3.97352 12.1355C4.12924 12.118 4.18108 12.0779 4.12052 12.0503C4.08592 12.034 4.0081 12.0152 3.94754 12.0152C3.80479 12.0152 3.66205 12.0265 3.5193 12.0328C3.37655 12.039 3.21219 12.0353 3.0954 12.0566C2.98293 12.0766 2.90935 12.1192 2.83581 12.1556C2.75363 12.1956 2.64556 12.2094 2.48119 12.2119C2.26923 12.2144 2.05728 12.2257 1.84533 12.2345C1.61174 12.1856 1.36945 12.138 1.14452 12.0866C1.10126 12.0766 1.09256 12.0478 1.09689 12.029C1.10554 11.9802 1.04067 11.9501 0.897927 11.9263C0.776808 11.9062 0.67731 11.8774 0.564843 11.8523C0.651356 11.8185 0.746554 11.7859 0.815765 11.7496C0.967163 11.6732 1.15751 11.618 1.48626 11.6206C1.61603 11.5717 1.71982 11.5115 1.88852 11.4777C2.04857 11.4451 2.3211 11.4777 2.44222 11.4038C2.50278 11.3674 2.59367 11.3261 2.71046 11.3111C2.89646 11.2873 3.13869 11.2998 3.24684 11.2296C3.31172 11.1895 3.40685 11.1532 3.53229 11.1432C3.67504 11.1319 3.82207 11.1294 3.92589 11.1056C3.98212 11.0931 4.04269 11.073 4.04269 11.0555C4.04269 11.0442 3.95624 11.0266 3.89568 11.0191C3.83945 11.0104 3.76583 11.0041 3.70095 11.0066C3.48466 11.0141 3.27271 11.0279 3.05643 11.0354C2.99587 11.0379 2.92668 11.0292 2.86179 11.0216C2.67146 11.0016 2.68442 10.9765 2.83581 10.9314C2.98721 10.8876 3.09541 10.8312 3.22086 10.7798C3.35928 10.771 3.53228 10.7748 3.62744 10.751C3.78749 10.7122 3.89993 10.6558 4.0297 10.6069C4.17245 10.5994 4.31951 10.5969 4.45361 10.5831C4.50984 10.5781 4.53581 10.5505 4.5834 10.5342C4.66991 10.5029 4.74351 10.4578 4.8603 10.4428C5.05063 10.4202 5.28421 10.429 5.39668 10.3601C5.46156 10.32 5.56101 10.2774 5.68213 10.2749C6.01953 10.2699 6.16228 10.2009 6.33531 10.1358C6.46508 10.0869 6.74193 10.112 6.88468 10.0631C6.97984 10.0318 7.04909 9.99295 7.14426 9.96288C7.18319 9.95035 7.26535 9.9441 7.33023 9.94034C7.68494 9.92154 8.04395 9.90776 8.39866 9.88771C8.45489 9.88395 8.50684 9.86516 8.5501 9.85013C8.64094 9.81755 8.69711 9.77244 8.80957 9.75114C8.92204 9.72984 9.08207 9.72984 9.22049 9.72358C9.66603 9.70479 9.70067 9.70979 9.90398 9.60329C10.0684 9.51683 10.4707 9.57823 10.6048 9.48301C10.6826 9.42788 10.8253 9.38277 11.0805 9.37651C11.4396 9.36774 11.7943 9.34393 12.1533 9.32764C12.4734 9.31261 12.4691 9.3126 12.8151 9.19608C12.9709 9.14345 13.2002 9.15098 13.4035 9.14095C13.6198 9.13093 13.8187 9.1159 13.9225 9.05325C14.0263 8.99186 14.2167 8.9718 14.4373 8.96303C14.6406 8.95426 14.8699 8.96053 15.0299 8.91041C15.4192 8.79013 15.4149 8.78887 15.6874 8.77634C16.1157 8.75629 16.5439 8.73625 16.9721 8.71495C17.2576 8.70116 17.5561 8.69866 17.8243 8.6711C18.0189 8.65105 18.1054 8.58088 18.2309 8.53202C18.5856 8.51323 18.9403 8.49442 19.295 8.47688C19.7924 8.45182 20.2942 8.42928 20.796 8.40547C21.0122 8.35786 21.0426 8.25261 21.4059 8.2476C21.6222 8.24509 21.8342 8.22881 22.0505 8.21878C22.4095 8.20124 22.7642 8.17869 23.1232 8.16992C23.3957 8.16365 23.4432 8.09598 23.586 8.05338C23.6336 8.03835 23.6769 8.01706 23.7331 8.0133C24.2954 7.97821 24.875 7.9707 25.4244 7.91932C25.4806 7.91431 25.5325 7.888 25.5455 7.8692C25.5542 7.85918 25.4806 7.84039 25.4331 7.83162C25.3768 7.8216 25.3033 7.81158 25.2428 7.81408C23.4563 7.89803 21.6698 7.98323 19.8833 8.06718C19.6324 8.07971 19.6324 8.07845 19.0225 8.21627C18.9706 8.22755 18.91 8.24008 18.8451 8.24383C18.5596 8.25887 18.2698 8.26765 17.9886 8.28645C17.7594 8.30148 17.5691 8.28643 17.4047 8.24133C17.2879 8.20875 17.1667 8.19873 17.0197 8.20124C16.8553 8.205 16.7472 8.21878 16.6521 8.25261C16.5266 8.29897 16.4617 8.35911 16.1978 8.37164C14.9823 8.42552 13.7667 8.48566 12.5556 8.54329C12.3869 8.52575 12.3047 8.49944 12.3479 8.46812C12.3739 8.44932 12.4258 8.42427 12.4777 8.42176C12.9752 8.39545 13.4769 8.3729 13.9744 8.34784C14.0436 8.34408 14.1387 8.34657 14.1777 8.33404C14.368 8.27766 14.4373 8.1862 14.7963 8.17993C15.004 8.17617 15.2159 8.15739 15.4149 8.13984C15.4711 8.13483 15.523 8.10852 15.536 8.08972C15.5403 8.0797 15.4711 8.0609 15.4192 8.05213C15.2289 8.01579 15.0083 8.05966 14.818 8.0346C14.7531 8.02583 14.6622 8.0133 14.6492 7.99826C14.6406 7.98448 14.7141 7.96192 14.766 7.94814C14.8136 7.93561 14.8784 7.92434 14.9433 7.92058C15.5143 7.89176 16.0854 7.86169 16.6564 7.83913C16.89 7.83036 17.0543 7.79904 17.1581 7.7414C17.236 7.6988 17.3311 7.67625 17.4782 7.66999C18.4774 7.62363 19.4766 7.57226 20.4802 7.52966C20.7311 7.51963 20.8609 7.47829 20.9647 7.42441C21.0469 7.38181 21.1421 7.36678 21.3021 7.35926C22.7339 7.29411 24.157 7.22144 25.5888 7.15879C25.8527 7.14751 25.9306 7.09363 26.0647 7.04727C26.1123 7.03099 26.1425 7.01094 26.203 7.00092C26.2636 6.99089 26.3414 6.99213 26.415 6.98963C27.557 6.93575 28.699 6.87813 29.8453 6.82801C30.1135 6.81673 30.1653 6.75408 30.3038 6.71022C30.3513 6.69644 30.3946 6.67389 30.4509 6.67013C31.3073 6.62753 32.1638 6.58744 33.0203 6.54609C33.5913 6.51853 34.1622 6.49096 34.7332 6.46465C35.0144 6.45212 35.0144 6.45086 35.3951 6.33183C35.4383 6.31805 35.4989 6.30175 35.5552 6.298C37.1989 6.21781 38.8383 6.14139 40.482 6.06246C40.6205 6.05619 40.7199 6.02736 40.7891 5.98476C40.8584 5.94216 40.9579 5.91334 41.092 5.90708C42.3767 5.84443 43.6614 5.78304 44.9505 5.72415C45.1841 5.71413 45.3484 5.68405 45.4522 5.62767C45.5301 5.58507 45.6252 5.56252 45.7723 5.55626C47.057 5.49612 48.3418 5.43221 49.6309 5.37457C49.8774 5.36329 49.9985 5.3207 50.1196 5.27058C50.1629 5.25304 50.1975 5.22422 50.2494 5.22171C50.8896 5.18663 51.5255 5.15029 52.17 5.12649C52.4382 5.11646 52.529 5.06384 52.6372 5.01372C52.7237 4.97362 52.8232 4.95985 52.9876 4.95483C53.3466 4.94356 53.7013 4.92227 54.0517 4.90097C54.1036 4.89721 54.1685 4.86964 54.1728 4.8521C54.1815 4.81952 54.0819 4.79697 53.9176 4.78569C52.2046 4.86713 50.4874 4.94857 48.7744 5.03001C48.4932 5.04379 48.4932 5.0438 48.1126 5.16283C48.0693 5.17661 48.0087 5.1929 47.9481 5.19666C46.3044 5.2756 44.665 5.35328 43.0213 5.43222C42.8828 5.43848 42.7834 5.4673 42.7141 5.5099C42.6449 5.5525 42.5454 5.58132 42.4113 5.58758C40.8411 5.66276 39.2709 5.73919 37.6963 5.81061C37.4628 5.82063 37.2984 5.84944 37.1946 5.90708C37.1167 5.94968 37.0216 5.97224 36.8745 5.9785C35.3735 6.04867 33.8768 6.12258 32.3714 6.19024C32.22 6.19651 32.1076 6.16017 32.1163 6.12634C32.1206 6.1088 32.1854 6.08 32.2373 6.07749C33.0203 6.03614 33.7989 5.99354 34.5862 5.96221C34.8501 5.95219 34.9279 5.89706 35.062 5.8507C35.1052 5.83441 35.1399 5.81311 35.1961 5.80434C35.2567 5.79432 35.3345 5.79557 35.4081 5.79307C37.2638 5.70411 39.1195 5.6139 40.9796 5.52995C41.2477 5.51742 41.2996 5.45602 41.438 5.41217C41.4856 5.39713 41.5289 5.37458 41.5851 5.37208C42.1561 5.34201 42.7271 5.31569 43.298 5.28938C44.2973 5.24177 45.2965 5.19415 46.3 5.14654C46.5898 5.13276 46.5899 5.13275 46.9619 5.01497C47.0051 5.00119 47.0657 4.98366 47.122 4.98116C49.7649 4.85461 52.408 4.72806 55.0509 4.60276C55.1894 4.5965 55.2888 4.56768 55.358 4.52508C55.4272 4.48373 55.5267 4.45366 55.6608 4.44614C59.2338 4.27574 62.8025 4.10533 66.3755 3.93744C66.6091 3.92616 66.7734 3.89985 66.8772 3.84096C66.9508 3.79836 67.0502 3.77581 67.1973 3.76829C71.125 3.5816 75.0527 3.39491 78.9847 3.20697C81.6277 3.08168 84.2707 2.95387 86.9137 2.83109C87.1559 2.81981 87.2857 2.78096 87.4068 2.72959C87.4457 2.71205 87.4847 2.68323 87.5366 2.68072C88.1032 2.6494 88.6699 2.62058 89.2365 2.59177C89.4139 2.6256 89.5912 2.65818 89.7686 2.69201C89.9027 2.6444 90.0325 2.59553 90.1666 2.54792C91.0231 2.51158 91.8666 2.4552 92.7317 2.43766C92.7879 2.4364 92.8484 2.46021 92.909 2.47274C93.3113 2.55168 93.5406 2.54541 93.7958 2.44016C93.8866 2.40258 93.9645 2.36875 94.1029 2.36248C94.5311 2.33993 94.9638 2.32489 95.3877 2.29858C95.617 2.2848 95.8072 2.29732 95.9716 2.34243C96.0884 2.37501 96.2096 2.3888 96.3523 2.38128C97.1396 2.34369 97.9225 2.30735 98.7098 2.26726C98.766 2.26475 98.8179 2.24344 98.8611 2.22841C98.952 2.19583 99.0299 2.16076 99.1164 2.12693C99.2332 2.14823 99.363 2.16452 99.4581 2.19208C99.5792 2.22466 99.6917 2.22465 99.856 2.21588C102.996 2.06427 106.141 1.91643 109.282 1.76357C109.55 1.75104 109.667 1.80367 109.848 1.83123C109.909 1.84126 109.969 1.85378 110.034 1.85628C110.104 1.85879 110.177 1.85128 110.246 1.84752C112.604 1.73475 114.961 1.62323 117.319 1.51047C117.63 1.49543 117.63 1.49543 118.093 1.57312C118.149 1.58314 118.223 1.59442 118.283 1.59066C119.356 1.54179 120.429 1.48917 121.497 1.43906C121.636 1.43279 121.753 1.45283 121.878 1.48165C122.125 1.53804 122.142 1.53804 122.323 1.45535C122.41 1.4165 122.501 1.39269 122.644 1.38141C122.799 1.36888 122.925 1.37265 123.046 1.39521C123.219 1.42653 123.344 1.47915 123.608 1.46536C124.75 1.40647 125.897 1.35761 127.034 1.29747C127.294 1.28369 127.432 1.32629 127.605 1.35761C127.666 1.36889 127.722 1.38643 127.787 1.39019C127.852 1.39395 127.93 1.38517 127.999 1.38141C129.426 1.31375 130.858 1.24736 132.281 1.17469C132.549 1.1609 132.666 1.21477 132.848 1.24233C132.908 1.25236 132.978 1.26991 133.034 1.2674C133.89 1.22856 134.751 1.1872 135.608 1.14585C135.915 1.13082 135.915 1.13207 136.382 1.2085C136.438 1.21853 136.512 1.22855 136.572 1.22605C137.572 1.17969 138.575 1.13207 139.574 1.08446C139.881 1.06943 139.881 1.06943 140.768 1.13458C140.833 1.13959 140.902 1.14712 140.967 1.14462C142.109 1.09074 143.255 1.03811 144.397 0.980472C144.627 0.969195 144.817 0.979216 144.981 1.02432C145.098 1.0569 145.219 1.07069 145.362 1.06317C146.647 1.00178 147.936 0.94289 149.216 0.877736C149.463 0.865207 149.623 0.892761 149.796 0.929096C149.852 0.941626 149.908 0.959171 149.973 0.964183C150.038 0.969194 150.112 0.964179 150.181 0.96042C151.466 0.899025 152.755 0.841392 154.035 0.774985C154.294 0.761203 154.433 0.803801 154.606 0.835125C154.667 0.846401 154.731 0.868956 154.783 0.867703C155.285 0.846403 155.787 0.827615 156.284 0.796291C156.552 0.77875 156.669 0.836375 156.851 0.86394C156.911 0.872711 156.981 0.891514 157.037 0.889008C158.11 0.840143 159.183 0.788776 160.251 0.736152C160.402 0.728634 160.515 0.7399 160.636 0.772477C160.796 0.81633 160.982 0.833872 161.216 0.82009C161.713 0.791272 162.215 0.77123 162.717 0.747424C163.011 0.733642 163.011 0.733646 163.91 0.7988C163.975 0.803811 164.045 0.811324 164.109 0.808818C164.966 0.768723 165.827 0.729884 166.679 0.686031C166.908 0.673501 167.098 0.684775 167.263 0.729881C167.38 0.762458 167.496 0.776248 167.643 0.76873C168.431 0.731141 169.214 0.69355 170.001 0.655961C170.286 0.642179 170.572 0.618366 170.857 0.618366C171.065 0.619619 171.217 0.679759 171.403 0.70983C171.454 0.7186 171.541 0.708588 171.61 0.706082C172.609 0.65847 173.613 0.614612 174.608 0.560735C174.867 0.546953 175.006 0.589551 175.179 0.620875C175.239 0.632151 175.304 0.654706 175.356 0.653453C175.715 0.63967 176.07 0.620874 176.429 0.604586C176.857 0.584538 177.29 0.569503 177.714 0.541938C178.06 0.519385 178.189 0.628388 178.466 0.632147C178.678 0.635906 178.894 0.614609 179.106 0.604586C179.535 0.584538 179.963 0.561988 180.391 0.544446C180.543 0.538182 180.659 0.518126 180.707 0.47302C180.716 0.464249 180.642 0.445463 180.595 0.434186C180.019 0.306385 180.019 0.306379 179.44 0.333944C179.08 0.351485 178.726 0.369029 178.367 0.384065C178.306 0.386571 178.237 0.376548 178.176 0.36903C178.003 0.34773 178.021 0.322673 178.168 0.277567C178.315 0.232461 178.427 0.177336 178.553 0.125964C178.73 0.158541 178.903 0.191106 179.081 0.223683C179.223 0.217418 179.366 0.209912 179.509 0.203647C180.223 0.17107 180.936 0.137238 181.65 0.107167C181.702 0.104661 181.767 0.129724 181.827 0.142253C182 0.178589 182.156 0.209904 182.407 0.196122C183.047 0.159786 183.692 0.133474 184.332 0.10215C184.613 0.0883679 184.613 0.0883692 185.106 0.166052C185.162 0.174823 185.236 0.184847 185.296 0.182341C185.941 0.153523 186.581 0.122203 187.226 0.0921323C187.364 0.0858675 187.498 0.102155 187.598 0.138491C187.637 0.153526 187.628 0.178581 187.792 0.384065C188.303 0.550708 188.653 0.533175 189.008 0.518139C189.159 0.511875 189.293 0.505604 189.393 0.480545C189.445 0.466762 189.51 0.446712 189.51 0.430423C189.51 0.417894 189.415 0.397843 189.354 0.395337C188.926 0.370278 188.519 0.422909 188.099 0.434186C187.905 0.439198 187.736 0.395344 187.702 0.323926C187.693 0.303878 187.68 0.282579 187.667 0.262532C187.654 0.242485 187.645 0.221186 187.632 0.201139C187.464 0.194874 187.364 0.217423 187.291 0.260024C187.23 0.295106 187.144 0.335201 187.027 0.353995C186.91 0.374042 186.75 0.37029 186.607 0.376555C186.469 0.38282 186.317 0.399106 186.188 0.390336C186.058 0.380312 185.954 0.34397 185.833 0.321417C185.777 0.310141 185.707 0.293858 185.651 0.296364C185.154 0.317664 184.661 0.338957 184.168 0.366522C183.908 0.381557 183.778 0.328941 183.614 0.296364C183.484 0.271305 183.354 0.277562 183.333 0.335198C183.276 0.473023 183.475 0.530655 183.917 0.504343C184.28 0.48179 184.609 0.478043 184.894 0.563244C184.933 0.57452 185.024 0.57953 185.08 0.577024C185.435 0.561989 185.785 0.543193 186.14 0.528157C186.205 0.525652 186.274 0.530655 186.335 0.535667C187.217 0.603327 187.217 0.604586 187.516 0.589551C187.658 0.582033 187.797 0.575768 187.784 0.385319C188.056 0.181088 188.489 0.167308 188.908 0.137237C189.181 0.118442 189.298 0.173575 189.475 0.202393C189.536 0.212416 189.601 0.23246 189.657 0.229954C190.587 0.188607 191.512 0.144747 192.438 0.0983879C192.594 0.0908702 192.706 0.0983891 192.827 0.130966C192.983 0.172313 193.156 0.198631 193.403 0.183595C193.896 0.153525 194.398 0.134735 194.899 0.109675C195.155 0.0971459 195.155 0.0971331 195.669 0.174816C195.726 0.183587 195.799 0.193611 195.86 0.191105C196.361 0.169805 196.859 0.143501 197.356 0.120948C197.495 0.114683 197.62 0.132223 197.728 0.166052C197.837 0.199882 197.966 0.217421 198.1 0.211157C198.602 0.188604 199.1 0.163552 199.597 0.140999C199.658 0.138493 199.731 0.147263 199.787 0.156034C200.315 0.233717 200.315 0.233704 200.557 0.221175C200.912 0.202381 201.275 0.19362 201.626 0.168561C201.968 0.143502 202.145 0.216167 202.378 0.256261C203.019 0.227443 203.663 0.203643 204.299 0.168561C204.559 0.153525 204.697 0.194869 204.87 0.227446C204.931 0.238722 204.991 0.262531 205.047 0.261278C205.264 0.256266 205.476 0.242486 205.688 0.232462C205.9 0.222439 206.116 0.212416 206.328 0.202393C206.57 0.238728 206.73 0.323928 207.076 0.29511C207.284 0.277569 207.504 0.27381 207.716 0.263786C207.928 0.253763 208.145 0.24374 208.357 0.233717C208.499 0.227452 208.646 0.223687 208.785 0.212411C209.04 0.193617 209.165 0.255019 209.347 0.282584C209.408 0.291354 209.477 0.30638 209.533 0.303874C209.961 0.286333 210.394 0.271298 210.814 0.242481C211.138 0.219927 211.359 0.257521 211.588 0.310145C211.635 0.321421 211.718 0.327686 211.778 0.32518C212.28 0.303879 212.777 0.27756 213.275 0.255007C213.409 0.248742 213.539 0.268789 213.647 0.301366C213.759 0.335195 213.885 0.351496 214.023 0.345231C214.521 0.322678 215.022 0.297612 215.52 0.275059C215.58 0.272553 215.654 0.282578 215.71 0.292602C216.195 0.370285 216.195 0.371539 216.48 0.356503C216.549 0.352745 216.623 0.350229 216.692 0.34647C217.047 0.328929 217.415 0.322673 217.761 0.292602C218.159 0.258772 218.448 0.301374 218.73 0.372793C219.084 0.357757 219.448 0.348985 219.794 0.323926C220.053 0.305131 220.192 0.352741 220.365 0.384065C220.425 0.395341 220.49 0.417895 220.542 0.415389C221.044 0.394088 221.545 0.375301 222.039 0.343977C222.307 0.326436 222.424 0.382808 222.605 0.411626C222.666 0.42165 222.731 0.4392 222.787 0.436694C223.072 0.426671 223.358 0.411628 223.644 0.397845C223.977 0.381557 223.976 0.382809 224.418 0.459239C224.625 0.495575 224.833 0.466755 225.036 0.457985C225.253 0.447961 225.456 0.440446 225.629 0.491817C225.737 0.524394 225.867 0.544442 226.001 0.53943C226.286 0.528153 226.576 0.516882 226.857 0.498088C227.082 0.483052 227.277 0.49307 227.441 0.53943C227.558 0.572006 227.679 0.588305 227.822 0.580787C228.462 0.550716 229.107 0.519381 229.747 0.490563C229.803 0.488057 229.881 0.499338 229.933 0.510614C230.054 0.533167 230.171 0.558221 230.288 0.58328C230.569 0.572003 230.859 0.567004 231.135 0.549463C231.43 0.531922 231.698 0.525655 231.927 0.594568C231.975 0.609603 232.044 0.630892 232.1 0.629639C232.316 0.624627 232.528 0.612101 232.74 0.602077C232.952 0.592054 233.169 0.582031 233.38 0.572008C233.627 0.603332 233.783 0.693543 234.129 0.664725C234.337 0.647184 234.557 0.643425 234.769 0.633401C234.981 0.623378 235.197 0.612102 235.409 0.603332C235.478 0.600826 235.556 0.594557 235.617 0.599569C235.682 0.604581 235.738 0.622126 235.794 0.634655C235.967 0.670991 236.127 0.707331 236.374 0.686031C236.582 0.668489 236.802 0.664729 237.014 0.653453C237.304 0.63967 237.304 0.639673 237.784 0.718609C237.979 0.751185 238.199 0.708587 238.385 0.736152C238.511 0.754946 238.619 0.786263 238.74 0.807563C238.792 0.816334 238.874 0.820087 238.935 0.817582C239.22 0.806305 239.51 0.795034 239.791 0.77624C240.02 0.761204 240.211 0.776238 240.371 0.821344C240.488 0.853921 240.604 0.867711 240.751 0.860193C241.465 0.82511 242.179 0.79503 242.888 0.756188C243.131 0.742406 243.325 0.763711 243.459 0.808818C243.689 0.886501 244.013 0.795037 244.251 0.857685C244.398 0.896526 244.545 0.941635 244.813 0.922841C245.306 0.890264 245.808 0.872713 246.306 0.85016C246.483 0.883989 246.66 0.917826 246.842 0.951656C247.127 0.937874 247.413 0.924083 247.698 0.911553C247.91 0.901529 248.127 0.890254 248.339 0.881483C248.408 0.878978 248.481 0.873964 248.546 0.880229C248.611 0.886494 248.663 0.902786 248.724 0.915316C249.022 0.97671 249.022 0.977969 249.515 0.95291C249.727 0.941634 249.931 0.934116 250.108 0.984234C250.272 1.03059 250.467 1.03936 250.692 1.02558C251.116 1.00052 251.544 0.981724 251.977 0.964183C252.111 0.957918 252.236 0.979219 252.349 1.0118C252.517 1.06317 252.725 1.05816 252.937 1.04437C253.218 1.02683 253.495 1.00929 253.733 1.07946C253.78 1.0945 253.854 1.11578 253.906 1.11453C254.26 1.10451 254.62 1.09699 254.966 1.07319C255.312 1.04938 255.48 1.12706 255.718 1.16465C256.073 1.14836 256.432 1.13207 256.787 1.11579C256.856 1.11203 256.938 1.10076 256.999 1.10702C257.254 1.13333 257.401 1.2273 257.751 1.19848C257.955 1.1822 258.175 1.17719 258.387 1.17343C258.443 1.17218 258.517 1.19347 258.556 1.20976C258.578 1.21853 258.556 1.24233 258.53 1.25486C258.452 1.28994 258.357 1.32253 258.288 1.35887C258.279 1.36388 258.361 1.38642 258.409 1.39645C258.526 1.419 258.66 1.41525 258.815 1.40522C258.949 1.39645 259.088 1.41399 259.183 1.45158C259.222 1.46662 259.209 1.49168 259.127 1.57437C259.127 1.63576 259.218 1.60819 259.248 1.5681C259.296 1.51046 259.205 1.49167 259.032 1.52299C258.911 1.54555 258.85 1.57813 258.88 1.60444C258.898 1.61822 258.98 1.63576 259.127 1.57437C259.507 1.49919 259.793 1.48542 260.079 1.47163C260.152 1.46788 260.239 1.45534 260.29 1.46286C260.476 1.49293 260.65 1.52927 260.831 1.5631C261.039 1.55558 261.233 1.53678 261.437 1.58564C261.722 1.65455 261.735 1.64829 262.012 1.63451C262.155 1.62699 262.298 1.62074 262.44 1.61447C262.583 1.60821 262.695 1.627 262.821 1.65582C263.076 1.7147 263.098 1.7147 263.266 1.63451C263.366 1.58564 263.435 1.56936 263.561 1.59191C263.976 1.66834 263.98 1.67335 264.335 1.6508C264.629 1.632 264.906 1.62699 265.122 1.69841C265.269 1.74853 265.317 1.73725 265.434 1.68463C265.745 1.54555 265.888 1.54805 266.472 1.64829C266.744 1.6959 267.026 1.64454 267.302 1.63827C267.536 1.63326 267.7 1.66333 267.718 1.74226C267.731 1.79113 267.77 1.82622 267.925 1.8425C267.986 1.84877 268.059 1.85754 268.12 1.85503C268.479 1.83999 268.834 1.82245 269.193 1.80491C269.374 1.79614 269.474 1.73726 269.439 1.65958C269.4 1.57688 269.469 1.5468 269.729 1.52299C269.885 1.50921 270.01 1.51173 270.136 1.53428C270.274 1.55934 270.235 1.58189 270.114 1.627C269.824 1.73726 269.859 1.80491 270.231 1.88134C270.361 1.90765 270.464 1.93147 270.495 1.97031C270.512 1.99035 270.495 2.01667 270.534 2.0317C270.746 2.11565 271.04 2.16953 271.368 2.20963C271.684 2.1758 271.901 2.23217 272.143 2.27727C272.333 2.31236 272.558 2.28229 272.761 2.26976C272.991 2.25598 273.181 2.266 273.345 2.31236C273.462 2.34494 273.583 2.35997 273.726 2.3537C274.011 2.33992 274.301 2.33115 274.582 2.31111C274.825 2.29357 275.006 2.31863 275.158 2.36123C275.348 2.41511 275.56 2.37876 275.759 2.38628C276.027 2.39505 276.161 2.50656 276.512 2.47649C276.719 2.45895 276.936 2.45269 277.152 2.44767C277.208 2.44642 277.277 2.46773 277.325 2.48276C277.554 2.55167 277.822 2.54791 278.117 2.52787C278.32 2.51408 278.519 2.50156 278.718 2.54917C279.046 2.62936 279.41 2.69953 279.756 2.77345C279.804 2.83109 279.769 2.89874 280.015 2.93257C280.145 2.95011 280.266 2.97643 280.366 3.00525C280.487 3.03908 280.599 3.04785 280.755 3.03908C281.036 3.02154 281.331 3.01777 281.607 2.99521C281.863 2.97517 282.023 3.01653 282.178 3.05537C282.304 3.08669 282.421 3.10172 282.572 3.07917C282.728 3.05787 282.84 3.07165 282.966 3.10547C283.143 3.15183 283.156 3.14683 283.744 3.16061C283.805 3.16187 283.878 3.18065 283.913 3.19694C283.93 3.20571 283.891 3.23078 283.861 3.24331C283.822 3.25835 283.761 3.27588 283.705 3.27964C283.065 3.31221 282.421 3.34103 281.78 3.37361C281.715 3.37737 281.646 3.38615 281.599 3.39868C281.547 3.41246 281.482 3.43124 281.482 3.44878C281.482 3.46131 281.568 3.47635 281.629 3.48512C281.819 3.51394 282.044 3.47009 282.23 3.50267C282.356 3.52397 282.459 3.55403 282.585 3.57408C282.637 3.58285 282.719 3.5816 282.784 3.57909C283 3.57032 283.212 3.5578 283.428 3.55028C283.489 3.54903 283.558 3.56156 283.614 3.57158C284.03 3.64676 284.03 3.64676 284.389 3.63047C284.531 3.62421 284.683 3.60541 284.817 3.61293C284.947 3.62044 285.059 3.65427 285.176 3.67557C285.418 3.72068 285.647 3.76453 285.665 3.86226C285.673 3.89985 285.816 3.93242 285.959 3.93493C286.097 3.93743 286.244 3.92366 286.387 3.91615C286.725 3.90111 286.725 3.90111 287.161 3.97754C287.283 3.99884 287.412 4.00134 287.568 3.98881C287.629 3.9838 287.702 3.98882 287.767 3.99508C287.979 4.01388 287.979 4.03768 287.841 4.08278C287.646 4.14919 287.663 4.15546 288.208 4.21184C288.416 4.23314 288.576 4.27324 288.749 4.30832C289.03 4.3647 289.026 4.36469 288.84 4.43862C288.797 4.45491 288.758 4.47245 288.714 4.48999C288.589 4.53886 288.489 4.59148 288.23 4.59649C287.944 4.6015 287.659 4.62156 287.373 4.63534C287.097 4.64912 287.023 4.67918 287.049 4.76438C287.079 4.86713 287.135 4.8784 287.633 4.87715C287.776 4.87715 287.901 4.88717 288.009 4.921C287.957 4.9611 287.862 4.99242 287.724 4.99994C287.369 5.01873 287.01 5.03503 286.655 5.05131C286.37 5.0651 286.084 5.07887 285.799 5.09266C285.622 5.10143 285.509 5.16659 285.557 5.23926C285.583 5.2806 285.604 5.32195 285.626 5.3633C285.673 5.44599 285.764 5.4673 286.054 5.46354C286.128 5.46229 286.197 5.45226 286.266 5.45476C286.547 5.46353 286.681 5.56752 287.019 5.54622C287.3 5.52868 287.594 5.52493 287.871 5.50237C288.126 5.48233 288.269 5.52744 288.446 5.56127C288.507 5.57255 288.572 5.59634 288.624 5.59509C288.983 5.58131 289.342 5.56754 289.692 5.54373C289.856 5.53371 289.956 5.54122 290.086 5.57129C290.397 5.64396 290.406 5.6402 290.869 5.61765C291.206 5.60011 291.21 5.60261 291.643 5.67904C291.764 5.70035 291.894 5.70034 292.049 5.69032C292.253 5.67779 292.465 5.65774 292.677 5.67654C292.742 5.68155 292.824 5.69659 292.845 5.71288C292.858 5.72415 292.798 5.75172 292.746 5.76049C292.365 5.82564 291.92 5.81437 291.504 5.84068C291.375 5.8482 291.245 5.82439 291.137 5.79056C291.024 5.75673 290.903 5.74295 290.756 5.74922C290.471 5.763 290.181 5.77177 289.9 5.79181C289.657 5.80935 289.489 5.78053 289.32 5.74169C289.264 5.72916 289.199 5.70535 289.143 5.70661C288.502 5.73167 287.858 5.75673 287.222 5.79181C286.967 5.80685 286.82 5.76676 286.647 5.73293C286.586 5.72165 286.526 5.69784 286.469 5.6991C286.253 5.70411 286.041 5.71789 285.825 5.72791C285.038 5.7655 284.255 5.80309 283.467 5.83817C283.415 5.84068 283.351 5.81436 283.29 5.80309C283.173 5.78053 283.052 5.75923 282.931 5.73793C282.715 5.74795 282.503 5.76048 282.286 5.768C282.131 5.77301 281.992 5.79056 281.971 5.83817C281.958 5.8695 282.1 5.89831 282.252 5.8958C282.399 5.8933 282.546 5.87826 282.667 5.89455C283.268 5.97474 283.268 5.97599 283.645 5.9597C283.973 5.94467 283.939 5.93213 284.229 6.00105C284.354 6.03112 284.467 6.04867 284.609 6.04115C284.964 6.02361 285.323 6.00606 285.682 5.99103C285.738 5.98852 285.812 6.00106 285.868 6.01108C286.292 6.08626 286.292 6.08876 286.642 6.06997C287.101 6.04741 287.118 6.04115 287.425 6.11758C287.637 6.1702 287.832 6.13386 288.035 6.13136C288.269 6.18022 288.524 6.22408 288.736 6.27921C288.987 6.34437 289.251 6.33308 289.536 6.31428C289.748 6.3005 289.956 6.29549 290.129 6.34686C290.293 6.39447 290.492 6.3995 290.717 6.38697C290.92 6.37569 291.128 6.35188 291.34 6.37944C291.396 6.38696 291.483 6.40576 291.478 6.41704C291.474 6.43458 291.418 6.45964 291.362 6.46716C290.964 6.51853 290.527 6.51727 290.107 6.54108C290.051 6.54484 289.977 6.53105 289.921 6.52103C289.8 6.49847 289.683 6.47217 289.566 6.44836C289.355 6.45588 289.138 6.45838 288.931 6.47341C288.771 6.48469 288.649 6.48345 288.533 6.45338C288.424 6.42581 288.308 6.39197 288.178 6.3832C288.048 6.37443 287.897 6.39323 287.754 6.40075C287.611 6.40826 287.447 6.4045 287.335 6.42455C287.222 6.44459 287.153 6.48845 287.079 6.52353C286.997 6.56238 286.885 6.57491 286.72 6.57867C286.569 6.58243 286.448 6.57741 286.335 6.54233C286.288 6.5273 286.223 6.51601 286.158 6.50599C286.097 6.49722 286.028 6.48343 285.972 6.48594C285.327 6.51476 284.687 6.54609 284.043 6.57616C283.723 6.5912 283.727 6.59119 283.061 6.51726C283 6.511 282.927 6.50223 282.866 6.50474C282.507 6.51977 282.152 6.53732 281.793 6.55486C281.43 6.5724 281.434 6.56989 280.816 6.49096C280.703 6.47592 280.539 6.49597 280.405 6.49346C280.124 6.4872 279.985 6.38195 279.656 6.402C279.375 6.41954 279.081 6.4233 278.8 6.44585C278.545 6.4659 278.398 6.42205 278.225 6.38822C278.164 6.37694 278.099 6.35188 278.047 6.35439C277.403 6.38195 276.763 6.41328 275.906 6.41704C275.694 6.41704 275.789 6.44335 275.928 6.45212C276.127 6.4659 276.192 6.43959 276.083 6.38947C276.006 6.35439 275.893 6.33684 275.802 6.34561C275.755 6.35062 275.694 6.37444 275.906 6.41704C276.131 6.46465 276.118 6.49095 276.157 6.50599C276.252 6.54233 276.386 6.55736 276.525 6.55235C276.741 6.54358 276.953 6.53105 277.169 6.52353C277.23 6.52103 277.303 6.5298 277.36 6.53982C277.835 6.61751 277.84 6.62252 278.346 6.59245C278.506 6.58368 278.623 6.58368 278.748 6.60749C278.921 6.64006 279.047 6.69519 279.31 6.67764C279.661 6.65384 280.02 6.64007 280.379 6.62628C280.435 6.62378 280.496 6.64633 280.56 6.65635C280.738 6.68642 280.868 6.74281 281.131 6.719C281.335 6.70021 281.555 6.69518 281.772 6.69142C281.828 6.69017 281.914 6.71022 281.94 6.72651C281.992 6.75533 281.927 6.78917 281.78 6.81297C281.72 6.823 281.638 6.82049 281.568 6.82425C281.283 6.83803 280.997 6.85306 280.712 6.86433C280.56 6.8706 280.418 6.8894 280.4 6.93576C280.387 6.96708 280.543 6.99464 280.69 6.99214C280.907 6.98838 281.123 6.97836 281.33 6.96207C281.698 6.9345 282.018 6.94202 282.317 7.02095C282.529 7.07608 282.516 7.05604 282.741 7.21893C282.797 7.26028 282.966 7.26403 283.113 7.26152C283.467 7.25526 283.632 7.27406 283.601 7.3129C283.562 7.36051 283.437 7.37554 283.277 7.3818C282.991 7.39183 282.706 7.40812 282.421 7.42191C282.351 7.42567 282.273 7.43318 282.209 7.43067C282.144 7.42816 282.083 7.41313 282.027 7.40185C281.906 7.37805 281.802 7.34171 281.672 7.33294C281.542 7.32417 281.391 7.34296 281.248 7.35048C281.106 7.35674 280.954 7.37554 280.824 7.36677C280.695 7.358 280.586 7.32042 280.47 7.29787C280.413 7.28659 280.344 7.26904 280.288 7.27029C280.003 7.28031 279.717 7.29661 279.432 7.30914C279.081 7.32543 279.081 7.32543 278.657 7.24774C278.536 7.22519 278.411 7.22645 278.251 7.23647C277.905 7.25652 277.9 7.25275 277.269 7.18008C277.208 7.17256 277.135 7.16379 277.074 7.16755C276.429 7.19637 275.789 7.22769 275.149 7.25776C274.6 7.28407 274.6 7.28408 274.297 7.40938C274.072 7.5021 274.068 7.50209 274.288 7.54469C274.466 7.57978 274.626 7.63114 274.82 7.64994C275.002 7.66748 275.227 7.6111 275.426 7.66873C275.525 7.69755 275.655 7.72888 275.781 7.73389C275.98 7.74016 276.192 7.70381 276.382 7.75894C276.477 7.78651 276.62 7.81534 276.741 7.81659C276.953 7.8191 277.169 7.79904 277.381 7.79027C277.446 7.78776 277.52 7.78777 277.58 7.79403C277.645 7.80155 277.701 7.81659 277.757 7.82912C277.93 7.87172 278.117 7.89176 278.341 7.87046C278.709 7.83538 279.038 7.85292 279.323 7.93311C279.362 7.94438 279.457 7.94564 279.518 7.94063C279.674 7.9281 279.808 7.92684 279.925 7.95065C279.972 7.96067 280.041 7.97821 280.033 7.98948C280.02 8.00828 279.968 8.03334 279.912 8.0396C279.505 8.0822 279.068 8.08722 278.649 8.10978C278.592 8.11228 278.523 8.09598 278.467 8.08471C278.346 8.06215 278.242 8.02458 278.112 8.0158C277.982 8.00703 277.831 8.02332 277.688 8.02959C277.546 8.03585 277.394 8.05465 277.264 8.04713C277.135 8.03836 277.013 8.00703 276.91 7.97946C276.789 7.94814 276.672 7.94439 276.512 7.95692C276.304 7.97321 276.088 7.97571 275.876 7.98448C275.759 7.96067 275.642 7.93435 275.521 7.9118C275.465 7.90052 275.396 7.88675 275.335 7.888C275.05 7.89802 274.764 7.91305 274.479 7.92683C274.193 7.94062 274.193 7.94063 273.709 7.86295C273.652 7.85418 273.579 7.84415 273.518 7.84666C273.159 7.86169 272.805 7.88048 272.446 7.89551C272.307 7.90178 272.182 7.88424 272.069 7.85041C271.961 7.81658 271.831 7.79778 271.697 7.80405C271.126 7.83036 270.555 7.85542 269.984 7.88675C269.755 7.89928 269.56 7.888 269.405 7.8429C269.223 7.79153 269.02 7.80406 268.808 7.81408C268.328 7.83914 268.323 7.83788 268.016 7.77398C267.955 7.76145 267.895 7.73764 267.839 7.73889C267.341 7.75769 266.84 7.77523 266.346 7.8053C266.087 7.82159 265.948 7.77774 265.775 7.74516C265.715 7.73389 265.65 7.71008 265.598 7.71258C265.239 7.72637 264.88 7.7389 264.53 7.76396C264.179 7.78902 264.045 7.6725 263.781 7.67375C263.422 7.675 263.067 7.70382 262.713 7.72136C262.427 7.73515 262.142 7.74892 261.856 7.76271C261.571 7.77649 261.285 7.78776 261 7.80405C260.848 7.81282 260.736 7.80154 260.611 7.77022C260.451 7.72887 260.26 7.6963 260.087 7.65872C259.823 7.60484 259.823 7.60483 259.503 7.61987C259.434 7.62363 259.36 7.62613 259.291 7.62989C258.768 7.65745 258.768 7.65495 258.102 7.57602C258.071 7.57226 257.993 7.58604 257.963 7.59607C257.872 7.62865 257.79 7.66372 257.708 7.69755C257.591 7.6775 257.449 7.66623 257.371 7.63741C257.15 7.55597 256.804 7.66748 256.579 7.58729C256.497 7.55722 256.354 7.53091 256.224 7.52339C256.09 7.51587 255.939 7.53341 255.8 7.54093C255.441 7.55972 255.441 7.55848 255.134 7.66999C254.979 7.72512 254.754 7.71509 254.55 7.72762C254.338 7.7414 254.135 7.74892 253.958 7.69755C253.798 7.65119 253.603 7.63992 253.374 7.65495C253.093 7.67375 252.803 7.68502 252.517 7.6963C252.457 7.6988 252.383 7.69254 252.323 7.68502C251.661 7.6111 251.661 7.60985 251.341 7.62614C251.198 7.63366 251.051 7.63615 250.912 7.64743C250.679 7.66748 250.502 7.64116 250.333 7.60107C250.277 7.58854 250.212 7.56475 250.155 7.566C249.87 7.57226 249.589 7.58354 249.308 7.59481C249.091 7.60359 248.875 7.6086 248.667 7.62614C248.321 7.65496 248.153 7.5735 247.915 7.53591C247.56 7.5522 247.201 7.56348 246.846 7.58604C246.682 7.59606 246.574 7.59231 246.448 7.56224C246.288 7.52465 246.141 7.48205 245.882 7.50084C245.536 7.5259 245.172 7.53467 244.818 7.54971C244.58 7.51087 244.407 7.43192 244.065 7.46074C243.857 7.47828 243.637 7.48204 243.425 7.49206C243.139 7.50585 242.854 7.51839 242.568 7.53342C242.261 7.54846 242.265 7.5447 241.794 7.47077C241.521 7.42692 241.24 7.47578 240.963 7.4833C240.747 7.48956 240.639 7.5472 240.691 7.62112C240.743 7.69505 240.626 7.75268 240.427 7.76271C239.93 7.78651 239.428 7.81156 238.93 7.83286C238.87 7.83537 238.796 7.8266 238.74 7.81783C238.208 7.73889 238.208 7.74016 237.97 7.75143C237.615 7.77023 237.252 7.78024 236.902 7.80405C236.659 7.82034 236.482 7.79403 236.326 7.75143C236.205 7.71886 236.093 7.71134 235.937 7.71886C234.224 7.8028 232.511 7.88048 230.802 7.96694C230.547 7.97947 230.4 7.94314 230.227 7.90931C230.167 7.89803 230.11 7.87422 230.05 7.87422C229.907 7.87422 229.764 7.8855 229.621 7.89302C228.981 7.92309 228.341 7.95942 227.697 7.98197C227.424 7.992 227.351 8.04964 227.234 8.09725C227.143 8.13358 227.039 8.14861 226.879 8.15363C226.723 8.15864 226.611 8.15237 226.49 8.11979C226.334 8.07719 226.157 8.05088 225.914 8.06842C225.633 8.08847 225.348 8.09725 225.058 8.11103C224.911 8.11729 224.798 8.13984 224.751 8.18495C224.742 8.19247 224.833 8.21127 224.885 8.22254C225.058 8.26013 225.222 8.30398 225.417 8.3303C225.616 8.35661 225.832 8.32653 226.04 8.31901C226.113 8.3165 226.183 8.30899 226.252 8.31025C226.317 8.3115 226.395 8.31777 226.442 8.32904C226.667 8.38543 226.905 8.42427 227.216 8.39044C227.485 8.40672 227.623 8.51072 227.965 8.48315C228.172 8.46686 228.389 8.45935 228.605 8.45308C228.661 8.45183 228.722 8.47439 228.782 8.48566C228.955 8.51698 229.094 8.5671 229.353 8.5458C229.63 8.52325 229.924 8.51949 230.205 8.50195C230.361 8.49193 230.474 8.5007 230.595 8.53327C230.75 8.57462 230.928 8.60594 231.17 8.58589C231.378 8.56835 231.598 8.56459 231.81 8.55331C232.087 8.53953 232.087 8.54078 232.58 8.61847C232.637 8.62724 232.71 8.63726 232.771 8.63476C233.13 8.61972 233.484 8.60092 233.843 8.58589C233.982 8.57962 234.116 8.59591 234.211 8.63225C234.25 8.64728 234.237 8.67236 234.25 8.69366C233.536 8.72749 232.822 8.7563 232.113 8.79765C231.845 8.81393 231.724 8.76256 231.546 8.73374C231.486 8.72372 231.421 8.70242 231.365 8.70493C230.863 8.72623 230.366 8.74877 229.868 8.77634C229.712 8.78511 229.596 8.7801 229.479 8.74376C229.18 8.64728 228.817 8.69991 228.48 8.71369C228.22 8.72372 228.138 8.76256 228.168 8.84526C228.207 8.94299 228.363 8.97306 228.761 8.95552C228.903 8.94925 229.046 8.94048 229.189 8.93547C229.327 8.93046 229.453 8.94674 229.565 8.98057C229.673 9.0144 229.803 9.03194 229.937 9.02693C230.223 9.01565 230.513 9.00438 230.789 8.98559C231.019 8.97055 231.209 8.98308 231.369 9.02944C231.546 9.08081 231.754 9.06953 231.962 9.05825C232.446 9.0332 232.45 9.03446 232.753 9.0971C232.814 9.10963 232.874 9.13344 232.931 9.13219C233.428 9.11339 233.93 9.0971 234.419 9.06703C234.674 9.052 234.821 9.09209 234.99 9.12466C235.05 9.13594 235.111 9.161 235.167 9.1585C235.526 9.14471 235.885 9.13093 236.235 9.10712C236.4 9.09584 236.499 9.10336 236.633 9.13343C236.953 9.20735 236.962 9.20485 237.416 9.18104C237.555 9.17352 237.706 9.15975 237.836 9.16977C237.966 9.17979 238.07 9.21613 238.191 9.23869C238.247 9.24871 238.316 9.26248 238.377 9.25998C238.662 9.24995 238.948 9.23493 239.233 9.22114C239.501 9.20736 239.501 9.20862 240.003 9.2863C240.206 9.31888 240.418 9.29131 240.622 9.28128C240.842 9.27001 241.041 9.27001 241.21 9.31888C241.379 9.36774 241.582 9.36523 241.798 9.3552C242.002 9.34518 242.209 9.31763 242.417 9.35146C242.893 9.42914 242.893 9.43038 243.187 9.41534C243.615 9.39404 244.039 9.374 244.472 9.3552C244.528 9.3527 244.601 9.36774 244.657 9.37776C244.779 9.40032 244.882 9.4379 245.012 9.44667C245.142 9.45669 245.293 9.44166 245.432 9.43414C245.877 9.41033 245.908 9.40157 246.206 9.48426C246.457 9.55192 246.768 9.45419 247.002 9.53187C247.136 9.57573 247.318 9.61081 247.569 9.58951C247.776 9.57196 247.993 9.56695 248.209 9.55693C248.551 9.54064 248.551 9.5419 248.983 9.61708C249.039 9.6271 249.113 9.63962 249.169 9.63712C249.455 9.62709 249.745 9.61833 250.021 9.59578C250.346 9.56946 250.553 9.61708 250.796 9.66344C250.986 9.69978 251.211 9.6697 251.414 9.65717C251.635 9.64464 251.834 9.64839 251.998 9.69726C252.171 9.74738 252.374 9.74111 252.591 9.73109C252.794 9.72232 253.002 9.6935 253.209 9.72858C253.655 9.80626 253.655 9.80626 253.979 9.79123C254.265 9.77745 254.55 9.76242 254.836 9.75239C254.892 9.74989 254.961 9.76617 255.017 9.77745C255.139 9.8 255.242 9.8376 255.372 9.84637C255.502 9.85514 255.653 9.83885 255.796 9.83259C255.939 9.82632 256.09 9.80752 256.22 9.81504C256.35 9.82256 256.471 9.85389 256.575 9.88145C256.696 9.91403 256.808 9.91778 256.973 9.90525C257.18 9.88896 257.397 9.88521 257.608 9.87644C257.725 9.90024 257.846 9.92404 257.959 9.95036C258.076 9.97792 258.201 9.97542 258.361 9.96665C258.893 9.93657 258.898 9.94034 259.343 10.018C259.546 10.0531 259.758 10.0243 259.962 10.0155C260.178 10.0055 260.381 10.0005 260.55 10.0506C260.714 10.0982 260.918 10.1045 261.134 10.0894C261.272 10.0794 261.419 10.0732 261.562 10.0694C261.627 10.0681 261.705 10.0732 261.753 10.0832C261.982 10.1358 262.207 10.1834 262.522 10.1496C262.799 10.1596 262.938 10.2624 263.271 10.2423C263.552 10.2248 263.846 10.221 264.123 10.1984C264.378 10.1784 264.56 10.2135 264.69 10.2573C264.923 10.335 265.252 10.2298 265.486 10.3062C265.62 10.3501 265.793 10.3851 266.052 10.3663C266.338 10.3463 266.429 10.3726 266.511 10.4515C266.558 10.4966 266.55 10.533 266.463 10.5681C266.377 10.6044 266.282 10.5981 266.143 10.5568C265.983 10.5104 265.793 10.5017 265.563 10.5117C265.339 10.5217 265.2 10.4566 265.014 10.4315C264.828 10.4052 264.608 10.449 264.413 10.4152C263.954 10.3363 263.954 10.3363 263.643 10.3513C263.431 10.3613 263.21 10.3663 263.003 10.3839C262.756 10.4052 262.596 10.3663 262.427 10.3313C262.367 10.3187 262.306 10.2949 262.254 10.2962C261.757 10.315 261.255 10.3325 260.762 10.3638C260.502 10.3801 260.364 10.335 260.191 10.3037C260.13 10.2924 260.065 10.2699 260.014 10.2724C259.585 10.2899 259.161 10.3125 258.733 10.3338C258.651 10.3676 258.56 10.4002 258.482 10.4365C258.4 10.4741 258.288 10.4904 258.123 10.4891C257.851 10.4891 257.583 10.5418 257.31 10.4754C257.029 10.4077 257.007 10.4115 256.735 10.4277C256.389 10.449 256.021 10.444 255.697 10.4929C255.64 10.5017 255.58 10.5255 255.58 10.543C255.575 10.5543 255.666 10.5706 255.723 10.5806C255.913 10.6107 256.133 10.5668 256.324 10.5981C256.449 10.6182 256.553 10.6482 256.678 10.6695C256.73 10.6783 256.808 10.6771 256.877 10.6758C256.951 10.6746 257.02 10.6658 257.089 10.6671C257.154 10.6683 257.224 10.6758 257.276 10.6871C257.513 10.7347 257.764 10.7786 257.976 10.8349C258.184 10.8901 258.378 10.8525 258.586 10.85C259.417 10.9377 259.417 10.9389 259.975 10.9114C260.113 10.9051 260.256 10.8976 260.399 10.8988C260.459 10.8988 260.515 10.9214 260.576 10.9339C260.749 10.9715 260.913 11.0053 261.156 10.9853C261.363 10.9678 261.584 10.964 261.796 10.9527C262.081 10.9389 262.081 10.9389 262.566 11.0179C262.687 11.0379 262.817 11.0354 262.972 11.0254C263.106 11.0166 263.245 11.0354 263.34 11.0718C263.379 11.0868 263.366 11.1119 263.379 11.1332C262.951 11.1532 262.518 11.167 262.103 11.1971C261.835 11.2158 261.714 11.162 261.536 11.1332C261.476 11.1231 261.411 11.1018 261.355 11.1043C260.931 11.1231 260.507 11.1444 260.083 11.1695C260.031 11.172 259.966 11.2008 259.962 11.2183C259.953 11.2509 260.061 11.2822 260.217 11.281C260.424 11.2797 260.628 11.2584 260.814 11.3098C260.97 11.3549 261.164 11.375 261.393 11.3549C261.532 11.3436 261.679 11.3436 261.817 11.3336C262.185 11.3035 262.518 11.3098 262.795 11.395C263.007 11.4176 263.215 11.3963 263.418 11.385C263.569 11.3762 263.716 11.3674 263.824 11.3913C264.054 11.4414 264.279 11.4915 264.594 11.4577C264.936 11.4927 265.196 11.5667 265.481 11.6268C265.615 11.6556 265.719 11.6719 265.875 11.6531C265.94 11.6456 266.018 11.6456 266.087 11.6418C266.23 11.6356 266.381 11.6168 266.511 11.6243C266.641 11.6331 266.749 11.6694 266.865 11.692C266.922 11.7032 266.987 11.722 267.043 11.7208C267.259 11.7145 267.471 11.702 267.683 11.692C267.895 11.6832 268.107 11.6744 268.319 11.6657C268.496 11.6982 268.678 11.7308 268.855 11.7634C269.141 11.7496 269.426 11.7358 269.707 11.7233C270.023 11.7083 270.023 11.7095 270.477 11.7872C270.681 11.8223 270.897 11.7997 271.092 11.7834C271.416 11.7571 271.632 11.8047 271.862 11.8549C271.909 11.8649 271.996 11.8711 272.052 11.8661C272.277 11.8486 272.471 11.8624 272.636 11.9087C272.753 11.9413 272.869 11.9563 273.012 11.9501C273.51 11.9263 274.007 11.9012 274.505 11.8799C274.565 11.8774 274.634 11.8887 274.691 11.8987C275.132 11.9751 275.136 11.9789 275.46 11.9588C275.75 11.9413 276.019 11.9338 276.248 12.0027C276.295 12.0177 276.369 12.039 276.421 12.0378C276.775 12.0253 277.135 12.0115 277.485 11.9902C277.645 11.9801 277.757 11.9839 277.883 12.0127C278.043 12.0491 278.186 12.0929 278.45 12.0766C279.181 12.0303 279.185 12.0378 280.05 12.1242C280.111 12.1305 280.193 12.1205 280.262 12.1155C280.409 12.1029 280.517 12.1205 280.647 12.1493C280.937 12.2144 280.945 12.2107 281.222 12.1969C281.434 12.1856 281.655 12.1831 281.862 12.1643C282.183 12.1368 282.395 12.1856 282.632 12.232C282.823 12.2683 283.043 12.2383 283.247 12.227C283.467 12.2144 283.666 12.2182 283.831 12.2658C283.943 12.2984 284.064 12.3159 284.207 12.3097C284.704 12.2871 285.202 12.2621 285.699 12.2395C285.76 12.237 285.833 12.247 285.89 12.2558C286.383 12.3335 286.383 12.3372 286.872 12.3084C287.027 12.2997 287.157 12.2971 287.274 12.3235C287.386 12.3485 287.508 12.3723 287.624 12.3961C287.836 12.3874 288.053 12.3849 288.26 12.3698C288.42 12.3585 288.533 12.3636 288.658 12.3899C288.822 12.4237 288.961 12.4826 289.22 12.4538C289.355 12.44 289.51 12.4437 289.644 12.4312C289.804 12.4149 289.913 12.4249 290.038 12.4575C290.194 12.4964 290.354 12.5364 290.605 12.5164C290.881 12.4938 291.176 12.4901 291.457 12.4726C291.612 12.4625 291.721 12.4726 291.846 12.5051C292.002 12.5465 292.179 12.5728 292.421 12.5565C292.915 12.5252 292.919 12.5314 293.399 12.6104C293.52 12.6304 293.65 12.6279 293.806 12.6179C293.94 12.6091 294.078 12.6279 294.173 12.6643C294.264 12.7044 294.255 12.7294 294.264 12.7507ZM255.718 1.45033C255.575 1.45659 255.433 1.46411 255.225 1.3551C255.212 1.33631 255.221 1.31376 255.191 1.29747C255.121 1.26364 255.013 1.23984 254.883 1.23608C254.65 1.23107 254.369 1.27366 254.373 1.30624C254.377 1.3338 254.451 1.3576 254.594 1.38016C254.654 1.38893 254.702 1.40396 254.758 1.41399C254.922 1.44281 255.052 1.4992 255.29 1.47038C255.247 1.3927 255.268 1.43154 255.29 1.47038C255.268 1.51799 255.333 1.55182 255.489 1.56561C255.532 1.56936 255.597 1.56685 255.632 1.55934C255.766 1.53177 255.787 1.49419 255.688 1.39521C255.671 1.41149 255.684 1.4403 255.723 1.44782C255.761 1.45534 255.857 1.44908 255.904 1.44031C256.025 1.4165 256.086 1.38518 256.056 1.35887C256.038 1.34508 255.956 1.32754 255.904 1.32754C255.813 1.32754 255.731 1.3551 255.718 1.45033ZM290.695 15.9808C290.38 16.0046 290.016 15.9959 289.701 16.0447C289.644 16.0535 289.588 16.076 289.584 16.0936C289.579 16.1049 289.666 16.1212 289.718 16.1299C289.835 16.15 289.964 16.1437 290.116 16.1374C290.345 16.1287 290.479 16.1863 290.657 16.2151C290.713 16.2239 290.786 16.2302 290.847 16.2276C291.197 16.2126 291.543 16.1963 291.894 16.1788C291.954 16.175 292.019 16.1663 292.071 16.155C292.244 16.1186 292.227 16.0948 292.058 16.0673C291.872 16.0372 291.725 15.9871 291.535 15.9633C291.262 15.9294 290.985 15.9746 290.695 15.9808ZM266.13 16.8955C265.918 16.9055 265.71 16.9155 265.498 16.9256C265.429 16.9293 265.356 16.9306 265.291 16.9356C265.157 16.9443 265.057 16.9706 264.992 17.012C265.092 17.0446 265.213 17.0634 265.347 17.0596C265.559 17.0521 265.767 17.0358 265.979 17.032C266.208 17.027 266.342 17.0834 266.519 17.1122C266.576 17.121 266.645 17.1223 266.71 17.1235C267.03 17.1285 267.224 17.0634 267.164 16.9719C267.121 16.9005 266.956 16.8579 266.757 16.8667C266.55 16.8754 266.338 16.8855 266.13 16.8955ZM292.175 14.129C292.227 14.1077 292.283 14.0926 292.309 14.0738C292.387 14.0099 292.357 13.9623 292.214 13.9122C292.041 13.8508 291.829 13.8921 291.634 13.8984C291.587 13.8997 291.535 13.926 291.509 13.9423C291.491 13.9535 291.491 13.9774 291.517 13.9836C291.729 14.0337 291.954 14.0801 292.175 14.129ZM254.65 10.4277C254.442 10.4378 254.23 10.4453 254.023 10.4591C253.971 10.4628 253.923 10.4866 253.893 10.5029C253.837 10.533 253.897 10.5743 254.074 10.5781C254.278 10.5831 254.49 10.5618 254.702 10.5518C254.97 10.5393 255.13 10.4929 255.03 10.4528C254.935 10.4139 254.806 10.4064 254.65 10.4277ZM26.9514 7.75018C27.0898 7.74391 27.2325 7.7389 27.3709 7.73013C27.5007 7.72136 27.6003 7.69379 27.6652 7.65245C27.557 7.61987 27.4359 7.60233 27.3018 7.60609C27.0898 7.6136 26.8822 7.62363 26.6746 7.63616C26.5448 7.64367 26.4194 7.67124 26.3891 7.71384C26.3588 7.74642 26.6486 7.76521 26.9514 7.75018ZM236.357 7.55722C236.413 7.5685 236.469 7.59105 236.525 7.59105C236.664 7.59105 236.806 7.58353 236.936 7.571C236.992 7.56599 237.036 7.54344 237.062 7.5259C237.079 7.51462 237.075 7.49458 237.049 7.48455C236.923 7.42441 236.421 7.44571 236.339 7.51462C236.331 7.52715 236.352 7.54344 236.357 7.55722ZM222.709 0.696049C222.722 0.716096 222.726 0.736141 222.744 0.756188C222.778 0.793777 222.873 0.821347 223.012 0.840141C223.12 0.808818 223.176 0.77374 223.172 0.736152C223.168 0.716105 223.155 0.696045 223.137 0.675997C223.103 0.638409 223.008 0.610854 222.869 0.592059C222.761 0.62213 222.709 0.657207 222.709 0.696049ZM302.171 17.1135C302.133 17.1298 302.094 17.1461 302.05 17.1611C302.167 17.1974 302.275 17.2087 302.358 17.1887C302.409 17.1761 302.44 17.1573 302.479 17.1411C302.362 17.1047 302.258 17.0947 302.171 17.1135ZM299.481 17.2839C299.537 17.2952 299.589 17.3102 299.65 17.3177C299.749 17.3303 299.84 17.3089 299.909 17.2638C299.853 17.2526 299.801 17.2375 299.74 17.23C299.641 17.2175 299.55 17.2388 299.481 17.2839ZM301.185 17.0546C301.155 17.0847 301.216 17.1097 301.376 17.131C301.415 17.1147 301.466 17.0997 301.492 17.0822C301.536 17.0534 301.462 17.027 301.306 17.007C301.263 17.022 301.224 17.0383 301.185 17.0546ZM292.054 15.7039C292.023 15.734 292.084 15.759 292.244 15.7803C292.283 15.7641 292.335 15.749 292.361 15.7315C292.404 15.7027 292.331 15.6764 292.175 15.6563C292.132 15.6713 292.093 15.6876 292.054 15.7039ZM279.613 6.83803C279.574 6.85431 279.535 6.8706 279.492 6.88564C279.609 6.92197 279.717 6.93325 279.799 6.9132C279.851 6.90067 279.881 6.88188 279.92 6.86559C279.803 6.82925 279.7 6.81923 279.613 6.83803ZM267.696 2.13444C267.8 2.14321 267.886 2.12567 267.96 2.07931C267.904 2.06804 267.852 2.053 267.791 2.04548C267.692 2.03295 267.601 2.05426 267.532 2.09937C267.588 2.11189 267.644 2.12316 267.696 2.13444ZM261.368 1.84C261.329 1.85628 261.29 1.87257 261.246 1.88761C261.363 1.92394 261.471 1.93522 261.554 1.91517C261.605 1.90264 261.636 1.88385 261.675 1.86756C261.558 1.83122 261.454 1.82245 261.368 1.84ZM218.453 0.694795C218.414 0.711083 218.375 0.727372 218.332 0.742408C218.448 0.778743 218.557 0.790016 218.639 0.769969C218.691 0.757439 218.721 0.738644 218.76 0.722356C218.643 0.68602 218.539 0.677253 218.453 0.694795ZM4.76937 10.8888C4.71314 10.8775 4.65695 10.8663 4.60505 10.8537C4.4796 10.8876 4.44068 10.9189 4.50989 10.9427C4.55315 10.9577 4.61799 10.9665 4.67422 10.9778C4.80399 10.944 4.83426 10.9139 4.76937 10.8888Z" fill="#4F9CF9"/>
<path d="M29.8578 6.46442C29.3603 6.48822 28.8672 6.51829 28.3698 6.53332C28.1059 6.54084 28.0108 6.59472 27.9027 6.64484C27.8162 6.68493 27.7167 6.69746 27.5566 6.70498C26.207 6.76637 24.8617 6.83153 23.5164 6.89543C23.3477 6.87914 23.2655 6.85283 23.3045 6.82151C23.3261 6.80271 23.378 6.7764 23.4299 6.77389C24.3513 6.72754 25.2683 6.67992 26.194 6.64358C26.4578 6.63356 26.5314 6.57843 26.6655 6.53332C26.7088 6.51829 26.7434 6.49573 26.7996 6.48696C26.8559 6.47694 26.938 6.4782 27.0116 6.47569C28.4996 6.40427 29.9877 6.33411 31.4757 6.2627C31.6444 6.27898 31.7266 6.30529 31.6876 6.33662C31.666 6.35541 31.6141 6.38172 31.5622 6.38423C30.9912 6.41054 30.4244 6.43685 29.8578 6.46442Z" fill="#4F9CF9"/>
<path d="M302.228 13.1366C302.003 13.1517 301.718 13.173 301.484 13.1003C301.372 13.0652 301.251 13.054 301.104 13.0615C300.892 13.074 300.675 13.084 300.459 13.0915C300.403 13.0928 300.329 13.079 300.273 13.0677C300.152 13.0452 300.048 13.0076 299.918 12.9976C299.789 12.9875 299.633 13.0151 299.499 13.0088C299.321 13.0001 299.248 12.9662 299.295 12.9349C299.321 12.9174 299.373 12.8923 299.43 12.8886C300.23 12.8422 300.234 12.8422 300.459 12.8873C300.632 12.9224 300.792 12.9612 301.039 12.9399C301.246 12.9224 301.467 12.9186 301.679 12.9073C301.973 12.8923 301.973 12.8936 302.449 12.9725C302.57 12.9926 302.7 12.9913 302.855 12.98C302.99 12.9713 303.119 12.9913 303.227 13.0251C303.158 13.0677 303.059 13.0953 302.925 13.1028C302.708 13.1153 302.496 13.1241 302.228 13.1366Z" fill="#4F9CF9"/>
<path d="M294.266 12.7506C294.811 12.7243 295.36 12.7017 295.905 12.6717C296.13 12.6591 296.307 12.6729 296.463 12.7155C296.632 12.7619 296.822 12.7581 297.03 12.7494C297.16 12.7443 297.285 12.7644 297.372 12.7995C297.406 12.8132 297.397 12.8383 297.41 12.8584C296.935 12.8809 296.454 12.9047 295.974 12.9248C295.918 12.9273 295.849 12.9147 295.797 12.9047C295.68 12.8834 295.581 12.8458 295.455 12.8383C295.187 12.8208 294.919 12.8546 294.646 12.8609C294.517 12.8634 294.391 12.8446 294.305 12.8108C294.27 12.7945 294.279 12.7706 294.266 12.7506Z" fill="#4F9CF9"/>
<path d="M97.2959 1.97767C97.8626 1.9501 98.4292 1.92381 98.9959 1.89624C99.1646 1.91378 99.2425 1.93884 99.2079 1.97016C99.1862 1.98895 99.1343 2.01527 99.0824 2.01777C97.9491 2.07416 96.8158 2.12802 95.6868 2.1819C95.5181 2.16436 95.4403 2.13931 95.4749 2.10798C95.4965 2.08919 95.5484 2.06287 95.6003 2.06037C96.1627 2.03155 96.7293 2.00523 97.2959 1.97767Z" fill="#4F9CF9"/>
<path d="M9.97787 8.94078C9.72266 8.94328 9.45452 8.98964 9.16903 8.95456C9.11279 8.94829 9.03491 8.92824 9.03924 8.91696C9.04789 8.89817 9.0998 8.87436 9.15604 8.86684C9.4026 8.83552 9.70975 8.83176 9.83519 8.74406C9.89575 8.69895 10.0082 8.68392 10.1596 8.67515C10.3197 8.66513 10.4321 8.66888 10.5575 8.69519C10.7219 8.72902 10.8604 8.79167 11.1199 8.75909C11.1329 8.77914 11.1631 8.80169 11.1501 8.82048C11.1371 8.83928 11.081 8.85682 11.0291 8.8706C10.9815 8.88313 10.9166 8.89441 10.856 8.89817C10.5705 8.9132 10.285 8.92574 9.97787 8.94078Z" fill="#4F9CF9"/>
<path d="M234.947 8.68871C235.159 8.67869 235.38 8.67368 235.587 8.65613C235.752 8.64235 235.856 8.65112 235.985 8.68119C236.206 8.73381 236.219 8.72881 236.76 8.73633C236.82 8.73758 236.894 8.75636 236.928 8.77265C236.95 8.78142 236.92 8.80524 236.894 8.81777C236.855 8.83406 236.799 8.85535 236.747 8.85535C236.405 8.85911 236.059 8.93304 235.726 8.84784C235.557 8.80524 235.371 8.78518 235.142 8.80397C235.003 8.81525 234.856 8.82027 234.714 8.82528C234.575 8.83029 234.433 8.81651 234.346 8.77892C234.221 8.72379 234.294 8.7025 234.519 8.70626C234.662 8.70876 234.805 8.69498 234.947 8.68871Z" fill="#4F9CF9"/>
<path d="M313.343 17.3255C313.616 17.3129 313.888 17.2979 314.165 17.2879C314.222 17.2854 314.291 17.2992 314.343 17.3079C314.55 17.3455 314.52 17.4094 314.529 17.4658C314.533 17.5247 314.053 17.5723 313.85 17.5322C313.625 17.4871 313.421 17.4357 313.11 17.4633C312.989 17.4733 312.846 17.4508 312.768 17.4144C312.651 17.3618 312.716 17.3405 312.937 17.3443C313.067 17.3468 313.205 17.333 313.343 17.3255Z" fill="#4F9CF9"/>
<path d="M176.014 0.271338C176.295 0.257556 176.576 0.236266 176.857 0.235013C177.022 0.23376 177.104 0.2751 177.065 0.305171C177.043 0.323965 176.991 0.350277 176.939 0.352783C176.377 0.382854 175.815 0.407918 175.252 0.435483C175.088 0.417941 175.006 0.391633 175.045 0.361563C175.066 0.342768 175.118 0.317709 175.17 0.31395C175.451 0.296408 175.732 0.285121 176.014 0.271338Z" fill="#4F9CF9"/>
<path d="M307.95 13.247C308.222 13.2344 308.499 13.2156 308.772 13.2094C308.914 13.2069 309.027 13.2357 309.044 13.2683C309.053 13.2833 308.984 13.3096 308.927 13.3159C308.538 13.3585 308.118 13.3635 307.712 13.3848C307.582 13.3911 307.444 13.371 307.366 13.3359C307.249 13.2821 307.314 13.262 307.535 13.2658C307.673 13.267 307.811 13.2532 307.95 13.247Z" fill="#4F9CF9"/>
<path d="M242.092 8.85784C242.231 8.85158 242.373 8.83529 242.507 8.8403C242.65 8.84656 242.741 8.8829 242.784 8.91924C242.832 8.96058 242.827 8.99943 242.784 9.03451C242.715 9.09465 242.646 9.09215 242.486 9.05206C242.239 8.98941 242.222 8.99692 241.733 8.99943C241.677 8.99943 241.608 8.98063 241.564 8.96434C241.499 8.93928 241.534 8.90045 241.685 8.87789C241.798 8.86161 241.954 8.86411 242.092 8.85784Z" fill="#4F9CF9"/>
<path d="M297.815 12.8362C298.018 12.8261 298.221 12.8099 298.425 12.8099C298.567 12.8086 298.68 12.8374 298.693 12.8687C298.697 12.8838 298.632 12.9088 298.58 12.9164C298.334 12.9502 298.057 12.9527 297.789 12.964C297.663 12.969 297.525 12.9489 297.447 12.9138C297.33 12.8612 297.4 12.8374 297.611 12.8449C297.676 12.8474 297.746 12.8399 297.815 12.8362Z" fill="#4F9CF9"/>
<path d="M265.818 11.2987C265.515 11.3137 265.23 11.295 265.251 11.2624C265.281 11.2198 265.407 11.1922 265.537 11.1847C265.744 11.1722 265.952 11.1621 266.164 11.1546C266.298 11.1496 266.419 11.1684 266.527 11.201C266.462 11.2411 266.363 11.2699 266.233 11.2787C266.099 11.2874 265.956 11.2924 265.818 11.2987Z" fill="#4F9CF9"/>
<path d="M263.834 11.1383C264.038 11.1283 264.241 11.112 264.444 11.112C264.587 11.1107 264.699 11.1395 264.712 11.1709C264.717 11.1859 264.652 11.211 264.6 11.2185C264.353 11.2523 264.076 11.2548 263.808 11.2661C263.683 11.2711 263.544 11.2511 263.467 11.216C263.35 11.1633 263.419 11.1395 263.631 11.1471C263.696 11.1496 263.765 11.142 263.834 11.1383Z" fill="#4F9CF9"/>
<path d="M239.639 8.84793C239.842 8.8379 240.046 8.8216 240.249 8.82035C240.392 8.8191 240.504 8.84793 240.517 8.87925C240.521 8.89429 240.457 8.91809 240.405 8.92687C240.158 8.96069 239.881 8.9632 239.613 8.97448C239.488 8.97949 239.349 8.95944 239.271 8.92436C239.154 8.87173 239.224 8.84792 239.436 8.85544C239.5 8.85794 239.57 8.85043 239.639 8.84793Z" fill="#4F9CF9"/>
<path d="M238.502 8.77398C238.719 8.76396 238.788 8.75769 238.857 8.75769C238.987 8.75769 239.121 8.77273 239.199 8.80907C239.316 8.86169 239.246 8.87673 239.034 8.87924C238.762 8.88174 238.494 8.90806 238.221 8.91307C238.078 8.91558 237.966 8.88549 237.957 8.85417C237.953 8.83913 238.018 8.81282 238.07 8.80781C238.251 8.78902 238.45 8.77774 238.502 8.77398Z" fill="#4F9CF9"/>
<path d="M262.072 1.40264C261.934 1.4089 261.787 1.42645 261.657 1.42018C261.484 1.41141 261.415 1.37758 261.458 1.34626C261.484 1.32872 261.531 1.30366 261.583 1.2999C261.86 1.28236 262.141 1.27107 262.418 1.25854C262.583 1.27734 262.656 1.30365 262.613 1.33497C262.587 1.35251 262.539 1.37632 262.487 1.38133C262.353 1.39386 262.21 1.39637 262.072 1.40264Z" fill="#4F9CF9"/>
<path d="M94.1928 2.12543C94.3269 2.12418 94.448 2.14047 94.5518 2.17179C94.4869 2.21189 94.3918 2.2382 94.262 2.24947C94.1971 2.25449 94.1236 2.25824 94.0544 2.25949C93.9203 2.262 93.7991 2.24446 93.6953 2.21313C93.7602 2.17304 93.8597 2.14673 93.9851 2.13545C94.05 2.13044 94.1236 2.12919 94.1928 2.12543Z" fill="#4F9CF9"/>
<path d="M306.473 13.2421C306.468 13.2058 306.732 13.1644 306.97 13.1657C307.096 13.1669 307.225 13.1845 307.299 13.2183C307.411 13.2697 307.346 13.2897 307.134 13.286C307.005 13.2834 306.866 13.3047 306.737 13.301C306.589 13.2997 306.503 13.2722 306.473 13.2421Z" fill="#4F9CF9"/>
<path d="M243.345 9.00952C243.341 8.99574 243.319 8.97946 243.332 8.96693C243.414 8.89801 243.912 8.87671 244.042 8.93686C244.063 8.94813 244.072 8.96692 244.055 8.9782C244.029 8.99574 243.981 9.01829 243.929 9.0233C243.795 9.03583 243.657 9.0421 243.518 9.04335C243.458 9.04335 243.401 9.02205 243.345 9.00952Z" fill="#4F9CF9"/>
<path d="M11.5173 8.74016C11.0068 8.76647 10.9982 8.76396 11.089 8.70131C11.1712 8.64492 11.3226 8.6111 11.5433 8.6111C11.6081 8.6111 11.6773 8.6086 11.7336 8.61361C11.7941 8.61987 11.8807 8.63239 11.8937 8.64742C11.9196 8.67624 11.846 8.70757 11.7162 8.72887C11.66 8.73889 11.5865 8.7364 11.5173 8.74016Z" fill="#4F9CF9"/>
<path d="M100.583 1.94913C100.431 1.97043 100.301 1.96292 100.206 1.92282C100.111 1.88273 100.263 1.83511 100.526 1.82384C100.596 1.82133 100.669 1.81131 100.734 1.81633C100.799 1.82009 100.864 1.83511 100.903 1.85014C100.972 1.8752 100.929 1.90904 100.79 1.93786C100.734 1.94914 100.652 1.94663 100.583 1.94913Z" fill="#4F9CF9"/>
<path d="M305.572 13.1478C305.61 13.1315 305.649 13.1153 305.693 13.1002C305.853 13.1215 305.922 13.1466 305.879 13.1754C305.853 13.1929 305.801 13.208 305.762 13.2243C305.602 13.203 305.537 13.1767 305.572 13.1478Z" fill="#4F9CF9"/>
<path d="M18.3691 23.0035C18.3691 22.9884 18.4297 22.9646 18.4773 22.9596C18.5681 22.9509 18.6805 22.9684 18.7584 23.0035C18.8665 23.0536 18.8017 23.0799 18.6027 23.0661C18.4643 23.0561 18.3691 23.031 18.3691 23.0035Z" fill="#4F9CF9"/>
<path d="M245.108 7.843C245.164 7.85428 245.22 7.86556 245.272 7.87809C245.199 7.92445 245.108 7.94449 245.013 7.93196C244.952 7.92444 244.9 7.9094 244.844 7.89812C244.917 7.85177 245.004 7.83423 245.108 7.843Z" fill="#4F9CF9"/>
<path d="M243.611 7.78626C243.697 7.76746 243.801 7.7775 243.922 7.81383C243.883 7.83012 243.849 7.84892 243.801 7.86145C243.719 7.88149 243.611 7.87146 243.494 7.83387C243.529 7.81883 243.568 7.80254 243.611 7.78626Z" fill="#4F9CF9"/>
<path d="M242.463 7.84149C242.519 7.85277 242.576 7.86405 242.627 7.87658C242.554 7.92293 242.467 7.94297 242.368 7.93044C242.307 7.92293 242.255 7.90789 242.199 7.89661C242.273 7.85025 242.359 7.83147 242.463 7.84149Z" fill="#4F9CF9"/>
<path d="M241.621 7.77532C241.685 7.80038 241.651 7.83045 241.525 7.86428C241.469 7.853 241.404 7.84424 241.361 7.8292C241.292 7.8054 241.326 7.77406 241.456 7.74023C241.508 7.75276 241.564 7.76404 241.621 7.77532Z" fill="#4F9CF9"/>
</svg>
