<svg width="19" height="20" viewBox="0 0 19 20" fill="none" xmlns="http://www.w3.org/2000/svg">
<path d="M9.48901 0.890625C9.14844 0.890625 8.80811 0.908934 8.46948 0.945432C8.1591 0.977135 7.85253 1.02913 7.55008 1.09222C7.49155 1.10446 7.43298 1.11738 7.37445 1.1309C5.59245 1.53662 3.96529 2.44773 2.68809 3.75497C2.56932 3.87671 2.45305 4.00206 2.33935 4.13097C-1.11075 8.09181 -0.696703 14.0996 3.26417 17.5497C7.05619 20.8527 12.7641 20.6329 16.291 17.0481C16.41 16.9264 16.5262 16.801 16.6397 16.6721C18.1623 14.9382 19.0013 12.7091 19 10.4015C19 5.14876 14.7418 0.890585 9.48901 0.890625ZM3.11069 4.23052C3.16078 4.17852 3.21277 4.12875 3.26382 4.07834C3.32278 4.02032 3.38143 3.96199 3.44167 3.90588C3.49461 3.85642 3.54914 3.80886 3.60336 3.76068C3.66454 3.70646 3.72541 3.65225 3.78819 3.59994C3.84335 3.55334 3.9001 3.50863 3.95653 3.46362C4.01994 3.41289 4.08334 3.36217 4.14865 3.31334C4.20635 3.26991 4.265 3.22774 4.32397 3.18653C4.3896 3.13961 4.45554 3.09142 4.52243 3.04767C4.58235 3.00709 4.6429 2.96778 4.70377 2.92878C4.77162 2.88535 4.83978 2.84255 4.90858 2.80197C4.97052 2.765 5.03285 2.72862 5.09562 2.69291C5.16581 2.65297 5.23627 2.61397 5.30709 2.57593C5.37049 2.54212 5.4339 2.50903 5.4973 2.4767C5.56959 2.44024 5.6425 2.40505 5.71574 2.37049C5.77915 2.34037 5.84509 2.31025 5.9104 2.28172C5.9849 2.25002 6.06035 2.21832 6.13581 2.18661C6.20143 2.15966 6.26674 2.13335 6.333 2.10799C6.40972 2.07882 6.48739 2.05156 6.56507 2.02429C6.63133 2.00115 6.69759 1.978 6.7648 1.95613C6.84374 1.93077 6.92331 1.90731 7.0032 1.88416C7.0701 1.86482 7.13636 1.84485 7.20357 1.82678C7.22925 1.82012 7.25493 1.81473 7.28061 1.80808C6.34219 2.71927 5.64579 3.85012 5.25446 5.09823C4.50198 4.89977 3.77352 4.61944 3.08216 4.26222C3.09262 4.25112 3.1015 4.24003 3.11069 4.23052ZM2.6548 4.74094C3.41635 5.15355 4.22391 5.47495 5.06075 5.69837C4.65051 7.12486 4.43517 8.60029 4.42066 10.0845H0.619454C0.688528 8.12727 1.40427 6.24815 2.6548 4.74094ZM2.6548 16.0621C1.40435 14.5549 0.688607 12.6758 0.619454 10.7186H4.42066C4.43517 12.2028 4.65047 13.6782 5.06075 15.1047C4.22395 15.3282 3.41639 15.6496 2.6548 16.0621ZM7.20167 18.9776C7.13763 18.9614 7.07137 18.9405 7.00542 18.9211C6.92521 18.8977 6.84469 18.8742 6.76543 18.8485C6.69854 18.827 6.6326 18.8038 6.56665 18.7807C6.48866 18.7537 6.41067 18.7262 6.33363 18.6967C6.26769 18.6716 6.2027 18.6453 6.13739 18.6187C6.06162 18.587 5.98585 18.5553 5.91071 18.5236C5.84604 18.4951 5.78168 18.4657 5.71764 18.4354C5.64377 18.4006 5.57022 18.3651 5.49572 18.3283C5.43231 18.2966 5.36891 18.2649 5.3055 18.2303C5.23385 18.192 5.16284 18.1527 5.09182 18.1121C5.02841 18.0769 4.96818 18.0407 4.90699 18.004C4.83724 17.9621 4.76877 17.919 4.70029 17.8749C4.64005 17.8366 4.57981 17.7976 4.52053 17.7576C4.453 17.712 4.38611 17.6644 4.31985 17.6169C4.26183 17.5753 4.20381 17.5338 4.14675 17.4901C4.08112 17.4406 4.01677 17.3896 3.95273 17.3382C3.89661 17.2935 3.84081 17.2491 3.78597 17.2031C3.72256 17.1505 3.66137 17.0957 3.59987 17.0411C3.54597 16.9933 3.49176 16.946 3.43913 16.8972C3.37858 16.8408 3.31993 16.7821 3.26096 16.7241C3.20992 16.6737 3.15793 16.6239 3.10784 16.5723C3.09864 16.5624 3.08977 16.5523 3.08057 16.5428C3.7719 16.1854 4.50036 15.9049 5.25287 15.7064C5.64429 16.9545 6.34065 18.0853 7.27902 18.9966C7.25334 18.9899 7.22735 18.9845 7.20167 18.9776ZM9.17202 19.2534C7.81544 19.0606 6.62625 17.6448 5.87806 15.5539C6.95977 15.3117 8.06364 15.1818 9.17202 15.1662V19.2534ZM9.17202 14.5322C7.99623 14.5476 6.82539 14.6873 5.67896 14.9487C5.28089 13.5733 5.0709 12.1503 5.05473 10.7186H9.17202V14.5322ZM9.17202 10.0845H5.05473C5.07086 8.65275 5.28085 7.22976 5.67896 5.85435C6.82539 6.11579 7.99627 6.25544 9.17202 6.27093V10.0845ZM9.17202 5.63687C8.0636 5.62141 6.95977 5.49147 5.87806 5.24914C6.62625 3.15831 7.81544 1.74245 9.17202 1.54969V5.63687ZM16.3233 4.74094C17.5738 6.24819 18.2895 8.12731 18.3586 10.0845H14.5574C14.5429 8.60029 14.3276 7.12486 13.9174 5.69837C14.7542 5.47483 15.5617 5.15348 16.3233 4.74094ZM11.7739 1.8252C11.8405 1.84168 11.9067 1.86261 11.9727 1.88194C12.0529 1.9054 12.1334 1.92886 12.2127 1.95454C12.2796 1.9761 12.3455 1.99925 12.4114 2.02239C12.4894 2.04934 12.5674 2.07692 12.6445 2.1064C12.7104 2.13145 12.7754 2.15776 12.8407 2.18439C12.9165 2.2161 12.9923 2.2478 13.0674 2.2795C13.1321 2.30804 13.1964 2.3374 13.2605 2.36764C13.3343 2.40251 13.4079 2.43802 13.4824 2.47479C13.5458 2.5065 13.6092 2.5382 13.6726 2.57276C13.7443 2.61112 13.8153 2.65043 13.8863 2.69101C13.9497 2.7262 14.0099 2.76234 14.0711 2.79912C14.1409 2.84097 14.2093 2.88408 14.2778 2.92815C14.3381 2.96651 14.3983 3.00551 14.4576 3.04545C14.5251 3.0911 14.5917 3.13834 14.6579 3.1859C14.7163 3.22743 14.7743 3.26928 14.8317 3.31271C14.897 3.36185 14.961 3.41289 15.0254 3.46425C15.0812 3.50863 15.1373 3.55302 15.1921 3.59931C15.2555 3.65193 15.3167 3.70678 15.3782 3.76131C15.4321 3.80918 15.4863 3.85642 15.539 3.90524C15.5995 3.96167 15.6582 4.02032 15.7171 4.07834C15.7682 4.12875 15.8202 4.17852 15.8703 4.2302C15.8795 4.24003 15.8883 4.25017 15.8975 4.25968C15.2062 4.61706 14.4777 4.89751 13.7252 5.09601C13.3331 3.84778 12.6358 2.71705 11.6965 1.80617C11.7222 1.81283 11.7482 1.81822 11.7739 1.8252ZM9.80608 1.54969C11.1627 1.74245 12.3518 3.15831 13.1 5.24914C12.0183 5.49135 10.9145 5.6213 9.80608 5.63687V1.54969ZM9.80608 6.27093C10.9819 6.25548 12.1527 6.11583 13.2991 5.85435C13.6972 7.22976 13.9072 8.65275 13.9234 10.0845H9.80608V6.27093ZM9.80608 10.7186H13.9234C13.9072 12.1503 13.6973 13.5733 13.2991 14.9487C12.1527 14.6873 10.9819 14.5476 9.80608 14.5322V10.7186ZM9.80608 19.2534V15.1662C10.9145 15.1817 12.0183 15.3116 13.1 15.5539C12.3518 17.6448 11.1627 19.0606 9.80608 19.2534ZM15.8674 16.5726C15.8173 16.6242 15.7656 16.674 15.7146 16.7244C15.6556 16.7824 15.5967 16.8411 15.5361 16.8975C15.4835 16.9467 15.4293 16.9926 15.3754 17.0418C15.3139 17.0963 15.2527 17.1508 15.1899 17.2035C15.1344 17.2498 15.078 17.2945 15.0216 17.3395C14.9582 17.3902 14.8948 17.4409 14.8295 17.4897C14.7718 17.5332 14.7131 17.5753 14.6541 17.6166C14.5885 17.6635 14.5226 17.7117 14.4557 17.7554C14.3958 17.796 14.3352 17.8353 14.2743 17.874C14.2065 17.9177 14.1381 17.96 14.0692 18.0008C14.0058 18.0379 13.9452 18.074 13.8828 18.1099C13.8126 18.1498 13.742 18.1888 13.671 18.2268C13.6076 18.2606 13.5442 18.2937 13.4808 18.3261C13.4085 18.3625 13.3356 18.3977 13.2624 18.4323C13.199 18.4624 13.133 18.4925 13.0677 18.521C12.9932 18.5527 12.9177 18.5845 12.8423 18.6162C12.7767 18.6428 12.7114 18.6694 12.6454 18.6945C12.5681 18.7239 12.4904 18.7515 12.4124 18.7785C12.3465 18.8016 12.2805 18.8248 12.2136 18.8463C12.1344 18.872 12.0551 18.8955 11.9743 18.9186C11.908 18.9383 11.8414 18.9579 11.7745 18.976C11.7489 18.9826 11.7232 18.988 11.6975 18.9947C12.6359 18.0835 13.3323 16.9527 13.7236 15.7045C14.4761 15.903 15.2046 16.1833 15.8959 16.5405C15.8855 16.552 15.8766 16.5631 15.8674 16.5726ZM16.3233 16.0621C15.5618 15.6495 14.7542 15.3281 13.9174 15.1047C14.3276 13.6782 14.5429 12.2028 14.5574 10.7186H18.3586C18.2896 12.6758 17.5738 14.5549 16.3233 16.0621Z" fill="white"/>
</svg>
