<svg width="328" height="44" viewBox="0 0 328 44" fill="none" xmlns="http://www.w3.org/2000/svg">
<path d="M306.62 23.3086C306.174 23.3441 305.722 23.3685 305.284 23.4218C305 23.4552 304.878 23.3575 304.689 23.3064C304.625 23.2886 304.558 23.253 304.499 23.2575C304.057 23.293 303.614 23.333 303.172 23.373C303.036 23.4596 302.951 23.5751 302.743 23.6173C302.54 23.6573 302.301 23.6573 302.075 23.6773C301.777 23.7017 301.479 23.7261 301.181 23.7484C301.032 23.7595 300.911 23.8017 300.861 23.8816C300.852 23.8949 300.951 23.9282 301.005 23.9482C301.186 24.0149 301.362 24.0904 301.56 24.1415C301.75 24.1903 301.985 24.1104 302.188 24.1726C302.644 24.3125 302.648 24.3103 302.996 24.2836C303.294 24.2592 303.592 24.2325 303.89 24.2148C303.948 24.2103 304.016 24.2436 304.079 24.2614C304.269 24.3103 304.391 24.4213 304.671 24.3791C304.883 24.3458 305.117 24.3391 305.339 24.3214C305.524 24.3858 305.695 24.4591 305.894 24.5102C306.079 24.559 306.133 24.5968 306.034 24.6612C305.943 24.7212 305.817 24.7456 305.65 24.75C305.501 24.7523 305.352 24.7722 305.203 24.7833C305.126 24.79 305.054 24.7945 304.982 24.8011C304.698 24.8256 304.698 24.8256 304.178 24.6834C303.975 24.6279 303.745 24.7056 303.551 24.6523C303.42 24.6168 303.307 24.5635 303.181 24.5257C303.127 24.5102 303.041 24.5079 302.973 24.5124C302.748 24.5279 302.522 24.539 302.305 24.5679C302.152 24.5879 302.062 24.6501 302.08 24.7123C302.084 24.7367 302.192 24.7723 302.256 24.7745C302.4 24.7789 302.553 24.7478 302.693 24.7634C302.829 24.7789 302.969 24.8233 303.068 24.8722C303.271 24.9744 303.501 24.8833 303.695 24.91C303.899 24.9388 304.066 25.0277 304.26 25.081C304.309 25.0943 304.404 25.0721 304.481 25.0654C304.702 25.0499 304.923 25.0366 305.145 25.021C305.33 25.0854 305.528 25.1432 305.695 25.2165C305.998 25.3497 306.323 25.4008 306.715 25.3364C306.936 25.3008 307.153 25.3142 307.329 25.4008C307.51 25.4896 307.717 25.4808 307.948 25.463C308.16 25.4452 308.376 25.3964 308.593 25.4585C309.062 25.5962 309.067 25.6029 309.622 25.5496C309.789 25.5341 309.916 25.5296 310.042 25.5807C310.159 25.6274 310.286 25.6673 310.408 25.7117C310.629 25.6962 310.854 25.6807 311.076 25.6629C311.36 25.6385 311.518 25.6695 311.586 25.7939C311.626 25.8694 311.644 25.9383 311.744 25.9894C311.861 26.0516 311.987 26.0493 312.159 26.0316C312.321 26.016 312.439 25.9916 312.506 25.9116C312.534 25.8783 312.588 25.8472 312.637 25.8206C312.678 25.8006 312.741 25.7695 312.777 25.7739C312.845 25.7828 312.935 25.8072 312.958 25.8361C313.179 26.1049 313.179 26.1071 313.405 26.1848C313.653 26.2714 313.91 26.3492 314.136 26.4469C314.339 26.5335 314.542 26.4958 314.763 26.4958C314.93 26.4958 315.039 26.5535 315.025 26.6113C315.016 26.6446 314.953 26.6934 314.899 26.6979C314.456 26.7423 314.01 26.78 313.563 26.8111C313.509 26.8156 313.441 26.7756 313.378 26.7556C313.251 26.7156 313.138 26.6534 313.003 26.6401C312.868 26.6268 312.71 26.6601 312.561 26.6712C312.412 26.6823 312.254 26.7112 312.118 26.6934C311.983 26.6757 311.875 26.6113 311.748 26.5691C311.689 26.5491 311.608 26.5202 311.559 26.5269C311.229 26.5802 310.985 26.5069 310.751 26.4091C310.701 26.3892 310.615 26.3758 310.552 26.3803C310.028 26.418 309.509 26.4624 308.986 26.5046C308.774 26.5224 308.602 26.4447 308.557 26.3136C308.534 26.2403 308.489 26.167 308.489 26.0938C308.489 25.9605 308.241 25.8872 308.06 25.9027C307.763 25.925 307.46 25.9427 307.167 25.976C306.927 26.0027 306.724 25.976 306.562 25.8961C306.372 25.805 306.156 25.8228 305.939 25.8472C305.776 25.865 305.731 25.9383 305.74 26.1226C305.749 26.2714 305.673 26.3181 305.379 26.3425C305.009 26.3736 304.634 26.4047 304.26 26.4291C304.201 26.4336 304.133 26.3958 304.075 26.3758C303.948 26.3358 303.835 26.2714 303.7 26.2581C303.565 26.2426 303.407 26.2759 303.258 26.2892C303.109 26.3003 302.951 26.3314 302.815 26.3159C302.68 26.3003 302.567 26.2337 302.445 26.1915C302.386 26.1715 302.314 26.1426 302.256 26.1471C301.958 26.1648 301.66 26.1915 301.362 26.2159C301.028 26.2426 301.028 26.2426 300.554 26.1049C300.337 26.0427 300.121 26.0915 299.908 26.1093C299.683 26.1271 299.471 26.136 299.295 26.0471C299.177 25.9894 299.046 25.9538 298.906 25.9649C298.532 25.9916 298.162 26.0249 297.787 26.0516C297.724 26.056 297.638 26.0449 297.588 26.0249C297.349 25.9316 297.114 25.8583 296.78 25.905C296.492 25.945 296.18 25.9472 295.891 25.9849C295.733 26.0049 295.661 26.076 295.693 26.1315C295.711 26.1604 295.805 26.1937 295.869 26.1937C296.013 26.1959 296.171 26.1626 296.306 26.1759C296.586 26.2026 296.726 26.3891 297.092 26.3381C297.309 26.307 297.534 26.2959 297.76 26.287C297.819 26.2848 297.882 26.327 297.945 26.3492C298.125 26.4091 298.283 26.4869 298.545 26.4469C298.762 26.4158 298.992 26.4069 299.213 26.3892C299.565 26.3603 299.565 26.3625 300.021 26.498C300.238 26.5624 300.455 26.5113 300.667 26.4958C300.825 26.4847 300.974 26.4625 301.1 26.4935C301.294 26.5402 301.434 26.6468 301.673 26.6401C301.899 26.6335 302.12 26.6024 302.346 26.5913C302.486 26.5846 302.617 26.6201 302.73 26.6801C302.847 26.7401 302.973 26.7667 303.127 26.7534C303.348 26.7356 303.574 26.7134 303.799 26.7023C303.862 26.7001 303.935 26.7201 303.993 26.7379C304.12 26.7778 304.242 26.8245 304.364 26.8667C304.585 26.8533 304.81 26.8489 305.027 26.8223C305.194 26.8023 305.311 26.8112 305.447 26.8556C305.618 26.9155 305.758 27.0222 306.038 26.9711C306.178 26.9466 306.341 26.9533 306.481 26.9311C306.652 26.9022 306.769 26.9133 306.891 26.9799C307.121 27.1065 307.41 27.1088 307.708 27.0599C308.033 27.0066 308.277 27.0688 308.521 27.1665C308.778 27.2687 308.778 27.2665 308.977 27.513C309.035 27.5841 309.202 27.6174 309.342 27.6041C309.577 27.5819 309.78 27.593 309.952 27.6773C310.132 27.7684 310.349 27.7573 310.57 27.7329C310.863 27.6996 311.157 27.6707 311.396 27.7995C311.513 27.8617 311.64 27.8772 311.798 27.8617C312.245 27.8217 312.696 27.7973 313.134 27.7484C313.4 27.7173 313.554 27.7884 313.734 27.8484C313.978 27.9306 314.244 28.0038 314.244 28.1793C314.244 28.2082 314.307 28.2415 314.362 28.2637C314.479 28.3103 314.605 28.3503 314.727 28.3947C314.908 28.4614 315.084 28.5169 315.332 28.4814C315.549 28.4525 315.779 28.4436 316 28.4236C316.221 28.4036 316.424 28.3925 316.623 28.4769C316.853 28.5724 317.097 28.6635 317.359 28.7346C317.544 28.7856 317.788 28.699 317.986 28.7679C318.108 28.8101 318.225 28.8589 318.356 28.8945C318.41 28.91 318.496 28.8989 318.569 28.8945C318.717 28.8856 318.871 28.8789 319.015 28.8567C319.182 28.8323 319.309 28.8367 319.435 28.8878C319.553 28.9345 319.67 28.9989 319.805 29.0122C320.008 29.0322 320.234 28.9433 320.437 29.0455C320.541 29.0966 320.672 29.1455 320.807 29.161C320.943 29.1766 321.101 29.1432 321.245 29.1454C321.308 29.1454 321.385 29.181 321.421 29.2099C321.444 29.2254 321.412 29.2676 321.381 29.2898C321.34 29.3165 321.281 29.352 321.223 29.3565C320.776 29.3964 320.329 29.4298 319.882 29.4675C319.616 29.4897 319.616 29.4897 319.079 29.3498C318.952 29.3165 318.812 29.3231 318.654 29.3387C318.442 29.3587 318.225 29.3964 318.004 29.3565C317.715 29.2054 317.359 29.1921 316.98 29.2498C316.822 29.2743 316.677 29.2743 316.56 29.2321C316.312 29.1477 316.05 29.07 315.829 28.97C315.657 28.8923 315.576 28.8856 315.504 28.9922C315.481 29.0255 315.458 29.0611 315.463 29.0921C315.49 29.2032 315.54 29.312 315.567 29.4231C315.576 29.4542 315.54 29.4897 315.517 29.523C315.445 29.6163 315.35 29.6096 315.192 29.5319C315.034 29.4542 314.845 29.4031 314.592 29.4386C314.375 29.4697 314.141 29.4653 313.924 29.4986C313.59 29.5475 313.355 29.4764 313.116 29.3809C313.066 29.3609 312.98 29.3498 312.917 29.3542C312.245 29.4053 311.577 29.4631 310.904 29.5141C310.76 29.5253 310.629 29.4919 310.516 29.432C310.399 29.372 310.268 29.3409 310.123 29.352C309.527 29.3987 308.932 29.4409 308.336 29.4986C308.092 29.523 307.898 29.4941 307.731 29.4164C307.605 29.3587 307.487 29.3409 307.329 29.3476C307.158 29.3542 307.036 29.3765 306.95 29.4409C306.869 29.5031 306.927 29.5408 307.108 29.5897C307.302 29.643 307.483 29.7118 307.668 29.774C307.817 29.7651 307.966 29.7473 308.11 29.7496C308.173 29.7496 308.232 29.7895 308.295 29.8118C308.476 29.8762 308.643 29.9406 308.9 29.9051C309.117 29.874 309.347 29.8673 309.568 29.8473C309.875 29.8229 309.875 29.8229 310.371 29.9628C310.498 29.9983 310.633 29.9961 310.796 29.9761C310.936 29.9606 311.08 29.9917 311.179 30.0583C311.22 30.0849 311.207 30.1294 311.121 30.276C311.121 30.3848 311.215 30.3359 311.247 30.2649C311.297 30.1627 311.202 30.1294 311.021 30.1849C310.895 30.2249 310.832 30.2826 310.863 30.3293C310.882 30.3537 310.967 30.3848 311.121 30.276C311.518 30.1427 311.82 30.1271 312.109 30.0916C312.281 30.0716 312.389 30.0805 312.525 30.1382C312.687 30.2071 312.85 30.2804 313.116 30.2449C313.405 30.2049 313.712 30.2004 314.005 30.1671C314.276 30.136 314.416 30.2338 314.587 30.2915C314.795 30.3604 315.025 30.2826 315.215 30.3226C315.413 30.3626 315.553 30.4603 315.783 30.4781C316.117 30.4181 316.33 30.5292 316.582 30.6025C316.781 30.658 317.016 30.6091 317.228 30.5847C317.467 30.558 317.666 30.5825 317.833 30.6624C318.022 30.7535 318.235 30.7335 318.451 30.7135C318.957 30.6691 318.975 30.6624 319.268 30.7846C319.48 30.8734 319.683 30.8334 319.896 30.8223C320.081 30.8823 320.261 30.9467 320.455 31C320.505 31.0133 320.6 30.9911 320.676 30.9845C320.898 30.9667 321.123 30.9489 321.345 30.9312C321.493 30.9201 321.651 30.8867 321.787 30.9001C321.922 30.9156 322.035 30.98 322.157 31.0222C322.279 31.0644 322.405 31.1066 322.523 31.151C322.703 31.2177 322.875 31.2732 323.127 31.2399C323.344 31.211 323.57 31.2021 323.795 31.1821C324.08 31.1577 324.071 31.1644 324.599 31.2976C324.883 31.3709 325.177 31.2821 325.466 31.2732C325.61 31.2688 325.75 31.2932 325.849 31.3576C325.89 31.3843 325.876 31.4287 325.89 31.4664C325.145 31.5264 324.396 31.5775 323.66 31.6508C323.376 31.6797 323.227 31.5997 323.073 31.5331C322.821 31.4264 322.486 31.5819 322.247 31.4442C322.103 31.362 321.895 31.3154 321.647 31.3554C321.502 31.3776 321.349 31.3754 321.2 31.3954C320.821 31.4442 320.473 31.4464 320.171 31.2932C320.067 31.2399 319.918 31.211 319.81 31.1599C319.683 31.1044 319.562 31.0733 319.413 31.0844C318.74 31.1377 318.072 31.191 317.404 31.2488C317.345 31.2532 317.287 31.2865 317.237 31.311C317.111 31.3731 317.151 31.422 317.354 31.462C317.422 31.4753 317.476 31.5042 317.539 31.5264C317.661 31.5686 317.774 31.6352 317.909 31.6508C318.045 31.6663 318.203 31.6352 318.352 31.6241C318.501 31.613 318.659 31.5797 318.794 31.593C318.93 31.6086 319.042 31.673 319.169 31.713C319.228 31.733 319.3 31.7663 319.358 31.7641C319.656 31.7507 319.95 31.7263 320.248 31.7063C320.433 31.7663 320.591 31.8529 320.812 31.8729C320.952 31.8862 321.101 31.8618 321.245 31.8662C321.308 31.8684 321.39 31.9018 321.421 31.9306C321.439 31.9484 321.381 31.9928 321.335 32.015C321.164 32.0994 320.929 32.0839 320.717 32.1105C320.487 32.1394 320.279 32.1305 320.103 32.0439C319.986 31.9862 319.855 31.9551 319.71 31.9662C319.336 31.995 318.966 32.0284 318.591 32.0528C318.528 32.0572 318.451 32.0372 318.392 32.0217C317.919 31.8862 317.918 31.8818 317.584 31.9106C317.092 31.9528 317.093 31.9528 316.763 31.8351C316.7 31.8129 316.632 31.7707 316.578 31.7729C316.054 31.8085 315.535 31.844 315.016 31.8951C314.845 31.9106 314.727 31.9106 314.601 31.8529C314.493 31.804 314.366 31.7485 314.231 31.7352C314.091 31.7219 313.937 31.7552 313.788 31.7663C313.639 31.7774 313.481 31.8062 313.351 31.7885C313.215 31.7707 313.098 31.7085 312.98 31.6641C312.859 31.6175 312.728 31.6197 312.561 31.6374C312.046 31.6885 312.042 31.6819 311.531 31.5442C311.473 31.5286 311.396 31.5109 311.333 31.5153C310.958 31.542 310.588 31.5753 310.214 31.6019C310.069 31.613 309.929 31.5842 309.83 31.5197C309.789 31.4931 309.803 31.4487 309.776 31.362C309.744 31.342 309.78 31.3776 309.789 31.4109C309.857 31.4065 309.938 31.4109 309.988 31.3931C310.114 31.3509 310.177 31.2954 310.146 31.2488C310.128 31.2243 310.042 31.1932 309.988 31.1932C309.889 31.1932 309.803 31.2421 309.776 31.362C309.491 31.4353 309.189 31.4509 308.895 31.4864C308.724 31.5086 308.616 31.4975 308.48 31.4398C308.318 31.3687 308.151 31.2998 307.884 31.3354C307.595 31.3754 307.288 31.382 306.991 31.4131C306.648 31.4487 306.499 31.2488 306.21 31.2532C305.912 31.2576 305.614 31.2954 305.316 31.3221C305.054 31.3443 305.054 31.3443 304.513 31.1999C304.314 31.1466 304.079 31.2243 303.885 31.1688C303.754 31.1333 303.641 31.08 303.515 31.0422C303.461 31.0267 303.375 31.0267 303.307 31.0311C302.933 31.0578 302.554 31.0755 302.192 31.1244C301.782 31.1821 301.47 31.12 301.177 30.9889C300.807 31.0133 300.432 31.0267 300.066 31.0689C299.8 31.1 299.647 31.0267 299.466 30.9667C299.403 30.9467 299.349 30.9134 299.281 30.9045C299.213 30.8956 299.132 30.9134 299.06 30.92C298.762 30.9445 298.455 30.9556 298.166 30.9956C297.809 31.0467 297.674 30.8645 297.399 30.8423C297.214 30.9512 297.114 31.1 296.749 31.1111C296.451 31.1199 296.153 31.1555 295.855 31.1799C295.706 31.191 295.557 31.2044 295.408 31.2155C295.169 31.2355 295.056 31.3221 295.106 31.4553C295.133 31.5286 295.155 31.6019 295.178 31.6752C295.223 31.8062 295.11 31.9173 294.921 31.9329C294.397 31.9751 293.878 32.0195 293.354 32.0572C293.214 32.0683 293.079 32.0306 292.966 31.9706C292.849 31.9106 292.718 31.884 292.574 31.8951C292.05 31.9373 291.531 31.9817 291.007 32.0195C290.949 32.0239 290.872 32.0017 290.813 31.9839C290.687 31.944 290.565 31.8973 290.443 31.8551C290.145 31.8751 289.852 31.8884 289.558 31.9151C289.084 31.955 289.084 31.9573 288.737 31.8351C288.674 31.8129 288.61 31.7707 288.552 31.7729C288.326 31.7818 288.105 31.804 287.879 31.824C287.216 31.8818 287.216 31.8818 287.022 31.8151C286.845 31.7529 286.687 31.6774 286.421 31.713C286.132 31.753 285.825 31.7663 285.527 31.7885C285.306 31.804 285.085 31.8218 284.864 31.8262C284.805 31.8285 284.742 31.7863 284.679 31.7641C284.498 31.6952 284.322 31.6397 284.074 31.6774C283.93 31.6996 283.776 31.7041 283.627 31.7152C283.239 31.7463 283.239 31.7463 282.603 31.613C282.539 31.5997 282.463 31.5841 282.399 31.5908C281.876 31.6308 281.357 31.6752 280.833 31.713C280.77 31.7174 280.693 31.7041 280.63 31.693C279.917 31.5641 279.917 31.5642 279.159 31.6264C278.87 31.6486 278.861 31.6574 278.558 31.5397C278.423 31.4886 278.31 31.4642 278.152 31.4798C277.556 31.5331 276.956 31.5686 276.365 31.6308C276.098 31.6574 275.945 31.5908 275.764 31.5308C275.701 31.5108 275.633 31.4664 275.579 31.4687C274.983 31.5109 274.387 31.5619 273.792 31.6041C273.737 31.6086 273.67 31.5642 273.607 31.5442C273.485 31.5042 273.367 31.4442 273.232 31.4309C273.092 31.4176 272.938 31.4509 272.785 31.462C272.41 31.4909 272.41 31.4887 271.977 31.3576C271.918 31.3398 271.842 31.3154 271.783 31.3198C271.187 31.3643 270.587 31.402 269.995 31.4664C269.657 31.502 269.427 31.4376 269.188 31.3443C269.138 31.3243 269.052 31.3154 268.989 31.3198C268.316 31.3709 267.648 31.4287 266.976 31.4798C266.836 31.4909 266.7 31.4531 266.588 31.3954C266.407 31.3043 266.195 31.3154 265.969 31.3354C265.45 31.382 265.446 31.3798 265.139 31.2732C265.075 31.251 265.021 31.2221 264.954 31.211C264.89 31.1999 264.809 31.2066 264.741 31.211C264.444 31.2332 264.146 31.2576 263.848 31.2821C263.55 31.3065 263.247 31.3199 262.954 31.3576C262.593 31.4043 262.421 31.2599 262.168 31.1932C261.798 31.2221 261.419 31.2399 261.054 31.2865C260.774 31.3221 260.643 31.2243 260.458 31.1733C260.395 31.1555 260.327 31.1177 260.268 31.1222C259.596 31.171 258.923 31.2243 258.255 31.2843C258.093 31.2976 257.984 31.2799 257.849 31.2266C257.546 31.1066 257.533 31.1111 257.027 31.1555C256.806 31.1755 256.594 31.1933 256.404 31.1022C256.237 31.02 256.034 31 255.795 31.0267C255.502 31.06 255.199 31.0778 254.901 31.1C254.603 31.1244 254.306 31.1577 254.008 31.1688C253.768 31.1799 253.624 31.0755 253.434 31.0222C253.376 31.0067 253.294 31.0045 253.227 31.0089C252.929 31.0289 252.622 31.0444 252.333 31.0822C251.981 31.1288 251.787 31.0067 251.539 30.9356C251.484 30.9201 251.394 30.9289 251.326 30.9356C250.803 30.9756 250.284 31.02 249.76 31.0622C249.575 31.0022 249.385 30.9445 249.2 30.8845C248.902 30.9067 248.605 30.9312 248.307 30.9534C248.081 30.9711 247.851 30.9778 247.639 31.0111C247.363 31.0555 247.228 30.9512 247.043 30.9001C246.98 30.8823 246.912 30.8445 246.853 30.849C246.479 30.8734 246.104 30.9001 245.734 30.9378C245.382 30.9756 245.242 30.7757 244.953 30.7779C244.655 30.7801 244.348 30.809 244.059 30.849C243.725 30.8956 243.49 30.8245 243.251 30.729C243.202 30.7091 243.116 30.698 243.053 30.7024C242.678 30.729 242.308 30.7624 241.933 30.789C241.87 30.7935 241.793 30.7824 241.73 30.769C241.017 30.638 241.017 30.6358 240.705 30.6624C240.484 30.6802 240.259 30.7024 240.033 30.7135C239.97 30.718 239.893 30.698 239.834 30.6802C239.365 30.5447 239.365 30.5425 239.026 30.5691C238.728 30.5936 238.43 30.618 238.133 30.6424C237.947 30.5825 237.758 30.5247 237.573 30.4648C237.203 30.4936 236.824 30.5158 236.458 30.5558C236.286 30.5736 236.174 30.5669 236.043 30.5114C235.88 30.4448 235.718 30.367 235.447 30.4048C235.158 30.4448 234.851 30.4492 234.558 30.4825C234.206 30.5225 234.061 30.3204 233.777 30.3226C233.479 30.3248 233.172 30.3537 232.883 30.3937C232.549 30.4403 232.314 30.3693 232.075 30.2738C232.025 30.2538 231.94 30.2427 231.876 30.2471C231.055 30.3115 230.238 30.3759 229.416 30.4447C228.911 30.4869 228.911 30.4892 227.949 30.367C227.882 30.3581 227.809 30.3493 227.742 30.3537C227.444 30.3737 227.137 30.3892 226.848 30.427C226.496 30.4736 226.302 30.3537 226.054 30.2804C225.999 30.2648 225.914 30.2737 225.841 30.2782C225.616 30.2937 225.395 30.3137 225.169 30.3315C224.871 30.3559 224.573 30.3804 224.275 30.4048C224.09 30.347 223.901 30.2871 223.715 30.2293C223.345 30.2582 222.966 30.2737 222.601 30.3204C222.321 30.3559 222.19 30.2626 222.005 30.2093C221.941 30.1916 221.874 30.1538 221.815 30.156C221.143 30.2049 220.47 30.256 219.802 30.3182C219.527 30.3448 219.4 30.2449 219.215 30.1938C219.152 30.1782 219.08 30.1494 219.021 30.1538C218.574 30.1849 218.127 30.2227 217.681 30.2604C217.428 30.2826 217.428 30.2826 216.877 30.1449C216.814 30.1294 216.742 30.1138 216.678 30.1183C215.261 30.2293 213.848 30.347 212.431 30.4581C212.286 30.4692 212.156 30.4359 212.043 30.3759C211.925 30.3159 211.794 30.2848 211.65 30.296C211.054 30.3426 210.454 30.3848 209.863 30.4426C209.619 30.467 209.425 30.4381 209.258 30.3603C209.131 30.3026 209.014 30.2804 208.856 30.2937C208.558 30.3204 208.26 30.3426 207.962 30.367C207.664 30.3914 207.367 30.4159 207.069 30.4403C206.771 30.4648 206.468 30.4781 206.175 30.5158C205.814 30.5625 205.638 30.4248 205.389 30.3559C204.943 30.3892 204.496 30.4225 204.053 30.4581C203.457 30.5047 202.862 30.5558 202.266 30.6002C202.212 30.6047 202.144 30.5647 202.081 30.5447C201.896 30.4892 201.76 30.4114 201.485 30.4359C200.149 30.5536 198.804 30.6535 197.463 30.769C197.183 30.7935 197.061 30.698 196.872 30.6469C196.809 30.6313 196.736 30.6002 196.678 30.6047C195.933 30.6602 195.188 30.7224 194.443 30.7823C194.141 30.8068 194.141 30.8068 193.636 30.6691C193.577 30.6535 193.5 30.6335 193.437 30.638C192.466 30.7135 191.5 30.7935 190.53 30.8712C190.386 30.8823 190.255 30.8512 190.137 30.7912C190.024 30.7313 189.889 30.698 189.749 30.7091C188.855 30.7801 187.957 30.849 187.068 30.9267C186.829 30.9489 186.63 30.9289 186.458 30.849C186.337 30.7912 186.215 30.7668 186.061 30.7801C184.721 30.889 183.38 30.9934 182.039 31.1089C181.782 31.1311 181.602 31.0889 181.439 31.0156C181.308 30.9578 181.195 30.9467 181.033 30.9556C180.861 30.9667 180.758 30.9911 180.663 31.0578C180.541 31.1444 180.464 31.2532 180.175 31.2599C179.877 31.2665 179.575 31.2932 179.282 31.331C179.002 31.3687 178.871 31.2688 178.695 31.2088C178.564 31.1666 178.442 31.1599 178.275 31.1799C178.122 31.1977 178.027 31.2354 177.936 31.3065C177.738 31.4575 177.72 31.4575 177.476 31.362C177.345 31.3109 177.228 31.271 177.083 31.2799C176.487 31.3243 175.892 31.3731 175.296 31.4242C174.953 31.4531 174.948 31.4576 174.691 31.3465C174.565 31.291 174.443 31.2643 174.294 31.2776C172.655 31.4109 171.017 31.5397 169.378 31.6797C169.126 31.7019 168.954 31.6552 168.773 31.5886C168.715 31.5664 168.656 31.5353 168.588 31.5264C168.521 31.5175 168.444 31.5264 168.372 31.5308C167.18 31.6263 165.984 31.7174 164.797 31.824C164.526 31.8485 164.382 31.7774 164.197 31.7196C164.133 31.6997 164.079 31.6686 164.011 31.6597C163.944 31.653 163.862 31.6685 163.79 31.6752C162.599 31.7707 161.402 31.8618 160.215 31.9684C159.931 31.9928 159.809 31.8995 159.624 31.8507C159.561 31.8329 159.493 31.7996 159.434 31.804C159.06 31.8284 158.69 31.8618 158.315 31.8906C157.421 31.9639 156.527 32.0328 155.634 32.1083C155.291 32.1372 155.142 31.9395 154.853 31.9484C154.478 31.9595 154.108 32.0039 153.733 32.035C153.436 32.0594 153.138 32.0817 152.84 32.1083C152.546 32.1328 152.546 32.1327 151.815 32.0039C151.752 31.9928 151.675 31.9773 151.612 31.9817C150.569 32.0639 149.522 32.1461 148.484 32.2349C148.245 32.2549 148.046 32.2438 147.875 32.1616C147.753 32.1039 147.626 32.075 147.477 32.0883C145.911 32.2149 144.349 32.3415 142.783 32.4659C142.724 32.4703 142.648 32.4481 142.589 32.4304C142.462 32.3904 142.341 32.3438 142.219 32.3016C142.128 32.3526 142.011 32.3993 141.952 32.457C141.871 32.5347 141.763 32.557 141.591 32.5703C141.42 32.5836 141.312 32.5792 141.176 32.5214C141.014 32.4504 140.847 32.3948 140.58 32.417C138.942 32.5569 137.303 32.6836 135.665 32.8213C135.394 32.8435 135.268 32.7457 135.078 32.6947C135.015 32.6791 134.942 32.6547 134.884 32.6591C134.211 32.7102 133.543 32.7657 132.871 32.819C131.006 32.9701 129.142 33.1145 127.283 33.2744C126.944 33.3032 126.714 33.2477 126.475 33.1522C126.425 33.1322 126.339 33.1211 126.276 33.1255C123.667 33.3343 121.058 33.5453 118.454 33.7563C118.314 33.7674 118.178 33.7319 118.065 33.6741C117.948 33.6142 117.817 33.5853 117.673 33.5964C116.481 33.6919 115.289 33.7874 114.098 33.8851C113.8 33.9096 113.795 33.9118 113.488 33.8052C113.425 33.783 113.358 33.7408 113.308 33.7452C113.204 33.7563 113.105 33.8118 113.033 33.8873C112.96 33.9673 112.847 33.9895 112.68 34.0051C112.509 34.0206 112.396 34.014 112.265 33.9607C112.098 33.894 111.945 33.8296 111.674 33.8518C108.248 34.1361 104.822 34.4093 101.396 34.6914C101.121 34.7136 100.994 34.6203 100.805 34.5692C100.741 34.5537 100.678 34.5314 100.611 34.527C100.538 34.5226 100.462 34.5359 100.389 34.5426C94.8012 34.9934 89.2132 35.4465 83.6251 35.8974C83.2911 35.924 83.2956 35.924 82.93 36.1284C82.8848 36.1528 82.8261 36.1861 82.7629 36.1906C81.0522 36.3327 79.337 36.4704 77.6217 36.6081C76.877 36.6681 76.1322 36.7303 75.3874 36.788C75.1211 36.808 75.1211 36.808 74.4847 37.0479C74.4305 37.0679 74.3672 37.0945 74.304 37.099C71.3249 37.3411 68.3458 37.5832 65.3622 37.8208C65.1275 37.8386 64.9379 37.8786 64.8296 37.9852C64.7528 38.0607 64.6536 38.1051 64.5046 38.1184C62.4192 38.2872 60.3339 38.4582 58.244 38.6226C57.9958 38.6426 57.8467 38.7048 57.7249 38.7981C57.6842 38.8292 57.6481 38.8647 57.5894 38.8869C57.5353 38.9069 57.454 38.9135 57.3863 38.9202C55.5989 39.0646 53.8114 39.2134 52.0195 39.3511C51.7531 39.3711 51.6448 39.4533 51.5139 39.5399C51.4687 39.5688 51.4371 39.6087 51.3784 39.6287C51.3197 39.6465 51.234 39.6465 51.1618 39.6509C49.6722 39.7709 48.1827 39.893 46.6932 40.013C46.4043 40.0019 46.341 40.1307 46.2011 40.2084C46.1515 40.2351 46.1154 40.2706 46.0567 40.2884C45.9936 40.3061 45.9122 40.3039 45.8355 40.3084C44.6438 40.4039 43.4522 40.506 42.2561 40.5949C41.9807 40.6149 41.9265 40.7281 41.7776 40.8059C41.7279 40.8303 41.6783 40.8681 41.6196 40.8747C40.8749 40.9391 40.1301 40.9991 39.3853 41.0568C39.1371 41.0768 39.1371 41.0746 38.6992 41.2945C38.6496 41.3189 38.5908 41.3456 38.5276 41.3523C37.4127 41.4455 36.2933 41.5344 35.1739 41.6254C35.0295 41.6365 34.9302 41.6898 34.858 41.7654C34.7858 41.8409 34.682 41.8897 34.5375 41.9008C33.6438 41.9741 32.75 42.0496 31.8562 42.1163C31.608 42.134 31.4455 42.1896 31.3372 42.2895C31.2559 42.365 31.1566 42.4028 30.9987 42.4161C30.1049 42.4872 29.2112 42.5649 28.313 42.6271C28.0512 42.6449 27.9157 42.7204 27.8074 42.8137C27.7216 42.8892 27.6223 42.9159 27.4553 42.9292C25.8168 43.058 24.1738 43.1868 22.5398 43.329C22.2644 43.3534 22.1245 43.2757 21.9439 43.2201C21.6866 43.1424 21.4475 43.058 21.4475 42.8847C21.4475 42.8581 21.3707 42.827 21.3166 42.8048C20.9148 42.6382 20.9148 42.6382 20.8516 42.4605C20.8155 42.3517 20.7749 42.2407 20.7433 42.1296C20.6846 41.9475 20.5401 41.9008 20.1249 41.9342C19.9759 41.9453 19.827 41.9608 19.678 41.9697C19.4568 41.9852 19.2898 41.9119 19.2492 41.7787C19.2266 41.7054 19.1996 41.6321 19.177 41.5588C19.4027 41.541 19.3981 41.5388 19.7954 41.2701C19.9624 41.1568 19.9624 41.1568 19.642 41.0435C19.5201 41.0013 19.4027 40.9547 19.2718 40.9147C19.2131 40.8969 19.1364 40.8858 19.0732 40.8903C18.6986 40.9169 18.3285 40.948 17.9583 40.9791C17.3625 41.028 17.3624 41.028 16.7576 40.8014C16.7079 40.7836 16.6312 40.7503 16.6402 40.7326C16.6899 40.6504 16.8117 40.6148 16.9652 40.606C17.1909 40.5926 17.4121 40.5704 17.6332 40.5527C17.7822 40.5416 17.9311 40.5283 18.0801 40.5171C18.22 40.4327 18.3645 40.3506 18.4954 40.2639C18.7031 40.1307 18.703 40.1262 18.4186 40.0329C18.2381 39.9708 18.044 39.9152 17.8589 39.8575C17.6377 39.8752 17.4121 39.8952 17.1909 39.9108C16.911 39.9308 16.7982 39.8886 16.726 39.7442C16.6628 39.6176 16.7395 39.5088 16.9562 39.4821C17.1773 39.4555 17.3851 39.4377 17.4979 39.3245C17.6062 39.2156 17.7958 39.1734 18.0305 39.1645C18.1795 39.1579 18.3284 39.1423 18.4774 39.129C18.6715 39.1112 18.7753 38.998 18.7347 38.8714C18.7121 38.7892 18.667 38.7203 18.4909 38.7026C17.71 38.6248 17.701 38.627 17.3128 38.476C17.2767 38.4627 17.2496 38.4227 17.2632 38.4027C17.2857 38.3694 17.3354 38.3205 17.3896 38.3139C17.9087 38.265 18.4277 38.2206 18.9468 38.1873C19.1183 38.1762 19.2447 38.1606 19.3034 38.0784C19.3847 37.9652 19.3486 37.8608 19.1906 37.783C19.1409 37.7586 19.0596 37.7275 19.0054 37.7297C18.4096 37.7697 17.8183 37.8208 17.2225 37.8608C17.1684 37.8652 17.0691 37.8275 17.0465 37.7986C17.0014 37.7453 17.0691 37.6742 17.227 37.6498C17.4347 37.6165 17.6468 37.6142 17.7867 37.5032C17.9808 37.3455 18.22 37.2011 18.4367 37.0501C18.4728 37.0235 18.5316 36.9724 18.518 36.9679C18.4052 36.9191 18.2743 36.8813 18.1569 36.8347C17.9583 36.7569 17.9583 36.6481 18.0034 36.5437C18.0395 36.4593 18.1749 36.426 18.3419 36.426C18.4142 36.426 18.5044 36.426 18.5631 36.406C18.7166 36.3572 18.7662 36.2949 18.6895 36.2483C18.6444 36.2216 18.5632 36.1839 18.509 36.1884C17.543 36.2617 16.5725 36.3327 15.6111 36.4238C15.3267 36.4504 15.1959 36.366 15.0244 36.306C14.8935 36.2594 14.7715 36.2416 14.609 36.275C14.4555 36.306 14.3066 36.2883 14.2118 36.215C14.1351 36.155 14.2705 36.104 14.6361 36.0462C14.7038 36.0351 14.7805 36.0284 14.8302 36.0062C15.3538 35.7663 15.3538 35.7641 15.7149 35.733C16.0669 35.7042 16.067 35.7019 16.2521 35.5731C16.3379 35.5132 16.4326 35.4532 16.5138 35.391C16.5454 35.3666 16.5996 35.3221 16.5816 35.3088C16.4823 35.24 16.3468 35.2244 16.1888 35.24C15.8368 35.2777 15.4216 35.2466 15.2365 35.4576C15.1643 35.5376 15.0514 35.5598 14.8889 35.5731C13.2549 35.7019 11.6209 35.8397 9.98236 35.964C9.71604 35.984 9.59424 36.0662 9.49042 36.1573C9.40015 36.2328 9.30082 36.255 9.1293 36.2683C8.95777 36.2816 8.82229 36.2883 8.72299 36.215C8.66431 36.1706 8.71398 36.1084 8.84939 36.0462C9.04348 35.9574 9.00735 35.8463 8.94416 35.7419C8.89902 35.6731 8.7591 35.6242 8.61014 35.6287C8.38897 35.6375 8.17688 35.662 7.99181 35.5731C7.88348 35.522 7.74804 35.4865 7.62617 35.4421C7.39145 35.351 7.15672 35.2577 6.82721 35.3177C6.60152 35.2955 6.44354 35.2155 6.26299 35.1533C5.96056 35.0512 5.93348 35.0356 6.15014 34.9268C6.39389 34.8046 6.20427 34.6447 6.33969 34.5248C6.48413 34.396 6.6828 34.2827 6.85884 34.1628C6.90398 34.1317 6.94462 34.1028 6.98976 34.0717C6.88594 34.0273 6.79117 33.9718 6.6693 33.9407C6.51131 33.9007 6.43006 33.8518 6.43909 33.7141C6.40749 33.6941 6.42094 33.7452 6.45705 33.7585C6.49768 33.7719 6.59705 33.7608 6.64671 33.7452C6.77309 33.703 6.83622 33.6475 6.80462 33.6008C6.78657 33.5764 6.70087 33.5453 6.64671 33.5453C6.5474 33.5453 6.46165 33.5942 6.43457 33.7141C5.92903 33.8052 5.40534 33.8496 4.88174 33.8851C4.82757 33.8896 4.75991 33.8452 4.69671 33.823C4.48908 33.7474 4.48905 33.7496 3.87969 33.7274C3.81649 33.7252 3.73078 33.6941 3.69918 33.663C3.56828 33.5276 3.57283 33.3787 3.50964 33.2344C3.62699 33.1411 3.74426 33.05 3.86613 32.959C4.10988 32.7746 4.42592 32.6125 4.6155 32.4104C4.57487 32.3015 4.5207 32.1927 4.7193 32.1039C5.28353 31.9928 5.27905 31.9928 5.43252 31.8862C5.87036 31.5842 6.30366 31.2799 6.75955 30.9822C6.88142 30.9045 6.88144 30.8623 6.66478 30.829C6.59707 30.8201 6.52475 30.8179 6.45253 30.8223C6.22684 30.8379 6.00116 30.8779 5.77998 30.869C5.55881 30.8623 5.39631 30.7646 5.21576 30.7046C5.03069 30.6424 4.84563 30.578 4.66057 30.5136C4.44842 30.5203 4.23631 30.5825 4.02416 30.4825C3.86166 30.4048 3.65856 30.3492 3.47349 30.2848C3.61342 30.116 3.87526 29.9872 4.07838 29.8384C4.26345 29.7029 4.26786 29.7052 4.76438 29.6008C4.99909 29.5519 5.08035 29.3009 4.88174 29.2276C4.64251 29.1388 4.38979 29.0566 4.14604 28.9722C3.93389 28.9789 3.71728 29.0389 3.51415 28.9389C3.35617 28.8634 3.17558 28.8123 2.91378 28.8412C2.47143 28.89 2.02006 28.9145 1.5732 28.9544C1.41973 28.9678 1.25267 28.9589 1.18496 28.8834C1.13982 28.8301 1.27073 28.7568 1.41969 28.7412C1.64538 28.719 1.84848 28.6924 1.96132 28.5813C2.06965 28.4703 2.26824 28.4369 2.50296 28.4214C2.56615 28.4169 2.63842 28.3903 2.67002 28.3636C2.83252 28.2348 3.01308 28.1238 3.36065 28.1282C3.50509 28.0838 3.58177 28.0283 3.53663 27.975C3.50955 27.9461 3.41481 27.9083 3.36065 27.9128C2.986 27.935 2.61137 27.9572 2.24575 27.9972C2.07422 28.015 1.94325 28.0194 1.83492 27.9528C1.75819 27.9083 1.79881 27.8484 1.94325 27.784C2.06964 27.7284 2.10579 27.664 2.09676 27.5885C2.07419 27.413 1.93875 27.362 1.50542 27.3731C1.19397 27.382 1.11723 27.3531 1.04953 27.202C1.03147 27.1665 0.986411 27.1176 1.01801 27.0932C1.2121 26.9422 1.3385 26.7556 1.70411 26.6846C1.84856 26.6579 2.00196 26.6579 2.09224 26.6002C2.18252 26.5424 2.2638 26.4758 2.35859 26.4202C2.47595 26.3536 2.55712 26.2914 2.50296 26.2492C2.41268 26.1737 2.26829 26.1671 2.10128 26.1937C1.95683 26.2159 1.80337 26.2181 1.65441 26.2315C1.3881 26.2559 1.17149 26.1981 1.13989 26.1004C1.05413 25.8428 0.963825 25.5874 0.88709 25.3297C0.878062 25.2986 0.90057 25.2586 0.93668 25.232C1.06307 25.1387 1.19853 25.0499 1.32943 24.9588C1.4829 24.8544 1.72669 24.8744 1.93432 24.8544C2.22772 24.8256 2.22762 24.8278 2.62032 24.6145C2.77379 24.5301 3.04012 24.5635 3.1981 24.488C3.24775 24.4635 3.32449 24.4235 3.31094 24.4013C3.29289 24.3725 3.20266 24.3502 3.13495 24.3369C3.07176 24.3236 2.99504 24.3169 2.92734 24.3236C2.10583 24.388 1.28885 24.4569 0.467337 24.5191C0.327409 24.5302 0.173936 24.4813 0.124284 24.4124C0.0746318 24.348 0.0881292 24.2703 0.0791016 24.197C0.210002 24.1059 0.3589 24.0215 0.471745 23.9238C0.557507 23.8483 0.656829 23.815 0.828353 23.8105C1.05404 23.8039 1.27524 23.7772 1.52801 23.7572C1.99745 23.433 2.45783 23.0931 2.96337 22.7689C3.16649 22.6378 3.11692 22.5046 3.15755 22.3646C3.19817 22.2358 3.50058 22.2558 3.7037 22.2181C3.8662 22.187 3.92029 22.1159 3.8571 22.067C3.82099 22.0381 3.73978 22.0048 3.67659 22.0048C3.52763 22.0048 3.37868 22.0248 3.22973 22.0359C3.08077 22.047 2.90926 22.0404 2.78738 22.0781C2.67002 22.1137 2.59325 22.1892 2.51651 22.2536C2.43075 22.3247 2.31798 22.3491 2.14646 22.3535C1.92528 22.358 1.70412 22.378 1.48294 22.3935C1.2392 22.3069 0.986372 22.2225 0.751654 22.1314C0.706516 22.1137 0.69744 22.0626 0.701953 22.0293C0.710981 21.9427 0.643292 21.8893 0.494336 21.8471C0.36795 21.8116 0.264123 21.7605 0.146765 21.7161C0.237041 21.6561 0.336379 21.5984 0.4086 21.534C0.566583 21.3985 0.765213 21.3008 1.10826 21.3052C1.24368 21.2186 1.35198 21.112 1.52801 21.052C1.69503 20.9943 1.97941 21.052 2.10579 20.921C2.16899 20.8566 2.26383 20.7833 2.3857 20.7566C2.5798 20.7144 2.83257 20.7366 2.94541 20.6123C3.01312 20.5412 3.11238 20.4768 3.24328 20.459C3.39224 20.439 3.54567 20.4346 3.654 20.3924C3.71268 20.3702 3.77588 20.3346 3.77588 20.3035C3.77588 20.2835 3.68567 20.2524 3.62248 20.2391C3.5638 20.2236 3.48698 20.2125 3.41927 20.2169C3.19358 20.2302 2.97241 20.2547 2.74672 20.268C2.68353 20.2724 2.61133 20.2569 2.54362 20.2436C2.34501 20.208 2.35853 20.1636 2.51651 20.0837C2.67449 20.0059 2.7874 19.906 2.9183 19.8149C3.06274 19.7993 3.24327 19.806 3.34257 19.7638C3.50958 19.695 3.62691 19.595 3.76233 19.5084C3.91128 19.4951 4.06474 19.4906 4.20467 19.4662C4.26335 19.4573 4.29045 19.4085 4.34011 19.3796C4.43038 19.3241 4.50718 19.2441 4.62905 19.2174C4.82766 19.1775 5.0714 19.193 5.18876 19.0709C5.25646 18.9998 5.36024 18.9243 5.48663 18.9198C5.83871 18.911 5.98767 18.7888 6.16822 18.6733C6.30363 18.5867 6.59252 18.6311 6.74148 18.5445C6.84078 18.4889 6.91305 18.4201 7.01235 18.3668C7.05298 18.3446 7.13871 18.3335 7.20641 18.3268C7.57655 18.2935 7.95118 18.2691 8.32131 18.2335C8.37999 18.2269 8.4342 18.1936 8.47934 18.1669C8.57413 18.1092 8.63274 18.0292 8.7501 17.9914C8.86746 17.9537 9.03445 17.9537 9.17889 17.9426C9.64381 17.9093 9.67996 17.9181 9.8921 17.7293C10.0636 17.5761 10.4835 17.6849 10.6234 17.5161C10.7046 17.4184 10.8535 17.3385 11.1198 17.3273C11.4945 17.3118 11.8646 17.2696 12.2393 17.2407C12.5733 17.2141 12.5688 17.2141 12.9299 17.0075C13.0924 16.9142 13.3317 16.9276 13.5438 16.9098C13.7695 16.892 13.9771 16.8654 14.0854 16.7543C14.1938 16.6455 14.3924 16.6099 14.6226 16.5944C14.8347 16.5789 15.074 16.59 15.241 16.5011C15.6472 16.2879 15.6427 16.2857 15.9271 16.2635C16.374 16.2279 16.8208 16.1924 17.2677 16.1546C17.5656 16.1302 17.877 16.1258 18.1569 16.0769C18.36 16.0414 18.4503 15.917 18.5812 15.8304C18.9513 15.7971 19.3214 15.7637 19.6916 15.7326C20.2106 15.6882 20.7342 15.6482 21.2578 15.606C21.4835 15.5217 21.5152 15.3351 21.8943 15.3262C22.12 15.3218 22.3412 15.2929 22.5669 15.2751C22.9415 15.244 23.3117 15.204 23.6863 15.1885C23.9707 15.1774 24.0203 15.0574 24.1692 14.9819C24.2189 14.9553 24.264 14.9175 24.3227 14.9109C24.9095 14.8487 25.5143 14.8354 26.0876 14.7443C26.1463 14.7354 26.2004 14.6888 26.214 14.6554C26.223 14.6377 26.1463 14.6044 26.0966 14.5888C26.0379 14.5711 25.9612 14.5533 25.898 14.5577C24.0338 14.7065 22.1697 14.8576 20.3055 15.0064C20.0437 15.0286 20.0437 15.0264 19.4072 15.2707C19.3531 15.2907 19.2898 15.3129 19.2221 15.3195C18.9242 15.3462 18.6218 15.3617 18.3284 15.3951C18.0891 15.4217 17.8906 15.395 17.7191 15.3151C17.5972 15.2573 17.4708 15.2396 17.3173 15.244C17.1458 15.2507 17.033 15.2751 16.9337 15.3351C16.8028 15.4173 16.7351 15.5239 16.4597 15.5461C15.1913 15.6416 13.9229 15.7482 12.659 15.8504C12.483 15.8193 12.3972 15.7726 12.4424 15.7171C12.4694 15.6838 12.5236 15.6394 12.5778 15.6349C13.0969 15.5883 13.6205 15.5483 14.1396 15.5039C14.2118 15.4972 14.3111 15.5016 14.3517 15.4794C14.5503 15.3795 14.6226 15.2174 14.9972 15.2063C15.2139 15.1996 15.4351 15.1663 15.6427 15.1352C15.7014 15.1263 15.7555 15.0797 15.7691 15.0463C15.7736 15.0286 15.7014 14.9953 15.6472 14.9797C15.4486 14.9153 15.2184 14.9931 15.0198 14.9486C14.9521 14.9331 14.8573 14.9109 14.8437 14.8842C14.8347 14.8598 14.9114 14.8198 14.9656 14.7954C15.0153 14.7732 15.0829 14.7532 15.1506 14.7465C15.7465 14.6954 16.3424 14.6421 16.9382 14.6021C17.1819 14.5866 17.3534 14.5311 17.4618 14.4289C17.543 14.3534 17.6423 14.3134 17.7958 14.3023C18.8385 14.2201 19.8811 14.1291 20.9283 14.0536C21.1901 14.0358 21.3256 13.9625 21.4339 13.867C21.5197 13.7915 21.619 13.7648 21.786 13.7515C23.2801 13.636 24.7651 13.5072 26.2592 13.3961C26.5345 13.3761 26.6158 13.2806 26.7557 13.1985C26.8054 13.1696 26.8369 13.1341 26.9001 13.1163C26.9633 13.0985 27.0445 13.1007 27.1213 13.0963C28.3129 13.0008 29.5046 12.8986 30.7008 12.8098C30.9806 12.7898 31.0347 12.6787 31.1792 12.601C31.2288 12.5766 31.274 12.5366 31.3327 12.5299C32.2264 12.4544 33.1201 12.3833 34.0138 12.31C34.6097 12.2612 35.2055 12.2123 35.8013 12.1657C36.0947 12.1435 36.0947 12.1412 36.4919 11.9302C36.5371 11.9058 36.6003 11.8769 36.659 11.8703C38.3742 11.7281 40.0849 11.5927 41.8002 11.4527C41.9446 11.4416 42.0484 11.3905 42.1206 11.315C42.1928 11.2395 42.2967 11.1884 42.4367 11.1773C43.7773 11.0662 45.1178 10.9574 46.4629 10.853C46.7067 10.8353 46.8782 10.782 46.9865 10.682C47.0678 10.6065 47.1671 10.5665 47.3205 10.5554C48.6611 10.4488 50.0018 10.3355 51.3469 10.2334C51.6042 10.2134 51.7305 10.1379 51.8569 10.049C51.9021 10.0179 51.9382 9.96684 51.9924 9.9624C52.6604 9.90021 53.3239 9.8358 53.9965 9.7936C54.2763 9.77583 54.3711 9.68254 54.484 9.5937C54.5743 9.52263 54.6781 9.49821 54.8496 9.48932C55.2243 9.46933 55.5944 9.43159 55.96 9.39383C56.0142 9.38717 56.0819 9.3383 56.0864 9.30721C56.0954 9.24946 55.9916 9.20948 55.82 9.18949C54.0326 9.33385 52.2407 9.47821 50.4532 9.62258C50.1598 9.64701 50.1598 9.64702 49.7626 9.85802C49.7174 9.88245 49.6542 9.91133 49.591 9.91799C47.8757 10.0579 46.1651 10.1956 44.4498 10.3355C44.3054 10.3467 44.2016 10.3977 44.1293 10.4733C44.0571 10.5488 43.9532 10.5998 43.8133 10.611C42.1748 10.7442 40.5363 10.8797 38.8933 11.0063C38.6495 11.0241 38.4781 11.0751 38.3697 11.1773C38.2885 11.2528 38.1892 11.2928 38.0357 11.3039C36.4694 11.4283 34.9076 11.5593 33.3368 11.6793C33.1788 11.6904 33.0615 11.6259 33.0705 11.566C33.075 11.5349 33.1427 11.4838 33.1968 11.4794C34.0138 11.4061 34.8264 11.3306 35.6479 11.275C35.9232 11.2573 36.0044 11.1595 36.1443 11.0774C36.1895 11.0485 36.2256 11.0107 36.2843 10.9952C36.3475 10.9774 36.4287 10.9796 36.5055 10.9752C38.4419 10.8175 40.3784 10.6576 42.3193 10.5088C42.5992 10.4866 42.6532 10.3777 42.7977 10.3C42.8473 10.2734 42.8925 10.2334 42.9512 10.2289C43.547 10.1756 44.1428 10.129 44.7386 10.0823C45.7813 9.99795 46.824 9.91355 47.8712 9.82915C48.1736 9.80472 48.1736 9.8047 48.5618 9.59593C48.607 9.5715 48.6702 9.54042 48.7289 9.53598C51.4868 9.31166 54.2448 9.08733 57.0027 8.86523C57.1472 8.85412 57.251 8.80304 57.3232 8.72752C57.3954 8.65423 57.4992 8.60092 57.6391 8.5876C61.3675 8.28554 65.0914 7.98346 68.8198 7.68585C69.0636 7.66586 69.2351 7.61921 69.3434 7.51482C69.4201 7.43931 69.5239 7.39934 69.6774 7.38601C73.7759 7.05508 77.8745 6.72415 81.9775 6.39099C84.7355 6.16889 87.4934 5.94235 90.2514 5.72468C90.5041 5.7047 90.6395 5.63583 90.7659 5.54477C90.8065 5.51367 90.8471 5.46259 90.9013 5.45814C91.4926 5.40262 92.0839 5.35154 92.6752 5.30046C92.8603 5.36043 93.0453 5.41819 93.2304 5.47815C93.3703 5.39375 93.5058 5.30713 93.6457 5.22273C94.5395 5.15832 95.4196 5.05837 96.3224 5.02728C96.3811 5.02506 96.4442 5.06726 96.5074 5.08947C96.9272 5.2294 97.1665 5.21829 97.4328 5.03172C97.5276 4.96509 97.6088 4.90513 97.7532 4.89402C98.2001 4.85404 98.6516 4.82739 99.0939 4.78075C99.3332 4.75631 99.5317 4.77852 99.7032 4.85848C99.8251 4.91622 99.9515 4.94067 100.1 4.92734C100.922 4.86071 101.739 4.79629 102.561 4.72522C102.619 4.72078 102.673 4.68301 102.718 4.65636C102.813 4.59861 102.894 4.53643 102.985 4.47647C103.107 4.51422 103.242 4.5431 103.341 4.59196C103.468 4.64971 103.585 4.6497 103.757 4.63415C107.034 4.36541 110.315 4.10333 113.592 3.83236C113.872 3.81015 113.994 3.90344 114.184 3.95231C114.247 3.97007 114.31 3.99227 114.378 3.99672C114.45 4.00116 114.527 3.98784 114.599 3.98118C117.059 3.78129 119.519 3.5836 121.979 3.38371C122.304 3.35706 122.304 3.35706 122.787 3.49476C122.846 3.51253 122.922 3.53252 122.985 3.52586C124.105 3.43924 125.224 3.34596 126.339 3.25712C126.484 3.24602 126.606 3.28155 126.736 3.33263C126.994 3.43258 127.012 3.43258 127.201 3.286C127.292 3.21714 127.386 3.17493 127.535 3.15494C127.698 3.13273 127.829 3.13941 127.955 3.17939C128.136 3.23492 128.267 3.32819 128.542 3.30375C129.734 3.19937 130.93 3.11275 132.117 3.00614C132.388 2.98171 132.532 3.05722 132.713 3.11275C132.776 3.13274 132.835 3.16384 132.902 3.1705C132.97 3.17716 133.051 3.1616 133.123 3.15494C134.613 3.035 136.107 2.91731 137.592 2.78849C137.872 2.76406 137.994 2.85954 138.183 2.9084C138.247 2.92617 138.319 2.95728 138.377 2.95284C139.271 2.88399 140.17 2.81068 141.063 2.73738C141.384 2.71073 141.384 2.71295 141.871 2.84843C141.93 2.8662 142.007 2.88397 142.07 2.87953C143.113 2.79735 144.16 2.71295 145.202 2.62855C145.523 2.6019 145.523 2.60191 146.448 2.7174C146.516 2.72628 146.588 2.73963 146.656 2.73518C147.847 2.63968 149.044 2.54638 150.235 2.44422C150.474 2.42423 150.673 2.44199 150.845 2.52195C150.967 2.57969 151.093 2.60414 151.242 2.59081C152.582 2.48198 153.928 2.3776 155.264 2.2621C155.521 2.23989 155.688 2.28874 155.868 2.35315C155.927 2.37536 155.986 2.40646 156.054 2.41534C156.121 2.42423 156.198 2.41534 156.27 2.40867C157.611 2.29984 158.956 2.19768 160.292 2.07996C160.563 2.05553 160.707 2.13104 160.888 2.18657C160.951 2.20656 161.019 2.24654 161.073 2.24432C161.596 2.20656 162.12 2.17326 162.639 2.11773C162.919 2.08664 163.041 2.18879 163.23 2.23765C163.294 2.2532 163.366 2.28653 163.425 2.28209C164.544 2.19547 165.663 2.10441 166.778 2.01113C166.936 1.9978 167.054 2.01777 167.18 2.07552C167.347 2.15325 167.541 2.18435 167.785 2.15992C168.304 2.10883 168.828 2.07331 169.351 2.03111C169.658 2.00668 169.658 2.00668 170.597 2.12218C170.665 2.13106 170.737 2.14438 170.805 2.13994C171.698 2.06886 172.597 2.00002 173.486 1.92228C173.725 1.90007 173.924 1.92005 174.095 2.00001C174.217 2.05776 174.339 2.0822 174.492 2.06888C175.314 2.00224 176.131 1.93561 176.953 1.86898C177.25 1.84455 177.548 1.80234 177.846 1.80234C178.063 1.80456 178.221 1.91116 178.415 1.96447C178.469 1.98001 178.559 1.96227 178.632 1.95782C179.674 1.87342 180.721 1.79568 181.76 1.70018C182.03 1.67575 182.175 1.75126 182.356 1.80678C182.419 1.82677 182.486 1.86675 182.541 1.86453C182.915 1.8401 183.285 1.80678 183.66 1.77791C184.107 1.74237 184.558 1.71572 185.001 1.66686C185.362 1.62688 185.497 1.8201 185.786 1.82676C186.007 1.83343 186.233 1.79568 186.454 1.77791C186.901 1.74237 187.348 1.7024 187.795 1.6713C187.953 1.6602 188.075 1.62465 188.124 1.54469C188.133 1.52914 188.056 1.49584 188.007 1.47585C187.406 1.24931 187.406 1.24929 186.802 1.29816C186.427 1.32925 186.057 1.36035 185.682 1.387C185.619 1.39145 185.547 1.37368 185.484 1.36035C185.303 1.32259 185.321 1.27818 185.475 1.19822C185.628 1.11826 185.745 1.02055 185.876 0.929485C186.061 0.987232 186.242 1.04496 186.427 1.10271C186.576 1.0916 186.725 1.07829 186.874 1.06719C187.619 1.00944 188.363 0.949469 189.108 0.896164C189.162 0.891722 189.23 0.93615 189.293 0.95836C189.474 1.02277 189.636 1.07828 189.898 1.05385C190.566 0.989439 191.239 0.942797 191.907 0.887272C192.2 0.86284 192.2 0.862842 192.715 1.00055C192.773 1.01609 192.85 1.03386 192.913 1.02942C193.586 0.978337 194.254 0.922818 194.926 0.869513C195.071 0.858408 195.211 0.88728 195.315 0.95169C195.355 0.978343 195.346 1.02275 195.518 1.387C196.05 1.6824 196.416 1.65132 196.786 1.62467C196.944 1.61356 197.084 1.60245 197.188 1.55803C197.242 1.5336 197.31 1.49805 197.31 1.46918C197.31 1.44697 197.21 1.41143 197.147 1.40699C196.7 1.36256 196.276 1.45586 195.838 1.47585C195.635 1.48473 195.459 1.407 195.423 1.2804C195.414 1.24486 195.4 1.20711 195.387 1.17157C195.373 1.13603 195.364 1.09828 195.351 1.06274C195.175 1.05164 195.071 1.09161 194.994 1.16712C194.931 1.22931 194.841 1.30039 194.719 1.3337C194.597 1.36924 194.43 1.36259 194.281 1.37369C194.137 1.3848 193.979 1.41367 193.843 1.39812C193.708 1.38035 193.599 1.31593 193.473 1.27595C193.414 1.25596 193.342 1.2271 193.283 1.23154C192.764 1.2693 192.25 1.30704 191.735 1.35591C191.464 1.38256 191.329 1.28929 191.157 1.23154C191.022 1.18712 190.887 1.19821 190.864 1.30038C190.805 1.54469 191.013 1.64686 191.473 1.60021C191.853 1.56024 192.196 1.55359 192.493 1.70462C192.534 1.72461 192.629 1.73349 192.688 1.72905C193.058 1.7024 193.423 1.66908 193.793 1.64243C193.861 1.63799 193.933 1.64686 193.997 1.65574C194.917 1.77568 194.917 1.77791 195.229 1.75126C195.378 1.73793 195.522 1.72682 195.509 1.38923C195.793 1.0272 196.244 1.00277 196.682 0.949467C196.967 0.916152 197.088 1.01388 197.274 1.06497C197.337 1.08273 197.405 1.11826 197.463 1.11382C198.434 1.04053 199.4 0.96278 200.366 0.880602C200.528 0.867276 200.645 0.880604 200.772 0.938351C200.934 1.01165 201.115 1.0583 201.372 1.03164C201.887 0.978339 202.41 0.945031 202.934 0.900611C203.2 0.878401 203.2 0.878378 203.737 1.01608C203.796 1.03163 203.873 1.0494 203.936 1.04496C204.46 1.0072 204.979 0.960571 205.498 0.920593C205.642 0.909487 205.773 0.940579 205.886 1.00055C205.999 1.06051 206.134 1.09161 206.274 1.0805C206.798 1.04052 207.317 0.996115 207.836 0.956137C207.899 0.951695 207.976 0.967241 208.035 0.982788C208.585 1.12049 208.585 1.12047 208.838 1.09826C209.208 1.06494 209.587 1.04941 209.953 1.00499C210.309 0.960572 210.495 1.08938 210.738 1.16045C211.406 1.10937 212.079 1.06718 212.742 1.00499C213.013 0.97834 213.158 1.05163 213.338 1.10937C213.401 1.12936 213.465 1.17157 213.523 1.16935C213.749 1.16046 213.97 1.13604 214.191 1.11827C214.413 1.1005 214.638 1.08273 214.859 1.06497C215.112 1.12937 215.279 1.2804 215.64 1.22932C215.857 1.19822 216.087 1.19156 216.308 1.17379C216.53 1.15603 216.755 1.13826 216.976 1.12049C217.125 1.10939 217.279 1.10271 217.423 1.08272C217.69 1.04941 217.82 1.15825 218.01 1.20711C218.073 1.22266 218.145 1.2493 218.204 1.24485C218.651 1.21376 219.102 1.18711 219.54 1.13603C219.879 1.09605 220.109 1.16269 220.348 1.25597C220.398 1.27596 220.484 1.28706 220.547 1.28262C221.07 1.24486 221.589 1.19821 222.109 1.15823C222.248 1.14713 222.384 1.18266 222.497 1.24041C222.614 1.30038 222.745 1.32927 222.889 1.31817C223.408 1.27819 223.932 1.23375 224.451 1.19378C224.514 1.18933 224.591 1.2071 224.65 1.22487C225.155 1.36258 225.155 1.3648 225.453 1.33815C225.526 1.33148 225.602 1.32703 225.674 1.32036C226.045 1.28927 226.428 1.27818 226.789 1.22487C227.205 1.1649 227.507 1.24042 227.8 1.36702C228.171 1.34037 228.55 1.32482 228.911 1.2804C229.182 1.24708 229.326 1.33148 229.507 1.387C229.57 1.40699 229.638 1.44697 229.692 1.44253C230.215 1.40477 230.739 1.37147 231.253 1.31594C231.533 1.28485 231.655 1.38478 231.845 1.43586C231.908 1.45363 231.976 1.48474 232.034 1.4803C232.332 1.46253 232.63 1.43586 232.928 1.41143C233.276 1.38256 233.276 1.38478 233.736 1.52026C233.953 1.58467 234.169 1.53358 234.382 1.51804C234.607 1.50027 234.819 1.48695 235 1.57801C235.113 1.63576 235.248 1.67129 235.388 1.66241C235.686 1.64242 235.989 1.62244 236.282 1.58913C236.517 1.56247 236.72 1.58023 236.891 1.66241C237.013 1.72016 237.14 1.74905 237.288 1.73572C237.957 1.68242 238.629 1.62687 239.297 1.57579C239.356 1.57134 239.437 1.59134 239.491 1.61133C239.618 1.65131 239.739 1.69572 239.861 1.74014C240.155 1.72015 240.457 1.71129 240.746 1.6802C241.053 1.6491 241.333 1.63799 241.572 1.76015C241.622 1.7868 241.694 1.82454 241.753 1.82232C241.978 1.81343 242.199 1.79123 242.421 1.77346C242.642 1.75569 242.867 1.73793 243.089 1.72016C243.346 1.77568 243.509 1.9356 243.87 1.88451C244.086 1.85342 244.316 1.84676 244.538 1.82899C244.759 1.81122 244.985 1.79123 245.206 1.77568C245.278 1.77124 245.359 1.76013 245.422 1.76901C245.49 1.7779 245.549 1.809 245.607 1.83121C245.788 1.89562 245.955 1.96004 246.212 1.92228C246.429 1.89119 246.659 1.88452 246.88 1.86453C247.183 1.8401 247.183 1.8401 247.684 1.98003C247.887 2.03778 248.117 1.96226 248.311 2.01113C248.442 2.04444 248.555 2.09996 248.681 2.13771C248.735 2.15326 248.821 2.15991 248.884 2.15547C249.182 2.13548 249.485 2.1155 249.778 2.08219C250.017 2.05554 250.216 2.08218 250.383 2.16214C250.505 2.21989 250.627 2.24433 250.78 2.23101C251.525 2.16882 252.27 2.1155 253.01 2.04664C253.263 2.02221 253.466 2.05998 253.606 2.13994C253.845 2.27764 254.184 2.11551 254.432 2.22656C254.585 2.29541 254.739 2.37537 255.019 2.34206C255.533 2.28431 256.057 2.2532 256.576 2.21322C256.761 2.27319 256.946 2.33317 257.136 2.39314C257.434 2.36871 257.731 2.34426 258.029 2.32205C258.251 2.30428 258.476 2.28429 258.697 2.26875C258.77 2.2643 258.846 2.25542 258.914 2.26652C258.982 2.27763 259.036 2.30651 259.099 2.32872C259.411 2.43755 259.411 2.43978 259.925 2.39536C260.146 2.37537 260.359 2.36205 260.544 2.45089C260.715 2.53306 260.918 2.5486 261.153 2.52417C261.595 2.47975 262.042 2.44644 262.494 2.41534C262.634 2.40424 262.764 2.442 262.882 2.49974C263.058 2.5908 263.274 2.58192 263.496 2.55749C263.789 2.5264 264.078 2.49531 264.326 2.61969C264.376 2.64634 264.453 2.68408 264.507 2.68186C264.877 2.66409 265.251 2.65077 265.613 2.60857C265.974 2.56637 266.15 2.70407 266.398 2.7707C266.768 2.74183 267.143 2.71295 267.513 2.68408C267.585 2.67742 267.671 2.65744 267.734 2.66854C268 2.71518 268.154 2.88176 268.519 2.83067C268.732 2.8018 268.962 2.79293 269.183 2.78626C269.242 2.78404 269.318 2.82178 269.359 2.85066C269.382 2.8662 269.359 2.9084 269.332 2.93061C269.251 2.9928 269.151 3.05056 269.079 3.11497C269.07 3.12386 269.156 3.16382 269.206 3.18159C269.327 3.22157 269.467 3.21492 269.63 3.19715C269.77 3.1816 269.914 3.2127 270.014 3.27933C270.054 3.30598 270.041 3.3504 269.955 3.49698C269.955 3.60581 270.05 3.55694 270.081 3.48587C270.131 3.3837 270.036 3.35039 269.856 3.40591C269.729 3.44589 269.666 3.50364 269.698 3.55029C269.716 3.57472 269.801 3.60581 269.955 3.49698C270.352 3.36372 270.65 3.3393 270.948 3.31487C271.025 3.30821 271.115 3.28598 271.169 3.29931C271.363 3.35261 271.544 3.41703 271.733 3.477C271.95 3.46368 272.153 3.43035 272.365 3.51697C272.663 3.63912 272.677 3.62802 272.966 3.60359C273.115 3.59026 273.263 3.57918 273.412 3.56807C273.561 3.55697 273.679 3.59027 273.81 3.64136C274.076 3.74574 274.099 3.74573 274.275 3.60359C274.378 3.51697 274.451 3.4881 274.581 3.52808C275.015 3.66356 275.019 3.67244 275.389 3.63246C275.696 3.59915 275.985 3.59026 276.211 3.71686C276.364 3.8057 276.414 3.78572 276.536 3.69244C276.861 3.4459 277.01 3.45033 277.619 3.62802C277.904 3.71242 278.197 3.62136 278.486 3.61026C278.73 3.60137 278.901 3.65467 278.919 3.79459C278.933 3.88121 278.973 3.94341 279.136 3.97229C279.199 3.98339 279.276 3.99893 279.339 3.99449C279.714 3.96784 280.084 3.93674 280.458 3.90565C280.648 3.8901 280.752 3.78573 280.716 3.64803C280.675 3.50144 280.747 3.44811 281.018 3.40591C281.181 3.38148 281.312 3.38594 281.443 3.42592C281.587 3.47034 281.546 3.51032 281.42 3.59028C281.118 3.78573 281.154 3.90564 281.542 4.04113C281.677 4.08777 281.785 4.12999 281.817 4.19884C281.835 4.23437 281.817 4.28101 281.858 4.30767C282.079 4.45647 282.386 4.55199 282.729 4.62306C283.058 4.56309 283.284 4.66302 283.537 4.74298C283.736 4.80517 283.97 4.75188 284.182 4.72967C284.422 4.70524 284.62 4.723 284.792 4.80517C284.914 4.86292 285.04 4.88956 285.189 4.87846C285.487 4.85403 285.789 4.83849 286.083 4.80295C286.335 4.77186 286.525 4.81628 286.683 4.8918C286.882 4.9873 287.103 4.92288 287.31 4.93621C287.59 4.95175 287.73 5.14942 288.096 5.09612C288.313 5.06502 288.538 5.05392 288.764 5.04504C288.823 5.04281 288.895 5.08058 288.944 5.10723C289.184 5.22939 289.464 5.22272 289.77 5.18719C289.983 5.16275 290.19 5.14055 290.398 5.22495C290.741 5.3671 291.12 5.49148 291.481 5.62253C291.531 5.72469 291.495 5.84461 291.752 5.90457C291.887 5.93567 292.014 5.98233 292.118 6.03341C292.244 6.09338 292.361 6.10893 292.524 6.09338C292.817 6.06229 293.124 6.0556 293.413 6.01563C293.679 5.98009 293.846 6.05341 294.009 6.12226C294.14 6.17778 294.262 6.20442 294.42 6.16444C294.582 6.12669 294.7 6.15111 294.83 6.21108C295.016 6.29326 295.029 6.28439 295.643 6.30882C295.706 6.31104 295.783 6.34434 295.819 6.37321C295.837 6.38876 295.796 6.4332 295.765 6.45541C295.724 6.48206 295.661 6.51314 295.602 6.5198C294.934 6.57755 294.262 6.62863 293.594 6.68638C293.526 6.69304 293.454 6.70861 293.404 6.73082C293.35 6.75525 293.282 6.78854 293.282 6.81964C293.282 6.84185 293.372 6.86851 293.436 6.88406C293.634 6.93514 293.869 6.85741 294.063 6.91515C294.194 6.95291 294.302 7.0062 294.433 7.04174C294.487 7.05729 294.573 7.05508 294.641 7.05063C294.867 7.03509 295.088 7.01288 295.313 6.99955C295.377 6.99733 295.449 7.01955 295.508 7.03732C295.941 7.17058 295.941 7.17058 296.315 7.1417C296.464 7.1306 296.622 7.09728 296.762 7.11061C296.898 7.12393 297.015 7.1839 297.137 7.22166C297.39 7.30161 297.629 7.37935 297.647 7.55259C297.656 7.61922 297.805 7.67696 297.954 7.6814C298.098 7.68584 298.252 7.66143 298.401 7.64811C298.753 7.62145 298.753 7.62145 299.209 7.75693C299.335 7.79469 299.471 7.79913 299.633 7.77692C299.696 7.76803 299.773 7.77693 299.841 7.78803C300.062 7.82135 300.062 7.86354 299.917 7.94349C299.714 8.06121 299.732 8.07232 300.301 8.17227C300.518 8.21002 300.685 8.2811 300.865 8.34329C301.159 8.44324 301.154 8.44322 300.96 8.57426C300.915 8.60313 300.874 8.63423 300.829 8.66533C300.698 8.75195 300.595 8.84523 300.324 8.85411C300.026 8.86299 299.728 8.89854 299.43 8.92297C299.141 8.94741 299.064 9.00069 299.091 9.15172C299.123 9.33385 299.182 9.35384 299.701 9.35162C299.85 9.35162 299.981 9.36938 300.093 9.42935C300.039 9.50042 299.94 9.55595 299.796 9.56928C299.425 9.60259 299.051 9.63147 298.681 9.66035C298.383 9.68478 298.085 9.7092 297.787 9.73363C297.602 9.74918 297.485 9.86468 297.534 9.9935C297.561 10.0668 297.584 10.1401 297.606 10.2134C297.656 10.36 297.751 10.3977 298.053 10.3911C298.13 10.3889 298.202 10.3711 298.274 10.3755C298.568 10.3911 298.708 10.5754 299.06 10.5376C299.353 10.5065 299.66 10.4999 299.949 10.4599C300.215 10.4244 300.364 10.5044 300.549 10.5643C300.613 10.5843 300.68 10.6265 300.735 10.6243C301.109 10.5998 301.484 10.5754 301.849 10.5332C302.021 10.5155 302.125 10.5288 302.26 10.5821C302.585 10.7109 302.594 10.7042 303.077 10.6643C303.429 10.6332 303.434 10.6376 303.885 10.7731C304.012 10.8108 304.147 10.8108 304.309 10.7931C304.522 10.7709 304.743 10.7353 304.964 10.7686C305.032 10.7775 305.117 10.8042 305.14 10.8331C305.154 10.853 305.09 10.9019 305.036 10.9175C304.639 11.033 304.174 11.013 303.741 11.0596C303.605 11.0729 303.47 11.0307 303.357 10.9708C303.24 10.9108 303.113 10.8864 302.96 10.8975C302.662 10.9219 302.359 10.9374 302.066 10.973C301.813 11.0041 301.637 10.953 301.461 10.8841C301.402 10.8619 301.335 10.8197 301.276 10.8219C300.608 10.8664 299.936 10.9108 299.272 10.973C299.006 10.9996 298.852 10.9286 298.672 10.8686C298.608 10.8486 298.545 10.8064 298.487 10.8086C298.261 10.8175 298.04 10.8419 297.814 10.8597C296.993 10.9263 296.176 10.993 295.354 11.0552C295.3 11.0596 295.232 11.013 295.169 10.993C295.047 10.953 294.921 10.9152 294.794 10.8775C294.569 10.8952 294.347 10.9174 294.122 10.9308C293.959 10.9397 293.815 10.9708 293.792 11.0552C293.779 11.1107 293.928 11.1618 294.086 11.1573C294.239 11.1529 294.393 11.1262 294.519 11.1551C295.146 11.2972 295.146 11.2995 295.539 11.2706C295.882 11.2439 295.846 11.2217 296.148 11.3439C296.279 11.3972 296.397 11.4283 296.546 11.415C296.916 11.3839 297.29 11.3528 297.665 11.3261C297.724 11.3217 297.8 11.3439 297.859 11.3617C298.302 11.4949 298.302 11.4994 298.667 11.466C299.146 11.4261 299.164 11.415 299.484 11.5504C299.705 11.6437 299.908 11.5793 300.121 11.5749C300.364 11.6615 300.631 11.7392 300.852 11.837C301.114 11.9525 301.389 11.9325 301.687 11.8991C301.908 11.8747 302.125 11.8658 302.305 11.9569C302.477 12.0413 302.684 12.0502 302.919 12.028C303.131 12.008 303.348 11.9658 303.569 12.0146C303.628 12.028 303.718 12.0613 303.714 12.0813C303.709 12.1124 303.65 12.1568 303.592 12.1701C303.176 12.2612 302.721 12.259 302.283 12.3012C302.224 12.3078 302.147 12.2834 302.089 12.2656C301.962 12.2256 301.84 12.179 301.719 12.1368C301.497 12.1501 301.272 12.1546 301.055 12.1812C300.888 12.2012 300.762 12.199 300.64 12.1457C300.527 12.0968 300.405 12.0368 300.27 12.0213C300.134 12.0058 299.976 12.0391 299.827 12.0524C299.678 12.0657 299.507 12.0591 299.389 12.0946C299.272 12.1301 299.2 12.2079 299.123 12.2701C299.037 12.3389 298.92 12.3611 298.748 12.3678C298.59 12.3745 298.464 12.3656 298.347 12.3034C298.297 12.2767 298.229 12.2567 298.162 12.239C298.098 12.2234 298.026 12.199 297.967 12.2034C297.295 12.2545 296.627 12.31 295.954 12.3634C295.62 12.39 295.625 12.39 294.93 12.2589C294.867 12.2478 294.79 12.2323 294.727 12.2367C294.352 12.2634 293.982 12.2945 293.607 12.3256C293.228 12.3567 293.233 12.3522 292.587 12.2123C292.47 12.1857 292.298 12.2212 292.158 12.2168C291.865 12.2056 291.72 12.0191 291.377 12.0546C291.084 12.0857 290.777 12.0924 290.484 12.1324C290.217 12.1679 290.064 12.0902 289.883 12.0302C289.82 12.0102 289.752 11.9658 289.698 11.9702C289.026 12.0191 288.358 12.0746 287.464 12.0813C287.243 12.0813 287.342 12.1279 287.486 12.1435C287.694 12.1679 287.762 12.1213 287.649 12.0324C287.568 11.9702 287.45 11.9391 287.356 11.9547C287.306 11.9635 287.243 12.0058 287.464 12.0813C287.699 12.1657 287.685 12.2123 287.726 12.239C287.825 12.3034 287.965 12.33 288.109 12.3211C288.335 12.3056 288.556 12.2834 288.782 12.2701C288.845 12.2656 288.922 12.2812 288.981 12.2989C289.477 12.4366 289.482 12.4455 290.01 12.3922C290.177 12.3767 290.299 12.3767 290.429 12.4189C290.61 12.4766 290.741 12.5743 291.016 12.5432C291.382 12.501 291.757 12.4766 292.131 12.4522C292.19 12.4478 292.253 12.4877 292.321 12.5055C292.506 12.5588 292.641 12.6588 292.917 12.6166C293.129 12.5832 293.359 12.5743 293.585 12.5677C293.643 12.5654 293.734 12.601 293.761 12.6299C293.815 12.6809 293.747 12.7409 293.594 12.7831C293.53 12.8009 293.445 12.7964 293.372 12.8031C293.075 12.8275 292.777 12.8542 292.479 12.8742C292.321 12.8853 292.172 12.9186 292.154 13.0008C292.14 13.0563 292.303 13.1052 292.456 13.1007C292.682 13.0941 292.908 13.0763 293.124 13.0474C293.508 12.9986 293.842 13.0119 294.153 13.1518C294.375 13.2495 294.361 13.214 294.596 13.5027C294.654 13.576 294.83 13.5827 294.984 13.5782C295.354 13.5671 295.526 13.6005 295.494 13.6693C295.453 13.7537 295.322 13.7804 295.155 13.7915C294.857 13.8092 294.56 13.8381 294.262 13.8625C294.189 13.8692 294.108 13.8825 294.04 13.8781C293.973 13.8736 293.91 13.847 293.851 13.827C293.725 13.7848 293.616 13.7204 293.481 13.7048C293.345 13.6893 293.187 13.7226 293.038 13.7359C292.889 13.747 292.732 13.7804 292.596 13.7648C292.461 13.7493 292.348 13.6826 292.226 13.6427C292.167 13.6227 292.095 13.5916 292.036 13.5938C291.738 13.6116 291.441 13.6404 291.143 13.6626C290.777 13.6915 290.777 13.6915 290.335 13.5538C290.208 13.5138 290.077 13.5161 289.91 13.5338C289.549 13.5694 289.545 13.5627 288.886 13.4339C288.823 13.4205 288.746 13.405 288.683 13.4117C288.01 13.4628 287.342 13.5183 286.674 13.5716C286.101 13.6182 286.101 13.6182 285.785 13.8403C285.55 14.0047 285.546 14.0047 285.776 14.0802C285.961 14.1424 286.128 14.2334 286.331 14.2668C286.52 14.2979 286.755 14.1979 286.963 14.3001C287.067 14.3512 287.202 14.4067 287.333 14.4156C287.541 14.4267 287.762 14.3623 287.96 14.46C288.06 14.5089 288.209 14.56 288.335 14.5622C288.556 14.5666 288.782 14.5311 289.003 14.5155C289.071 14.5111 289.148 14.5111 289.211 14.5222C289.278 14.5355 289.337 14.5622 289.396 14.5844C289.576 14.6599 289.77 14.6954 290.005 14.6577C290.389 14.5955 290.732 14.6266 291.03 14.7687C291.07 14.7887 291.17 14.7909 291.233 14.7821C291.395 14.7598 291.535 14.7576 291.657 14.7998C291.707 14.8176 291.779 14.8487 291.77 14.8687C291.757 14.902 291.702 14.9464 291.644 14.9575C291.219 15.033 290.763 15.0419 290.326 15.0819C290.267 15.0863 290.195 15.0574 290.136 15.0375C290.01 14.9975 289.901 14.9309 289.766 14.9153C289.631 14.8998 289.473 14.9286 289.324 14.9397C289.175 14.9508 289.017 14.9842 288.881 14.9708C288.746 14.9553 288.619 14.8998 288.511 14.8509C288.385 14.7954 288.263 14.7887 288.096 14.8109C287.879 14.8398 287.654 14.8442 287.432 14.8598C287.31 14.8176 287.189 14.7709 287.062 14.731C287.004 14.711 286.931 14.6865 286.868 14.6888C286.57 14.7065 286.272 14.7332 285.974 14.7576C285.676 14.782 285.676 14.7821 285.171 14.6444C285.112 14.6288 285.035 14.611 284.972 14.6155C284.598 14.6421 284.227 14.6754 283.853 14.7021C283.708 14.7132 283.578 14.6821 283.46 14.6221C283.347 14.5622 283.212 14.5288 283.072 14.5399C282.476 14.5866 281.88 14.631 281.284 14.6865C281.045 14.7088 280.842 14.6888 280.68 14.6088C280.49 14.5177 280.278 14.54 280.057 14.5577C279.556 14.6022 279.551 14.5999 279.231 14.4866C279.168 14.4644 279.104 14.4222 279.046 14.4244C278.527 14.4578 278.003 14.4889 277.488 14.5422C277.218 14.571 277.073 14.4933 276.893 14.4356C276.829 14.4156 276.762 14.3734 276.708 14.3778C276.333 14.4022 275.958 14.4245 275.593 14.4689C275.227 14.5133 275.087 14.3068 274.812 14.309C274.437 14.3112 274.067 14.3623 273.697 14.3934C273.399 14.4178 273.101 14.4422 272.803 14.4667C272.505 14.4911 272.207 14.5111 271.909 14.5399C271.751 14.5555 271.634 14.5355 271.503 14.48C271.336 14.4067 271.138 14.349 270.957 14.2823C270.682 14.1868 270.682 14.1868 270.348 14.2135C270.275 14.2201 270.199 14.2246 270.126 14.2312C269.58 14.2801 269.58 14.2757 268.885 14.1357C268.853 14.1291 268.772 14.1535 268.741 14.1713C268.646 14.229 268.56 14.2912 268.474 14.3512C268.353 14.3156 268.204 14.2956 268.122 14.2446C267.892 14.1002 267.531 14.2979 267.296 14.1557C267.21 14.1024 267.061 14.0558 266.926 14.0424C266.786 14.0291 266.628 14.0602 266.484 14.0735C266.109 14.1068 266.109 14.1046 265.789 14.3023C265.626 14.4 265.391 14.3823 265.179 14.4045C264.958 14.4289 264.746 14.4422 264.561 14.3512C264.394 14.269 264.191 14.249 263.952 14.2757C263.658 14.309 263.356 14.3289 263.058 14.3489C262.995 14.3534 262.918 14.3423 262.855 14.329C262.164 14.1979 262.164 14.1957 261.83 14.2246C261.681 14.2379 261.528 14.2423 261.383 14.2623C261.139 14.2979 260.954 14.2512 260.778 14.1801C260.72 14.1579 260.652 14.1157 260.593 14.118C260.295 14.1291 260.002 14.1491 259.708 14.1691C259.483 14.1846 259.257 14.1935 259.04 14.2246C258.679 14.2757 258.503 14.1313 258.255 14.0646C257.885 14.0935 257.51 14.1135 257.14 14.1535C256.969 14.1713 256.856 14.1646 256.725 14.1113C256.558 14.0447 256.404 13.9692 256.134 14.0025C255.772 14.0469 255.393 14.0624 255.023 14.0891C254.775 14.0202 254.594 13.8803 254.238 13.9314C254.021 13.9625 253.791 13.9691 253.57 13.9869C253.272 14.0113 252.974 14.0336 252.676 14.0602C252.356 14.0869 252.36 14.0802 251.868 13.9492C251.584 13.8714 251.29 13.958 251.001 13.9714C250.776 13.9825 250.663 14.0846 250.717 14.2157C250.771 14.3467 250.649 14.4489 250.442 14.4667C249.923 14.5089 249.399 14.5533 248.88 14.591C248.817 14.5955 248.74 14.5799 248.681 14.5644C248.126 14.4244 248.126 14.4267 247.878 14.4467C247.508 14.48 247.129 14.4977 246.763 14.5399C246.51 14.5688 246.325 14.5222 246.163 14.4467C246.036 14.3889 245.919 14.3756 245.756 14.3889C243.969 14.5377 242.181 14.6754 240.398 14.8287C240.132 14.8509 239.979 14.7865 239.798 14.7265C239.735 14.7065 239.676 14.6643 239.613 14.6643C239.464 14.6643 239.315 14.6843 239.166 14.6977C238.498 14.751 237.83 14.8154 237.158 14.8553C236.873 14.8731 236.796 14.9753 236.675 15.0597C236.58 15.1241 236.472 15.1507 236.305 15.1596C236.142 15.1685 236.025 15.1574 235.898 15.0996C235.736 15.0241 235.551 14.9775 235.298 15.0086C235.005 15.0441 234.707 15.0597 234.404 15.0841C234.251 15.0952 234.133 15.1352 234.084 15.2151C234.075 15.2285 234.169 15.2618 234.224 15.2818C234.404 15.3484 234.576 15.4262 234.779 15.4728C234.986 15.5194 235.212 15.4661 235.429 15.4528C235.505 15.4483 235.578 15.435 235.65 15.4372C235.718 15.4395 235.799 15.4506 235.849 15.4706C236.083 15.5705 236.331 15.6394 236.656 15.5794C236.936 15.6083 237.081 15.7926 237.437 15.7438C237.654 15.7149 237.88 15.7016 238.105 15.6904C238.164 15.6882 238.227 15.7282 238.291 15.7482C238.471 15.8037 238.616 15.8926 238.886 15.8548C239.175 15.8148 239.482 15.8082 239.776 15.7771C239.938 15.7593 240.055 15.7749 240.182 15.8326C240.344 15.9059 240.529 15.9614 240.782 15.9259C240.999 15.8948 241.229 15.8881 241.45 15.8681C241.739 15.8437 241.739 15.8459 242.254 15.9836C242.312 15.9992 242.389 16.0169 242.452 16.0125C242.827 15.9858 243.197 15.9525 243.572 15.9259C243.716 15.9148 243.856 15.9436 243.955 16.008C243.996 16.0347 243.982 16.0791 243.996 16.1169C243.251 16.1769 242.506 16.2279 241.766 16.3012C241.486 16.3301 241.36 16.239 241.175 16.188C241.112 16.1702 241.044 16.1324 240.985 16.1369C240.462 16.1746 239.943 16.2146 239.423 16.2635C239.261 16.279 239.139 16.2701 239.017 16.2057C238.706 16.0347 238.327 16.128 237.975 16.1524C237.704 16.1702 237.618 16.239 237.65 16.3856C237.69 16.5589 237.853 16.6122 238.268 16.5811C238.417 16.57 238.566 16.5544 238.715 16.5455C238.859 16.5367 238.99 16.5655 239.108 16.6255C239.22 16.6855 239.356 16.7166 239.496 16.7077C239.794 16.6877 240.096 16.6677 240.385 16.6344C240.624 16.6077 240.823 16.6299 240.99 16.7121C241.175 16.8032 241.392 16.7832 241.608 16.7632C242.114 16.7188 242.118 16.721 242.434 16.8321C242.497 16.8543 242.561 16.8965 242.619 16.8943C243.138 16.8609 243.662 16.8321 244.172 16.7788C244.438 16.7521 244.592 16.8232 244.768 16.8809C244.831 16.9009 244.894 16.9453 244.953 16.9409C245.328 16.9165 245.702 16.892 246.068 16.8498C246.239 16.8298 246.343 16.8432 246.483 16.8965C246.817 17.0275 246.826 17.0231 247.3 16.9809C247.445 16.9675 247.602 16.9431 247.738 16.9609C247.873 16.9786 247.982 17.0431 248.108 17.083C248.167 17.1008 248.239 17.1252 248.302 17.1208C248.6 17.103 248.898 17.0764 249.196 17.0519C249.476 17.0275 249.476 17.0297 249.999 17.1674C250.211 17.2252 250.433 17.1763 250.645 17.1585C250.875 17.1386 251.083 17.1386 251.259 17.2252C251.435 17.3118 251.647 17.3074 251.873 17.2896C252.085 17.2718 252.301 17.223 252.518 17.2829C253.015 17.4206 253.015 17.4228 253.322 17.3962C253.768 17.3584 254.211 17.3229 254.662 17.2896C254.721 17.2851 254.797 17.3118 254.856 17.3296C254.983 17.3696 255.091 17.4362 255.226 17.4517C255.362 17.4695 255.52 17.4428 255.664 17.4295C256.129 17.3873 256.161 17.3718 256.472 17.5184C256.734 17.6383 257.059 17.4651 257.303 17.6028C257.443 17.6805 257.632 17.7427 257.894 17.7049C258.111 17.6738 258.336 17.6649 258.562 17.6472C258.919 17.6183 258.919 17.6205 259.37 17.7538C259.429 17.7716 259.505 17.7938 259.564 17.7893C259.862 17.7715 260.164 17.756 260.453 17.716C260.792 17.6694 261.008 17.7538 261.261 17.836C261.46 17.9004 261.695 17.8471 261.907 17.8249C262.137 17.8026 262.345 17.8093 262.516 17.8959C262.697 17.9848 262.909 17.9737 263.135 17.9559C263.347 17.9403 263.563 17.8893 263.78 17.9514C264.245 18.0891 264.245 18.0891 264.583 18.0625C264.881 18.0381 265.179 18.0114 265.477 17.9937C265.536 17.9892 265.608 18.0181 265.667 18.0381C265.793 18.078 265.901 18.1447 266.037 18.1602C266.172 18.1758 266.33 18.1469 266.479 18.1358C266.628 18.1247 266.786 18.0914 266.922 18.1047C267.057 18.118 267.183 18.1736 267.292 18.2224C267.418 18.2802 267.535 18.2868 267.707 18.2646C267.924 18.2357 268.149 18.2291 268.37 18.2135C268.492 18.2557 268.619 18.2979 268.736 18.3446C268.858 18.3934 268.989 18.389 269.156 18.3734C269.711 18.3201 269.716 18.3268 270.181 18.4645C270.393 18.5267 270.614 18.4756 270.826 18.4601C271.052 18.4423 271.264 18.4334 271.44 18.5223C271.611 18.6067 271.824 18.6178 272.049 18.5911C272.194 18.5733 272.347 18.5622 272.496 18.5556C272.564 18.5534 272.645 18.5622 272.695 18.58C272.934 18.6733 273.169 18.7577 273.498 18.6977C273.787 18.7155 273.932 18.8976 274.279 18.8621C274.572 18.831 274.879 18.8243 275.168 18.7843C275.435 18.7488 275.624 18.811 275.76 18.8887C276.003 19.0264 276.346 18.8399 276.59 18.9754C276.73 19.0531 276.911 19.1153 277.181 19.082C277.479 19.0464 277.574 19.0931 277.66 19.233C277.71 19.3129 277.701 19.3774 277.61 19.4396C277.52 19.504 277.421 19.4929 277.276 19.4196C277.109 19.3374 276.911 19.3218 276.671 19.3396C276.437 19.3574 276.292 19.2419 276.098 19.1975C275.904 19.1508 275.674 19.2286 275.471 19.1686C274.992 19.0287 274.992 19.0287 274.667 19.0553C274.446 19.0731 274.216 19.082 273.999 19.1131C273.742 19.1508 273.575 19.082 273.399 19.0198C273.336 18.9976 273.272 18.9554 273.218 18.9576C272.699 18.9909 272.176 19.022 271.661 19.0775C271.39 19.1064 271.246 19.0264 271.065 18.9709C271.002 18.9509 270.934 18.9109 270.88 18.9154C270.433 18.9465 269.991 18.9865 269.544 19.0242C269.458 19.0842 269.363 19.1419 269.282 19.2063C269.197 19.273 269.079 19.3018 268.908 19.2996C268.623 19.2996 268.343 19.3929 268.059 19.2752C267.766 19.1553 267.743 19.1619 267.459 19.1908C267.098 19.2286 266.714 19.2197 266.375 19.3063C266.317 19.3218 266.254 19.364 266.254 19.3951C266.249 19.4151 266.344 19.444 266.402 19.4618C266.601 19.5151 266.831 19.4373 267.03 19.4929C267.161 19.5284 267.269 19.5817 267.4 19.6194C267.454 19.635 267.535 19.6328 267.608 19.6306C267.684 19.6283 267.757 19.6128 267.829 19.615C267.897 19.6172 267.969 19.6306 268.023 19.6505C268.271 19.7349 268.533 19.8127 268.754 19.9126C268.971 20.0104 269.174 19.9437 269.391 19.9393C270.257 20.0948 270.257 20.097 270.84 20.0481C270.984 20.037 271.133 20.0237 271.282 20.0259C271.345 20.0259 271.404 20.0659 271.467 20.0881C271.648 20.1547 271.819 20.2147 272.072 20.1791C272.289 20.1481 272.519 20.1414 272.74 20.1214C273.038 20.097 273.038 20.097 273.543 20.2369C273.67 20.2724 273.805 20.268 273.968 20.2502C274.108 20.2347 274.252 20.268 274.351 20.3324C274.392 20.3591 274.378 20.4035 274.392 20.4412C273.945 20.4768 273.494 20.5012 273.06 20.5545C272.781 20.5878 272.654 20.4923 272.469 20.4412C272.406 20.4235 272.338 20.3857 272.279 20.3902C271.837 20.4235 271.395 20.4612 270.952 20.5056C270.898 20.5101 270.831 20.5612 270.826 20.5923C270.817 20.65 270.93 20.7055 271.092 20.7033C271.309 20.7011 271.521 20.6633 271.715 20.7544C271.878 20.8343 272.081 20.8699 272.32 20.8344C272.464 20.8144 272.618 20.8144 272.762 20.7966C273.146 20.7433 273.494 20.7544 273.783 20.9054C274.004 20.9454 274.22 20.9077 274.433 20.8877C274.591 20.8721 274.744 20.8566 274.857 20.8988C275.096 20.9876 275.331 21.0764 275.66 21.0165C276.017 21.0787 276.288 21.2097 276.586 21.3163C276.726 21.3674 276.834 21.3963 276.996 21.363C277.064 21.3496 277.145 21.3496 277.218 21.343C277.367 21.3319 277.524 21.2985 277.66 21.3119C277.795 21.3274 277.908 21.3918 278.03 21.4318C278.089 21.4518 278.156 21.4851 278.215 21.4829C278.441 21.4718 278.662 21.4496 278.883 21.4318C279.104 21.4163 279.325 21.4007 279.547 21.3852C279.732 21.4429 279.921 21.5007 280.106 21.5584C280.404 21.534 280.702 21.5095 280.996 21.4873C281.325 21.4607 281.325 21.4629 281.799 21.6006C282.011 21.6628 282.237 21.6228 282.44 21.5939C282.779 21.5473 283.004 21.6317 283.244 21.7206C283.293 21.7383 283.383 21.7494 283.442 21.7405C283.677 21.7094 283.88 21.7339 284.051 21.816C284.173 21.8738 284.295 21.9005 284.444 21.8894C284.963 21.8472 285.482 21.8027 286.001 21.765C286.065 21.7605 286.137 21.7805 286.195 21.7983C286.656 21.9338 286.66 21.9404 286.999 21.9049C287.301 21.8738 287.581 21.8605 287.82 21.9826C287.87 22.0093 287.947 22.047 288.001 22.0448C288.371 22.0226 288.746 21.9982 289.111 21.9604C289.278 21.9426 289.396 21.9493 289.527 22.0004C289.694 22.0648 289.843 22.1426 290.118 22.1137C290.881 22.0315 290.885 22.0448 291.788 22.1981C291.851 22.2092 291.937 22.1914 292.009 22.1825C292.163 22.1603 292.276 22.1914 292.411 22.2425C292.713 22.358 292.722 22.3513 293.011 22.3269C293.233 22.3069 293.463 22.3025 293.679 22.2691C294.013 22.2203 294.235 22.3069 294.483 22.3891C294.681 22.4535 294.912 22.4002 295.124 22.3802C295.354 22.358 295.562 22.3646 295.733 22.449C295.851 22.5068 295.977 22.5379 296.126 22.5268C296.645 22.4868 297.164 22.4424 297.683 22.4024C297.746 22.398 297.823 22.4157 297.882 22.4313C298.396 22.569 298.396 22.5757 298.906 22.5246C299.069 22.509 299.204 22.5046 299.326 22.5512C299.444 22.5956 299.57 22.6378 299.692 22.68C299.913 22.6645 300.139 22.66 300.355 22.6334C300.522 22.6134 300.64 22.6223 300.771 22.6689C300.942 22.7289 301.087 22.8333 301.357 22.7822C301.497 22.7578 301.66 22.7644 301.8 22.7422C301.967 22.7134 302.08 22.7311 302.211 22.7889C302.373 22.8577 302.54 22.9288 302.802 22.8932C303.091 22.8533 303.398 22.8466 303.691 22.8155C303.853 22.7977 303.966 22.8155 304.097 22.8733C304.26 22.9466 304.445 22.9932 304.698 22.9643C305.212 22.9088 305.217 22.9199 305.718 23.0598C305.844 23.0954 305.98 23.0909 306.142 23.0732C306.282 23.0576 306.426 23.0909 306.526 23.1553C306.62 23.2264 306.611 23.2708 306.62 23.3086ZM266.398 3.2771C266.249 3.28821 266.1 3.30153 265.883 3.1083C265.87 3.07499 265.879 3.03502 265.847 3.00614C265.775 2.94618 265.662 2.90398 265.527 2.89732C265.283 2.88843 264.99 2.96393 264.994 3.02168C264.999 3.07054 265.075 3.11273 265.224 3.15271C265.288 3.16826 265.337 3.19492 265.396 3.21269C265.567 3.26377 265.703 3.36373 265.951 3.31265C265.906 3.17494 265.929 3.2438 265.951 3.31265C265.929 3.39705 265.996 3.45702 266.159 3.48145C266.204 3.48811 266.272 3.48366 266.308 3.47033C266.448 3.42147 266.47 3.35485 266.366 3.17939C266.348 3.20826 266.362 3.25933 266.402 3.27266C266.443 3.28598 266.542 3.27489 266.592 3.25935C266.718 3.21715 266.782 3.16161 266.75 3.11497C266.732 3.09054 266.646 3.05945 266.592 3.05945C266.497 3.05945 266.412 3.10831 266.398 3.2771ZM302.897 29.0344C302.567 29.0766 302.188 29.0611 301.858 29.1477C301.8 29.1632 301.741 29.2032 301.737 29.2343C301.732 29.2543 301.822 29.2832 301.877 29.2987C301.998 29.3342 302.134 29.3231 302.292 29.312C302.531 29.2965 302.671 29.3986 302.856 29.4497C302.915 29.4653 302.991 29.4764 303.055 29.4719C303.42 29.4453 303.781 29.4164 304.147 29.3853C304.21 29.3787 304.278 29.3631 304.332 29.3431C304.513 29.2787 304.494 29.2365 304.318 29.1877C304.124 29.1344 303.971 29.0455 303.772 29.0033C303.488 28.9433 303.199 29.0233 302.897 29.0344ZM277.263 30.6558C277.042 30.6735 276.825 30.6913 276.604 30.7091C276.531 30.7157 276.455 30.7179 276.387 30.7268C276.247 30.7424 276.143 30.789 276.076 30.8623C276.179 30.92 276.306 30.9534 276.446 30.9467C276.667 30.9334 276.884 30.9045 277.105 30.8978C277.344 30.889 277.484 30.9889 277.669 31.04C277.728 31.0555 277.8 31.0578 277.868 31.06C278.202 31.0689 278.405 30.9534 278.341 30.7912C278.296 30.6646 278.125 30.5891 277.917 30.6047C277.701 30.6202 277.479 30.638 277.263 30.6558ZM304.44 25.7517C304.495 25.7139 304.553 25.6873 304.58 25.654C304.662 25.5407 304.63 25.4563 304.481 25.3675C304.3 25.2586 304.079 25.3319 303.876 25.343C303.826 25.3453 303.772 25.3919 303.745 25.4208C303.727 25.4408 303.727 25.483 303.754 25.4941C303.975 25.5829 304.21 25.6651 304.44 25.7517ZM265.283 19.1908C265.066 19.2086 264.845 19.2219 264.629 19.2463C264.574 19.253 264.525 19.2952 264.493 19.3241C264.435 19.3774 264.498 19.4506 264.683 19.4573C264.895 19.4662 265.116 19.4284 265.337 19.4107C265.617 19.3885 265.784 19.3063 265.68 19.2352C265.581 19.1664 265.446 19.153 265.283 19.1908ZM27.681 14.4445C27.8254 14.4334 27.9743 14.4245 28.1188 14.4089C28.2542 14.3934 28.3581 14.3445 28.4258 14.2712C28.313 14.2135 28.1865 14.1824 28.0466 14.189C27.8254 14.2024 27.6088 14.2201 27.3921 14.2423C27.2567 14.2557 27.1259 14.3045 27.0943 14.38C27.0627 14.4378 27.365 14.4711 27.681 14.4445ZM246.194 14.1024C246.253 14.1224 246.312 14.1624 246.37 14.1624C246.515 14.1624 246.664 14.149 246.799 14.1268C246.858 14.118 246.903 14.078 246.93 14.0469C246.948 14.0269 246.944 13.9914 246.916 13.9736C246.786 13.867 246.262 13.9047 246.176 14.0269C246.167 14.0491 246.19 14.078 246.194 14.1024ZM231.953 1.94004C231.967 1.97557 231.971 2.01111 231.989 2.04664C232.025 2.11327 232.125 2.16215 232.269 2.19546C232.382 2.13994 232.441 2.07776 232.436 2.01113C232.432 1.97559 232.418 1.94003 232.4 1.90449C232.364 1.83786 232.265 1.78902 232.12 1.7557C232.007 1.80901 231.953 1.87119 231.953 1.94004ZM314.872 31.0422C314.831 31.0711 314.79 31.1 314.745 31.1266C314.867 31.191 314.98 31.211 315.066 31.1755C315.12 31.1533 315.152 31.1199 315.192 31.0911C315.07 31.0267 314.962 31.0089 314.872 31.0422ZM312.064 31.3443C312.123 31.3643 312.177 31.3909 312.24 31.4042C312.344 31.4265 312.439 31.3887 312.511 31.3087C312.452 31.2887 312.398 31.2621 312.335 31.2488C312.231 31.2265 312.136 31.2643 312.064 31.3443ZM313.842 30.9378C313.811 30.9911 313.874 31.0356 314.041 31.0733C314.082 31.0444 314.136 31.0178 314.163 30.9867C314.208 30.9356 314.131 30.889 313.969 30.8534C313.924 30.8801 313.883 30.909 313.842 30.9378ZM304.314 28.5436C304.282 28.5969 304.345 28.6413 304.513 28.679C304.553 28.6502 304.607 28.6235 304.634 28.5924C304.68 28.5413 304.603 28.4947 304.44 28.4592C304.395 28.4858 304.355 28.5147 304.314 28.5436ZM291.332 12.8275C291.292 12.8564 291.251 12.8853 291.206 12.9119C291.328 12.9763 291.441 12.9963 291.526 12.9608C291.58 12.9386 291.612 12.9053 291.653 12.8764C291.531 12.812 291.423 12.7942 291.332 12.8275ZM278.897 4.48978C279.005 4.50533 279.095 4.47424 279.172 4.39207C279.113 4.37208 279.059 4.34542 278.996 4.33209C278.892 4.30988 278.797 4.34765 278.725 4.42761C278.784 4.44982 278.843 4.46979 278.897 4.48978ZM272.293 3.96784C272.252 3.99671 272.212 4.02559 272.167 4.05224C272.289 4.11665 272.401 4.13663 272.487 4.1011C272.541 4.07889 272.573 4.04557 272.613 4.0167C272.492 3.95229 272.383 3.93675 272.293 3.96784ZM227.512 1.93782C227.471 1.96669 227.43 1.99556 227.385 2.02222C227.507 2.08663 227.62 2.10661 227.706 2.07107C227.76 2.04886 227.791 2.01554 227.832 1.98667C227.71 1.92226 227.602 1.90672 227.512 1.93782ZM4.53417 20.0081C4.47549 19.9881 4.41686 19.9682 4.3627 19.946C4.2318 20.0059 4.19118 20.0614 4.26341 20.1036C4.30854 20.1303 4.3762 20.1458 4.43488 20.1658C4.57029 20.1059 4.60187 20.0525 4.53417 20.0081Z" fill="#FFE492"/>
<path d="M30.715 12.1658C30.1959 12.208 29.6814 12.2613 29.1623 12.288C28.887 12.3013 28.7877 12.3968 28.6749 12.4856C28.5846 12.5567 28.4808 12.5789 28.3138 12.5922C26.9054 12.7011 25.5016 12.8166 24.0978 12.9298C23.9218 12.901 23.836 12.8543 23.8766 12.7988C23.8992 12.7655 23.9534 12.7188 24.0076 12.7144C24.969 12.6322 25.9259 12.5478 26.8918 12.4834C27.1672 12.4656 27.244 12.3679 27.3839 12.288C27.429 12.2613 27.4652 12.2213 27.5238 12.2058C27.5825 12.188 27.6683 12.1902 27.745 12.1858C29.2978 12.0592 30.8505 11.9348 32.4033 11.8082C32.5793 11.8371 32.6651 11.8837 32.6245 11.9393C32.6019 11.9726 32.5477 12.0192 32.4935 12.0237C31.8977 12.0703 31.3063 12.1169 30.715 12.1658Z" fill="#FFE492"/>
<path d="M314.931 23.9926C314.696 24.0193 314.398 24.057 314.155 23.9282C314.037 23.866 313.911 23.8461 313.757 23.8594C313.536 23.8816 313.311 23.8994 313.085 23.9127C313.026 23.9149 312.95 23.8905 312.891 23.8705C312.764 23.8305 312.656 23.7639 312.521 23.7461C312.385 23.7283 312.223 23.7772 312.083 23.7661C311.898 23.7505 311.821 23.6906 311.871 23.6351C311.898 23.604 311.952 23.5595 312.011 23.5529C312.846 23.4707 312.85 23.4707 313.085 23.5507C313.265 23.6128 313.433 23.6817 313.69 23.6439C313.906 23.6128 314.137 23.6062 314.358 23.5862C314.665 23.5595 314.665 23.5617 315.161 23.7017C315.288 23.7372 315.423 23.735 315.586 23.715C315.726 23.6995 315.861 23.735 315.974 23.795C315.902 23.8705 315.798 23.9193 315.658 23.9327C315.432 23.9549 315.211 23.9704 314.931 23.9926Z" fill="#FFE492"/>
<path d="M306.619 23.3085C307.188 23.2619 307.761 23.2219 308.33 23.1686C308.565 23.1464 308.75 23.1709 308.912 23.2464C309.088 23.3285 309.287 23.3219 309.504 23.3063C309.639 23.2975 309.77 23.333 309.86 23.3952C309.896 23.4196 309.887 23.464 309.901 23.4996C309.404 23.5396 308.903 23.5817 308.402 23.6173C308.344 23.6217 308.271 23.5995 308.217 23.5817C308.095 23.544 307.991 23.4774 307.86 23.464C307.581 23.4329 307.301 23.4929 307.016 23.504C306.881 23.5084 306.75 23.4751 306.66 23.4152C306.624 23.3863 306.633 23.3441 306.619 23.3085Z" fill="#FFE492"/>
<path d="M101.084 4.21222C101.675 4.16335 102.266 4.11673 102.858 4.06787C103.034 4.09897 103.115 4.14338 103.079 4.1989C103.056 4.23222 103.002 4.27886 102.948 4.2833C101.765 4.38325 100.583 4.47874 99.4046 4.57425C99.2286 4.54315 99.1474 4.49874 99.1835 4.44321C99.206 4.4099 99.2602 4.36325 99.3144 4.35881C99.9012 4.30773 100.492 4.26108 101.084 4.21222Z" fill="#FFE492"/>
<path d="M9.96743 16.5544C9.70112 16.5588 9.42132 16.641 9.12341 16.5788C9.06473 16.5677 8.98346 16.5322 8.98797 16.5122C8.997 16.4788 9.05118 16.4366 9.10985 16.4233C9.36714 16.3678 9.68765 16.3611 9.81855 16.2057C9.88175 16.1257 9.9991 16.0991 10.1571 16.0835C10.3241 16.0657 10.4414 16.0724 10.5723 16.119C10.7438 16.179 10.8883 16.2901 11.1591 16.2323C11.1727 16.2678 11.2042 16.3078 11.1907 16.3411C11.1771 16.3745 11.1185 16.4056 11.0644 16.43C11.0147 16.4522 10.9469 16.4722 10.8837 16.4788C10.5858 16.5055 10.2879 16.5277 9.96743 16.5544Z" fill="#FFE492"/>
<path d="M244.723 16.1078C244.944 16.0901 245.174 16.0812 245.391 16.0501C245.562 16.0257 245.671 16.0412 245.806 16.0945C246.036 16.1878 246.05 16.1789 246.614 16.1922C246.677 16.1945 246.754 16.2278 246.79 16.2566C246.813 16.2722 246.781 16.3144 246.754 16.3366C246.713 16.3655 246.655 16.4032 246.601 16.4032C246.244 16.4099 245.883 16.5409 245.535 16.3899C245.359 16.3144 245.165 16.2788 244.926 16.3121C244.782 16.3321 244.628 16.341 244.479 16.3499C244.335 16.3588 244.186 16.3344 244.096 16.2677C243.965 16.17 244.041 16.1323 244.276 16.1389C244.425 16.1434 244.574 16.1189 244.723 16.1078Z" fill="#FFE492"/>
<path d="M326.531 31.4179C326.815 31.3956 327.099 31.369 327.388 31.3512C327.447 31.3468 327.519 31.3712 327.573 31.3868C327.79 31.4534 327.758 31.5667 327.767 31.6666C327.772 31.771 327.271 31.8554 327.059 31.7843C326.824 31.7044 326.612 31.6133 326.287 31.6622C326.161 31.68 326.012 31.64 325.93 31.5756C325.808 31.4823 325.876 31.4445 326.106 31.4512C326.242 31.4556 326.386 31.4312 326.531 31.4179Z" fill="#FFE492"/>
<path d="M183.227 1.18737C183.52 1.16293 183.814 1.1252 184.107 1.12297C184.279 1.12075 184.364 1.19403 184.324 1.24734C184.301 1.28065 184.247 1.3273 184.193 1.33174C183.606 1.38504 183.019 1.42947 182.432 1.47833C182.261 1.44724 182.175 1.40061 182.216 1.3473C182.238 1.31398 182.293 1.26956 182.347 1.2629C182.64 1.23181 182.933 1.2118 183.227 1.18737Z" fill="#FFE492"/>
<path d="M320.903 24.1878C321.187 24.1656 321.476 24.1322 321.761 24.1211C321.91 24.1167 322.027 24.1678 322.045 24.2255C322.054 24.2522 321.982 24.2988 321.923 24.3099C321.517 24.3854 321.079 24.3943 320.655 24.4321C320.519 24.4432 320.375 24.4076 320.294 24.3454C320.172 24.2499 320.239 24.2144 320.47 24.2211C320.614 24.2233 320.759 24.1989 320.903 24.1878Z" fill="#FFE492"/>
<path d="M252.18 16.4079C252.324 16.3968 252.473 16.3679 252.613 16.3768C252.762 16.3879 252.857 16.4523 252.902 16.5167C252.952 16.59 252.947 16.6589 252.902 16.7211C252.83 16.8277 252.757 16.8232 252.59 16.7522C252.333 16.6411 252.315 16.6544 251.805 16.6589C251.746 16.6589 251.674 16.6255 251.629 16.5967C251.561 16.5523 251.597 16.4834 251.755 16.4434C251.873 16.4146 252.035 16.419 252.18 16.4079Z" fill="#FFE492"/>
<path d="M310.328 23.4593C310.54 23.4415 310.752 23.4127 310.964 23.4127C311.113 23.4104 311.231 23.4615 311.244 23.517C311.249 23.5437 311.181 23.5881 311.127 23.6014C310.869 23.6614 310.581 23.6659 310.301 23.6859C310.17 23.6947 310.025 23.6592 309.944 23.597C309.822 23.5037 309.895 23.4615 310.116 23.4748C310.183 23.4793 310.256 23.466 310.328 23.4593Z" fill="#FFE492"/>
<path d="M276.938 20.7345C276.623 20.7612 276.325 20.7279 276.347 20.6701C276.379 20.5946 276.51 20.5457 276.645 20.5324C276.862 20.5102 277.078 20.4924 277.3 20.4791C277.439 20.4702 277.566 20.5035 277.679 20.5613C277.611 20.6323 277.507 20.6834 277.372 20.699C277.232 20.7145 277.083 20.7234 276.938 20.7345Z" fill="#FFE492"/>
<path d="M274.865 20.4504C275.077 20.4326 275.289 20.4038 275.501 20.4038C275.65 20.4015 275.767 20.4526 275.781 20.5081C275.786 20.5348 275.718 20.5792 275.664 20.5925C275.406 20.6525 275.117 20.6569 274.838 20.6769C274.707 20.6858 274.562 20.6503 274.481 20.5881C274.359 20.4948 274.431 20.4526 274.653 20.466C274.72 20.4704 274.792 20.4571 274.865 20.4504Z" fill="#FFE492"/>
<path d="M249.622 16.39C249.834 16.3722 250.046 16.3434 250.258 16.3411C250.407 16.3389 250.524 16.39 250.538 16.4455C250.542 16.4722 250.475 16.5144 250.421 16.5299C250.163 16.5899 249.874 16.5944 249.594 16.6143C249.464 16.6232 249.319 16.5877 249.238 16.5255C249.116 16.4322 249.188 16.39 249.409 16.4033C249.477 16.4078 249.549 16.3945 249.622 16.39Z" fill="#FFE492"/>
<path d="M248.433 16.2592C248.659 16.2415 248.731 16.2303 248.803 16.2303C248.939 16.2303 249.078 16.257 249.16 16.3214C249.282 16.4147 249.209 16.4414 248.988 16.4458C248.704 16.4502 248.424 16.4969 248.14 16.5058C247.991 16.5102 247.873 16.4569 247.864 16.4014C247.86 16.3747 247.927 16.3281 247.982 16.3192C248.171 16.2859 248.379 16.2659 248.433 16.2592Z" fill="#FFE492"/>
<path d="M273.028 3.19268C272.883 3.20379 272.73 3.23488 272.594 3.22378C272.414 3.20823 272.341 3.14827 272.387 3.09274C272.414 3.06165 272.463 3.01723 272.518 3.01057C272.806 2.97947 273.1 2.95947 273.389 2.93726C273.56 2.97057 273.637 3.01721 273.592 3.07274C273.565 3.10383 273.515 3.14603 273.461 3.15491C273.321 3.17712 273.172 3.18157 273.028 3.19268Z" fill="#FFE492"/>
<path d="M97.849 4.47412C97.9891 4.4719 98.1156 4.50077 98.224 4.5563C98.1562 4.62737 98.0569 4.67401 97.9213 4.694C97.8535 4.70288 97.7767 4.70954 97.7044 4.71176C97.5643 4.7162 97.4378 4.68511 97.3293 4.62958C97.3971 4.55851 97.501 4.51187 97.6321 4.49188C97.6998 4.48299 97.7767 4.48078 97.849 4.47412Z" fill="#FFE492"/>
<path d="M319.36 24.179C319.355 24.1146 319.631 24.0413 319.88 24.0435C320.011 24.0457 320.146 24.0768 320.223 24.1368C320.34 24.2279 320.273 24.2634 320.051 24.2567C319.916 24.2523 319.771 24.29 319.635 24.2834C319.482 24.2811 319.392 24.2323 319.36 24.179Z" fill="#FFE492"/>
<path d="M253.489 16.6768C253.485 16.6523 253.462 16.6235 253.476 16.6013C253.562 16.4791 254.081 16.4413 254.217 16.548C254.239 16.5679 254.248 16.6012 254.23 16.6212C254.203 16.6523 254.154 16.6923 254.099 16.7012C253.959 16.7234 253.815 16.7345 253.67 16.7367C253.607 16.7367 253.548 16.699 253.489 16.6768Z" fill="#FFE492"/>
<path d="M11.5767 16.1994C11.0435 16.246 11.0344 16.2416 11.1293 16.1305C11.2152 16.0306 11.3734 15.9706 11.6038 15.9706C11.6716 15.9706 11.7439 15.9662 11.8026 15.975C11.8659 15.9861 11.9563 16.0083 11.9698 16.035C11.9969 16.0861 11.9201 16.1416 11.7845 16.1794C11.7258 16.1971 11.649 16.1927 11.5767 16.1994Z" fill="#FFE492"/>
<path d="M104.515 4.16133C104.357 4.19909 104.221 4.18577 104.122 4.1147C104.022 4.04363 104.18 3.95922 104.456 3.93923C104.528 3.93479 104.605 3.91703 104.673 3.92592C104.741 3.93258 104.809 3.95921 104.849 3.98586C104.921 4.03028 104.876 4.09027 104.732 4.14135C104.673 4.16134 104.587 4.15689 104.515 4.16133Z" fill="#FFE492"/>
<path d="M318.419 24.0123C318.46 23.9834 318.5 23.9545 318.546 23.9279C318.713 23.9656 318.785 24.01 318.74 24.0611C318.713 24.0922 318.659 24.1189 318.618 24.1477C318.451 24.11 318.383 24.0633 318.419 24.0123Z" fill="#FFE492"/>
<path d="M18.7256 41.4831C18.7256 41.4564 18.7888 41.4142 18.8385 41.4053C18.9334 41.3898 19.0509 41.4209 19.1322 41.4831C19.2452 41.5719 19.1775 41.6185 18.9696 41.5941C18.825 41.5763 18.7256 41.5319 18.7256 41.4831Z" fill="#FFE492"/>
<path d="M255.327 14.6091C255.386 14.6291 255.445 14.6491 255.499 14.6713C255.422 14.7535 255.327 14.789 255.228 14.7668C255.165 14.7535 255.11 14.7268 255.052 14.7068C255.129 14.6246 255.219 14.5935 255.327 14.6091Z" fill="#FFE492"/>
<path d="M253.765 14.5092C253.855 14.4759 253.964 14.4937 254.09 14.5581C254.05 14.587 254.014 14.6203 253.964 14.6425C253.878 14.6781 253.765 14.6603 253.643 14.5936C253.679 14.567 253.72 14.5381 253.765 14.5092Z" fill="#FFE492"/>
<path d="M252.569 14.6069C252.627 14.6269 252.686 14.6469 252.74 14.6691C252.663 14.7513 252.573 14.7868 252.469 14.7646C252.406 14.7513 252.352 14.7246 252.293 14.7047C252.37 14.6225 252.46 14.5892 252.569 14.6069Z" fill="#FFE492"/>
<path d="M251.687 14.4891C251.755 14.5335 251.719 14.5868 251.588 14.6468C251.529 14.6268 251.462 14.6112 251.416 14.5846C251.344 14.5424 251.38 14.4868 251.516 14.4269C251.57 14.4491 251.629 14.4691 251.687 14.4891Z" fill="#FFE492"/>
</svg>
